<svg width="63" height="86" viewBox="0 0 63 86" fill="none" xmlns="http://www.w3.org/2000/svg">
<g clip-path="url(#clip0_1092_1280)">
<path d="M0 69.4167L0.520882 68.6881L25.1489 21.9568L25.2016 21.4618L14.3448 1.06866C13.4354 -0.639288 10.874 -0.206648 10.5781 1.7047L0 69.4167Z" fill="#FFF1B0"/>
<path fill-rule="evenodd" clip-rule="evenodd" d="M0.307617 68.8613L0.701514 68.0929L25.0712 21.8514L14.2424 1.37537C13.3416 -0.31428 11.0568 0.116205 10.7609 2.00818L0.307617 68.8613Z" fill="#FEA612"/>
<path d="M0.307617 68.8613L0.701514 68.0929L25.0712 21.8514L14.2424 1.37537C13.3416 -0.31428 11.0568 0.116205 10.7609 2.00818L0.307617 68.8613Z" fill="url(#paint0_linear_1092_1280)"/>
<path d="M33.1162 36.8871L41.2039 28.6078L33.1172 13.1718C32.3499 11.7113 30.2115 11.707 29.4474 13.1718L25.1274 21.4112V22.1129L33.1162 36.8871Z" fill="#FFF1B0"/>
<path fill-rule="evenodd" clip-rule="evenodd" d="M32.9719 36.5417L40.8282 28.4938L32.9719 13.5344C32.225 12.1138 30.4127 11.9653 29.6744 13.3902L25.3308 21.7567L25.2017 22.1872L32.9719 36.5417Z" fill="#FEA612"/>
<path d="M32.9719 36.5417L40.8282 28.4938L32.9719 13.5344C32.225 12.1138 30.4127 11.9653 29.6744 13.3902L25.3308 21.7567L25.2017 22.1872L32.9719 36.5417Z" fill="url(#paint1_linear_1092_1280)"/>
<path d="M0 69.4166L0.23569 69.1788L1.09343 68.8312L32.6081 37.4338L33.0074 36.3468L25.1457 21.366L0 69.4166Z" fill="#BFA737"/>
<path d="M34.1257 85.2509L62.6452 69.3445L54.5005 19.1845C54.4431 18.8302 54.2889 18.4986 54.055 18.2263C53.8211 17.9541 53.5165 17.7517 53.1749 17.6415C52.8333 17.5313 52.4679 17.5176 52.119 17.6018C51.7701 17.6861 51.4513 17.8651 51.1976 18.119L-0.000976562 69.4166L28.3572 85.2498C29.2387 85.7416 30.2314 85.9998 31.2409 85.9998C32.2503 85.9998 33.243 85.7416 34.1246 85.2498" fill="#FFF1B0"/>
<path d="M62.3912 69.2111L54.3078 19.432C54.0548 17.8737 52.4545 17.229 51.3396 18.3461L0.316406 69.3198L28.3625 84.9959C29.2373 85.4839 30.2224 85.7401 31.2241 85.7401C32.2258 85.7401 33.2109 85.4839 34.0858 84.9959L62.3912 69.2111Z" fill="url(#paint2_linear_1092_1280)"/>
<path d="M34.1256 84.7828C33.244 85.2746 32.2513 85.5328 31.2419 85.5328C30.2324 85.5328 29.2397 85.2746 28.3582 84.7828L0.229233 69.1778L0 69.4188L28.3582 85.252C29.2397 85.7438 30.2324 86.002 31.2419 86.002C32.2513 86.002 33.244 85.7438 34.1256 85.252L62.6451 69.3456L62.5752 68.9152L34.1256 84.7828Z" fill="#FFF1B0"/>
</g>
<defs>
<linearGradient id="paint0_linear_1092_1280" x1="12.837" y1="0.325774" x2="-33.2002" y2="101.415" gradientUnits="userSpaceOnUse">
<stop stop-color="#FFE466"/>
<stop offset="1" stop-color="#BFA737"/>
</linearGradient>
<linearGradient id="paint1_linear_1092_1280" x1="33.1081" y1="12.3947" x2="22.8375" y2="52.7864" gradientUnits="userSpaceOnUse">
<stop stop-color="#FFE466"/>
<stop offset="1" stop-color="#BFA737"/>
</linearGradient>
<linearGradient id="paint2_linear_1092_1280" x1="31.7236" y1="17.7906" x2="10.6115" y2="134.999" gradientUnits="userSpaceOnUse">
<stop stop-color="#FFE466"/>
<stop offset="1" stop-color="#BFA737"/>
</linearGradient>
<clipPath id="clip0_1092_1280">
<rect width="62.6462" height="86" fill="white"/>
</clipPath>
</defs>
</svg>
