<svg width="589" height="451" viewBox="0 0 589 451" fill="none" xmlns="http://www.w3.org/2000/svg">
<g opacity="0.1">
<path d="M514.862 228.224C514.862 278.338 498.747 324.677 471.422 362.324C469.94 364.365 468.427 366.383 466.881 368.373C460.167 377.003 452.853 385.139 444.994 392.715C443.8 393.866 442.593 395.005 441.373 396.128C439.972 397.425 438.552 398.702 437.116 399.961C430.151 406.078 422.808 411.771 415.133 417.005C404.062 424.558 392.294 431.157 379.942 436.686H194.394C182.701 431.452 171.527 425.257 160.976 418.205C160.385 417.807 159.791 417.41 159.204 417.005C156.438 415.119 153.714 413.172 151.035 411.166C133.709 398.195 118.288 382.81 105.268 365.507C101.052 359.907 97.0922 354.107 93.3966 348.123C85.4244 335.209 78.7014 321.439 73.3984 306.982C72.5431 304.653 71.7265 302.308 70.9455 299.943C63.5026 277.39 59.4746 253.277 59.4746 228.224C59.4746 182.422 72.9369 139.77 96.1142 104.029C100.191 97.7403 104.567 91.6685 109.225 85.8296C150.951 33.5256 215.154 0.0192413 287.168 0.0192413C352.869 0.0192413 412.07 27.9067 453.628 72.515C460.945 80.3692 467.713 88.741 473.878 97.572C475.805 100.335 477.674 103.139 479.478 105.992C481.702 109.496 483.832 113.064 485.862 116.693C487.411 119.459 488.906 122.26 490.339 125.097C497.314 138.868 502.933 153.438 507.019 168.638C512.135 187.633 514.862 207.611 514.862 228.224Z" fill="#CFB53B"/>
</g>
<path d="M373.306 341.045C358.353 346.347 340.32 345.807 326.713 337.06C313.337 328.461 301.153 322.254 284.699 322.555C269.994 322.823 257.836 330.79 243.596 332.485C232.302 333.831 220.825 328.895 212.64 320.979C204.648 313.254 199.342 301.473 202.818 290.905C204.639 285.37 208.615 280.806 210.884 275.442C216.116 263.069 202.337 255.606 205.765 242.583C208.68 231.507 220.806 223.608 220.625 212.153C220.493 203.768 214.018 197.273 211.736 189.516C209.435 181.691 209.945 172.924 214.002 165.775C216.984 160.522 221.774 156.223 227.325 153.852C232.312 151.723 237.88 151.681 241.737 147.317C248.608 139.534 251.129 131.101 260.553 125.411C268.535 120.594 279.073 120.287 288.23 121.128C308.577 122.998 328.323 133.76 339.781 150.901C343.841 156.976 346.772 163.194 346.875 170.414C346.988 178.307 346.985 186.245 351.81 192.958C355.861 198.593 362.365 201.889 368.813 204.431C375.262 206.974 382.021 209.031 387.679 213.036C393.34 217.041 397.836 223.575 397.174 230.488C396.622 236.275 392.626 241.302 392.094 247.089C391.126 257.612 401.244 265.259 407.48 273.78C416.21 285.713 417.66 302.586 411.088 315.836C403.523 331.091 389.773 334.533 375.369 340.275C374.688 340.547 374 340.805 373.309 341.051L373.306 341.045Z" fill="#242424"/>
<path d="M264.588 144.277C269.533 141.381 275.281 140.055 280.991 139.825C286.723 139.605 292.465 140.343 298.029 141.731C309.187 144.545 319.35 151.202 326.438 160.357C329.94 164.96 332.651 170.197 334.259 175.784C335.876 181.387 336.205 187.248 336.137 192.98C336.079 198.725 335.672 204.438 335.86 210.092C335.979 212.897 336.324 215.702 337.176 218.319C338.016 220.926 339.468 223.333 341.618 224.905C343.738 226.519 346.465 227.201 349.219 227.531C351.981 227.858 354.867 227.878 357.746 228.262C363.446 229.032 369.239 230.391 374.203 233.665C376.643 235.298 378.838 237.576 379.907 240.448C381.014 243.321 380.791 246.462 380.049 249.324C379.187 252.22 377.55 254.649 376.408 257.182C375.265 259.718 374.533 262.445 374.284 265.224C373.758 270.813 375.188 276.419 377.173 281.721C379.122 287.068 381.462 292.338 382.827 297.954C383.496 300.755 383.902 303.641 383.857 306.536C383.822 309.428 383.295 312.307 382.356 315.024C380.481 320.471 376.947 325.301 372.377 328.723C376.866 325.191 380.255 320.306 381.979 314.894C383.783 309.476 383.544 303.595 382.053 298.145C380.626 292.645 378.248 287.44 376.208 282.08C374.139 276.756 372.561 270.991 373.035 265.114C373.258 262.193 373.99 259.31 375.162 256.619C376.353 253.941 377.941 251.547 378.696 248.927C379.358 246.28 379.535 243.466 378.554 240.962C377.612 238.452 375.659 236.414 373.38 234.9C368.752 231.86 363.1 230.527 357.559 229.812C354.776 229.45 351.939 229.446 349.031 229.12C346.162 228.787 343.118 228.081 340.646 226.215C338.161 224.384 336.55 221.628 335.663 218.814C334.756 215.98 334.417 213.049 334.304 210.151C334.136 204.364 334.575 198.651 334.652 192.961C334.743 187.284 334.439 181.587 332.9 176.166C331.347 170.757 328.788 165.649 325.438 161.111C318.65 152.095 308.767 145.428 297.826 142.497C292.361 141 286.684 140.133 281 140.217C275.336 140.314 269.597 141.491 264.588 144.27V144.277Z" fill="white"/>
<path d="M336.567 271.124C337.097 284.057 334.108 293.771 322.304 300.166C312.906 305.261 301.651 306.934 291.278 307.189C273.881 307.619 254.499 303.123 241.486 290.876C239.123 288.654 236.857 285.93 236.686 282.685C236.531 279.738 238.148 276.96 238.29 274.013C238.529 269.041 234.672 264.923 232.949 260.255C230.67 254.089 232.219 247.206 234.265 240.959C236.312 234.713 238.871 228.405 238.565 221.838C238.168 213.321 233.058 205.881 228.969 198.402C224.88 190.923 221.662 181.823 225.154 174.05C227.455 168.926 232.949 164.986 238.558 164.362C244.487 163.702 249.813 170.492 253.612 174.231C258.721 179.264 264.414 183.703 270.54 187.426C279.01 192.579 288.311 196.377 296.277 202.28C301.099 205.852 306.27 210.756 308.571 216.446C311.166 222.857 306.622 229.065 312.115 234.962C315.659 238.766 321.097 240.06 325.384 243.004C334.553 249.302 336.144 260.908 336.564 271.121L336.567 271.124Z" fill="#242424"/>
<path d="M240.494 343.49C252.707 324.625 260.308 301.473 249.696 280.172C248.621 278.014 247.327 275.656 245.042 274.896C240.129 273.259 233.464 275.019 229.191 277.532C214.37 286.247 205.3 302.647 196.976 317.237C188.326 332.395 180.816 348.174 172.121 363.31C168.599 369.44 165.046 375.651 163.154 382.467C161.502 388.435 161.318 395.274 163.577 401.112C173.334 426.367 200.165 395.432 208.334 386.087C219.989 372.749 230.872 358.358 240.494 343.484V343.49Z" fill="#057F79"/>
<path d="M351.017 319.947C354.528 305.607 356.349 290.937 348.393 281.171C344.8 276.759 338.397 273.689 333.158 271.506C322.94 267.245 312.492 261.52 301.554 259.663C290.022 257.706 277.195 256.499 265.702 259.297C258.401 261.077 251.571 264.366 245.042 267.918C239.377 270.998 232.428 273.65 229.679 279.383C223.014 293.273 217.101 307.765 212.195 322.318C208.089 334.494 203.583 347.259 210.052 359.6C212.146 363.598 215.19 367.021 217.588 370.841C220.257 375.098 221.255 379.096 221.603 384.003C222.404 395.206 222.09 406.44 222.058 417.655C222.048 420.887 222.094 424.248 223.559 427.156C226.451 432.885 234.313 432.966 239.978 432.956C258.646 432.924 277.315 432.895 295.98 432.862C303.745 432.849 309.681 433.768 316.972 435.211C323.108 436.427 328.375 433.441 331.322 427.932C334.107 422.718 334.32 416.63 334.62 410.772C335.782 387.979 339.136 365.29 344.623 343.093C346.175 336.807 348.899 328.588 351.017 319.944V319.947Z" fill="#059997"/>
<mask id="mask0_1347_1660" style="mask-type:luminance" maskUnits="userSpaceOnUse" x="206" y="257" width="149" height="179">
<path d="M351.017 319.947C354.528 305.607 356.349 290.937 348.393 281.171C344.8 276.759 338.397 273.689 333.158 271.506C322.94 267.245 312.492 261.52 301.554 259.663C290.022 257.706 277.195 256.499 265.702 259.297C258.401 261.077 251.571 264.366 245.042 267.918C239.377 270.998 232.428 273.65 229.679 279.383C223.014 293.273 217.101 307.765 212.195 322.318C208.089 334.494 203.583 347.259 210.052 359.6C212.146 363.598 215.19 367.021 217.588 370.841C220.257 375.098 221.255 379.096 221.603 384.003C222.404 395.206 222.09 406.44 222.058 417.655C222.048 420.887 222.094 424.248 223.559 427.156C226.451 432.885 234.313 432.966 239.978 432.956C258.646 432.924 277.315 432.895 295.98 432.862C303.745 432.849 309.681 433.768 316.972 435.211C323.108 436.427 328.375 433.441 331.322 427.932C334.107 422.718 334.32 416.63 334.62 410.772C335.782 387.979 339.136 365.29 344.623 343.093C346.175 336.807 348.899 328.588 351.017 319.944V319.947Z" fill="white"/>
</mask>
<g mask="url(#mask0_1347_1660)">
<path d="M307.78 279.043C312.172 271.635 313.173 262.377 307.415 255.238C304.781 251.974 300.127 251.608 296.147 251.534C288.311 251.388 280.458 252.22 272.828 254.012C265.556 255.716 258.139 258.605 254.989 265.964C252.649 271.431 253.466 277.759 256.548 282.76C259.349 287.305 263.994 290.666 269.178 291.905C277.547 293.9 287.346 293.632 295.331 290.274C300.333 288.168 304.823 284.024 307.776 279.043H307.78Z" fill="#024342"/>
<g opacity="0.2">
<path d="M357.63 390.696C357.572 379.271 357.514 367.845 357.456 356.42C357.436 352.441 360.012 328.232 353.838 328.507C353.173 328.536 352.563 328.882 352.021 329.27C348.948 331.473 347.37 335.157 345.937 338.661C341.437 349.637 337.658 367.205 328.295 374.888C318.773 382.697 304.136 385.99 292.304 387.866C278.486 390.056 264.443 390.218 250.484 391.068C241.453 391.618 231.489 392.922 225.557 399.77C221.319 404.658 219.163 411.988 216.901 417.963C214.922 423.184 213.35 429.385 217.362 434.111C219.073 436.129 221.452 437.453 223.84 438.582C232.554 442.699 242.076 444.773 251.578 446.368C278.167 450.829 305.269 451.754 332.197 450.47C337.955 450.195 344.197 449.619 348.444 445.714C351.604 442.809 353.092 438.53 354.154 434.367C357.762 420.175 357.711 405.344 357.637 390.703L357.63 390.696Z" fill="#024342"/>
</g>
</g>
<path d="M230.312 195.578C220.125 206.081 229.366 231.746 245.61 228.033C263.065 224.041 260.441 196.778 244.655 192.301C238.5 190.554 233.591 192.194 230.312 195.575V195.578Z" fill="#CFB53B"/>
<path d="M377.634 340.508C374.923 340.508 372.131 340.327 369.275 339.961L369.439 338.677C380.746 340.123 391.016 338.632 399.143 334.368C410.059 328.643 416.207 318.155 416.456 304.831C416.656 294.217 414.2 285.218 409.358 278.81C406.957 275.63 403.836 272.88 400.818 270.221C396.241 266.188 391.51 262.018 389.179 256.257C386.768 250.285 387.072 241.584 392.317 236.505C394.97 233.933 397.632 230.695 397.232 226.176C396.716 220.324 392.597 214.036 386.739 210.157C378.806 204.904 368.813 203.06 360.083 201.947C353.844 201.151 347.192 199.372 345.129 192.178C344.316 189.344 344.242 186.394 344.167 183.541C344.145 182.642 344.119 181.713 344.074 180.811C343.706 173.778 343.16 165.449 341.892 157.012C340.685 148.996 335.705 140.311 328.226 133.178C327.3 132.295 326.325 131.434 325.325 130.622C309.138 117.482 277.908 111.844 258.972 124.764C252.613 129.102 248.347 135.575 246.962 142.989C245.958 148.362 244.325 149.633 239.225 151.222C237.647 151.713 236.004 152.186 234.413 152.645C226.767 154.851 218.859 157.132 213.059 162.505C207.776 167.396 205.074 174.885 205.829 182.538C206.472 189.011 209.845 193.203 213.418 197.642C215.035 199.65 216.706 201.727 218.201 204.098C223.494 212.496 218.972 222.692 213.489 228.871C211.988 230.562 210.264 232.109 208.599 233.606C205.258 236.608 202.102 239.442 200.514 243.376C197.932 249.764 200.633 256.807 202.476 260.433C202.892 261.251 203.347 262.076 203.786 262.875C204.522 264.211 205.284 265.592 205.91 267.025C208.967 274.035 208.647 282.585 205.071 289.343L203.932 288.734C207.327 282.316 207.634 274.197 204.729 267.543C204.125 266.162 203.38 264.81 202.66 263.499C202.215 262.694 201.756 261.859 201.33 261.018C199.39 257.195 196.55 249.755 199.323 242.887C201.024 238.679 204.438 235.609 207.743 232.642C209.383 231.171 211.078 229.647 212.53 228.01C217.713 222.168 222.026 212.58 217.116 204.791C215.661 202.484 214.015 200.433 212.42 198.453C208.725 193.86 205.232 189.522 204.555 182.664C203.757 174.61 206.614 166.717 212.191 161.551C218.217 155.97 226.273 153.648 234.064 151.4C235.649 150.944 237.289 150.471 238.851 149.983C243.508 148.534 244.787 147.634 245.7 142.75C247.146 134.996 251.606 128.229 258.252 123.693C267.141 117.631 279.448 115.102 292.903 116.573C305.517 117.951 317.633 122.707 326.148 129.62C327.174 130.454 328.178 131.334 329.127 132.243C336.808 139.57 341.931 148.527 343.18 156.821C344.458 165.313 345.006 173.681 345.374 180.746C345.423 181.665 345.445 182.603 345.471 183.512C345.542 186.284 345.616 189.15 346.385 191.825C348.234 198.279 354.147 199.89 360.26 200.666C369.139 201.795 379.313 203.681 387.465 209.08C393.637 213.169 397.981 219.836 398.533 226.063C398.982 231.154 395.935 234.816 393.23 237.436C388.395 242.117 388.143 250.204 390.393 255.771C392.607 261.251 397.019 265.136 401.686 269.251C404.752 271.952 407.925 274.747 410.404 278.03C415.423 284.675 417.966 293.952 417.763 304.857C417.505 318.676 411.111 329.564 399.759 335.517C393.462 338.819 385.929 340.508 377.654 340.508H377.634Z" fill="#242424"/>
<path d="M398.301 354.204C401.422 359.849 404.527 365.503 407.574 371.193C413.758 382.742 425.242 408.4 406.857 414.741C397.598 417.934 392.298 414.812 386.175 408.048C363.014 382.464 343.264 353.787 327.614 323.014C321.788 311.559 306.321 281.715 325.109 274.896C331.041 272.741 337.877 273.243 343.435 276.238C345.975 277.607 348.228 279.454 350.381 281.378C363.94 293.496 373.594 309.133 382.183 324.99C387.492 334.792 392.924 344.483 398.301 354.201V354.204Z" fill="#059997"/>
<path d="M291.861 282.821C297.455 281.023 302.063 277.539 303.787 271.997C305.352 266.97 302.883 261.313 302.444 256.241C302.022 251.379 301.967 246.487 302.286 241.619C302.58 237.119 303.009 232.429 302.318 227.942C301.925 225.377 300.521 225.817 297.932 224.798C295.347 223.779 292.442 223.769 289.628 223.776C283.87 223.789 268.858 223.371 265.301 228.434C263.668 230.76 263.539 233.684 263.462 236.453C263.368 239.795 262.777 244.123 262.232 248.784C261.99 250.861 262.138 252.928 261.822 254.989C261.467 257.298 260.592 259.511 259.827 261.72C256.932 270.082 259.643 278.034 268.664 281.864C275.139 284.61 284.38 285.221 291.858 282.818L291.861 282.821Z" fill="#F8A17A"/>
<path d="M302.293 227.942C301.899 225.377 300.495 225.817 297.907 224.798C295.322 223.779 292.417 223.769 289.602 223.776C283.844 223.789 268.833 223.371 265.276 228.434C263.643 230.76 263.514 233.684 263.436 236.453C263.343 239.795 262.752 244.123 262.207 248.784C261.964 250.861 262.113 252.928 261.797 254.989C261.526 256.745 260.954 258.447 260.36 260.135C265.941 262.212 272.248 262.675 278.07 261.238C288.56 258.65 296.503 252.106 302.171 243.599C302.2 242.936 302.219 242.276 302.261 241.613C302.555 237.113 302.984 232.422 302.293 227.936V227.942Z" fill="#E5785C"/>
<path d="M310.652 194.995C310.607 187.29 309.545 179.979 307.567 173.908C299.03 147.715 266.431 141.245 246.801 160.046C224.911 181.011 233.287 231.141 256.345 248.749C262.51 253.455 270.888 255.112 278.376 253.099C301.031 247.012 310.794 219.069 310.652 194.995Z" fill="#F8A17A"/>
<path d="M306.369 195.642C316.397 190.146 319.486 204.063 317.759 210.988C317.046 213.848 315.92 216.64 314.148 218.991C311.763 222.162 304.936 227.418 301.005 223.95C299.22 222.378 299.036 219.703 298.981 217.322C298.833 210.937 299.569 199.366 306.366 195.639L306.369 195.642Z" fill="#F8A17A"/>
<path d="M273.703 241.486C271.243 241.486 268.768 241.305 266.289 240.94L266.731 237.925C275.733 239.254 284.709 237.999 292.691 234.292C294.86 233.286 296.696 232.228 298.307 231.057C301.237 228.929 303.755 226.15 305.582 223.019L308.206 224.559C306.166 228.052 303.361 231.151 300.088 233.526C298.316 234.813 296.312 235.968 293.966 237.058C287.646 239.992 280.749 241.49 273.696 241.49L273.703 241.486Z" fill="#99842C"/>
<path d="M257.498 235.521C261.164 232.368 269.32 232.636 272.009 235.913C274 238.339 273.394 241.422 271.199 243.473C268.604 245.899 265.392 245.76 262.155 245.029C258.101 244.113 253.076 239.326 257.498 235.525V235.521Z" fill="#99842C"/>
<path d="M310.704 174.988C301.718 147.414 267.396 140.602 246.73 160.396C242.163 164.769 238.867 170.359 236.676 176.635C237.137 177.349 237.651 178.064 238.27 178.782C241.104 182.076 245.019 184.223 248.957 186.051C260.463 191.382 272.864 194.51 285.322 196.849C286.239 197.02 287.162 197.192 288.085 197.373C291.516 198.052 294.918 198.9 297.913 200.666C306.379 205.667 302.738 216.669 308.942 221.492C309.503 221.929 310.071 222.21 310.636 222.411C312.928 214.197 314.002 205.48 313.954 197.192C313.906 189.079 312.789 181.383 310.707 174.991L310.704 174.988Z" fill="#E5785C"/>
<path d="M288.973 194.222C292.252 195.439 295.477 196.82 298.152 199.045C305.714 205.337 300.37 215.614 305.724 221.366C310.469 226.461 317.676 219.729 319.564 215.022C323.043 206.353 322.837 196.703 322.582 187.361C322.44 182.153 322.285 176.867 320.761 171.886C319.099 166.451 315.862 161.602 312.005 157.433C300.873 145.396 284.077 139.136 267.813 140.165C255.093 140.967 232.784 151.681 242.754 167.907C245.029 171.611 248.551 174.357 252.149 176.79C262.658 183.89 274.404 188.962 286.33 193.262C287.207 193.579 288.092 193.892 288.973 194.222Z" fill="#242424"/>
<path d="M310.581 191.683C296.425 195.322 290.954 222.052 306.747 227.373C323.718 233.092 335.663 208.456 324.525 196.386C320.18 191.68 315.139 190.512 310.581 191.683Z" fill="#CFB53B"/>
<path d="M315.222 195.112C305.449 196.687 299.43 217.494 309.5 223.223C320.322 229.375 330.479 210.846 324.111 200.174C321.629 196.011 318.366 194.607 315.219 195.115L315.222 195.112Z" fill="#99842C"/>
<path d="M317.195 193.553L313.418 193.116C315.981 170.932 314.887 142.588 295.147 133.537C285.797 129.251 259.024 124.492 247.24 140.43C245.823 142.025 244.874 143.364 244.874 143.364C252.181 120.766 286.639 125.447 296.729 130.072C318.547 140.078 319.903 170.116 317.195 193.556V193.553Z" fill="#CFB53B"/>
<path d="M246.34 402.972H168.71V418.205H246.34V402.972Z" fill="#242424"/>
<path d="M182.03 404.451L162.439 304.485C161.922 301.845 159.611 299.94 156.926 299.94H26.6861C24.8012 299.94 23.1842 300.875 22.1707 302.262L22.1546 302.246L16.1416 309.373L21.4768 308.198L40.7649 406.621C41.2813 409.261 43.5923 411.166 46.2776 411.166H176.521C180.058 411.166 182.714 407.928 182.033 404.451H182.03Z" fill="#7F7F7F"/>
<path d="M40.3225 418.205H170.566C174.103 418.205 176.759 414.967 176.078 411.49L156.487 311.524C155.97 308.884 153.659 306.979 150.974 306.979H20.7311C17.1936 306.979 14.5373 310.217 15.2183 313.694L34.8098 413.66C35.3262 416.3 37.6372 418.205 40.3225 418.205Z" fill="#F9F9F9"/>
<path d="M81.29 360.117C82.4906 366.862 88.92 372.326 95.6463 372.326C102.373 372.326 106.778 366.859 105.478 360.117C104.18 353.373 97.7507 347.909 91.1212 347.909C84.4918 347.909 80.0861 353.376 81.29 360.117Z" fill="#7F7F7F"/>
<path d="M455.13 358.526C456.566 355.553 456.308 352.425 455.404 349.591C454.533 346.693 452.98 344.196 451.298 341.469C449.601 338.777 447.864 335.843 446.802 332.311C445.724 328.74 446.034 324.735 447.022 321.348C449.162 314.438 453.542 309.35 456.563 304.142C458.076 301.506 459.313 298.83 459.803 295.867C460.352 292.933 460.165 289.808 458.725 286.861C461.217 289.048 462.427 292.59 462.589 296.022C462.743 299.49 461.872 303.006 460.546 306.099C457.925 312.371 454 317.466 452.47 322.972C451.602 325.699 451.389 328.338 452.005 330.981C452.518 333.692 453.932 336.426 455.204 339.392C456.553 342.287 457.844 345.635 458.131 349.077C458.422 352.467 457.65 356.3 455.13 358.523V358.526Z" fill="white"/>
<path d="M437.116 362.324H475.821V409.801C475.821 414.265 472.207 417.888 467.752 417.888H445.185C440.731 417.888 437.116 414.265 437.116 409.801V362.324Z" fill="#CFB53B"/>
<path d="M478.523 374.891C477.603 374.891 476.702 374.965 475.821 375.111C472.381 375.677 469.289 377.304 466.881 379.653C463.699 382.764 461.717 387.138 461.717 391.98C461.717 396.823 463.699 401.197 466.881 404.308C469.279 406.65 472.358 408.274 475.786 408.844C475.799 408.847 475.808 408.847 475.821 408.85C476.702 408.996 477.603 409.07 478.523 409.07C487.805 409.07 495.329 401.42 495.329 391.98C495.329 382.541 487.805 374.891 478.523 374.891ZM478.523 402.976C477.59 402.976 476.683 402.856 475.821 402.63C471.157 401.41 467.71 397.104 467.71 391.98C467.71 386.857 471.157 382.551 475.821 381.331C476.683 381.105 477.59 380.985 478.523 380.985C484.494 380.985 489.335 385.909 489.335 391.98C489.335 398.052 484.494 402.976 478.523 402.976Z" fill="#CFB53B"/>
<g opacity="0.2">
<path d="M442.903 396.797C441.751 396.797 440.812 395.853 440.812 394.701V367.658C440.812 366.503 441.754 365.562 442.903 365.562C444.055 365.562 444.994 366.506 444.994 367.658V394.701C444.994 395.856 444.052 396.797 442.903 396.797Z" fill="white"/>
</g>
<path d="M466.881 362.324V408.064C466.881 413.489 462.492 417.888 457.079 417.888H466.016C471.429 417.888 475.818 413.489 475.818 408.064V362.324H466.881Z" fill="#99842C"/>
<path d="M503.856 72.515H371.744C364.466 72.515 358.511 78.4833 358.511 85.7778V155.76C358.511 163.055 364.466 169.023 371.744 169.023H503.856C504.947 169.023 506.005 168.89 507.019 168.638C512.783 167.208 517.089 161.965 517.089 155.76V85.7778C517.089 78.4833 511.134 72.515 503.856 72.515ZM414.432 100.483C414.432 98.8821 415.739 97.572 417.337 97.572H490.029C491.626 97.572 492.933 98.8821 492.933 100.483V103.081C492.933 104.682 491.626 105.992 490.029 105.992H417.337C415.739 105.992 414.432 104.682 414.432 103.081V100.483ZM382.666 100.483C382.666 98.8821 383.973 97.572 385.571 97.572H405.488C407.086 97.572 408.393 98.8821 408.393 100.483V103.081C408.393 104.682 407.086 105.992 405.488 105.992H385.571C383.973 105.992 382.666 104.682 382.666 103.081V100.483ZM437.8 139.683C437.8 141.284 436.493 142.594 434.895 142.594H385.571C383.973 142.594 382.666 141.284 382.666 139.683V137.086C382.666 135.484 383.973 134.174 385.571 134.174H434.895C436.493 134.174 437.8 135.484 437.8 137.086V139.683ZM461.164 122.202C461.164 123.803 459.857 125.113 458.259 125.113H385.571C383.973 125.113 382.666 123.803 382.666 122.202V119.604C382.666 118.003 383.973 116.693 385.571 116.693H458.259C459.857 116.693 461.164 118.003 461.164 119.604V122.202ZM490.029 125.113H470.108C468.51 125.113 467.203 123.803 467.203 122.202V119.604C467.203 118.003 468.51 116.693 470.108 116.693H490.029C491.626 116.693 492.933 118.003 492.933 119.604V122.202C492.933 123.7 491.791 124.942 490.339 125.097C490.235 125.107 490.132 125.113 490.029 125.113Z" fill="#CFB53B"/>
<path d="M405.488 97.572H385.571C383.967 97.572 382.666 98.8755 382.666 100.483V103.081C382.666 104.689 383.967 105.992 385.571 105.992H405.488C407.093 105.992 408.393 104.689 408.393 103.081V100.483C408.393 98.8755 407.093 97.572 405.488 97.572Z" fill="#CFB53B"/>
<path d="M434.895 134.174H385.571C383.967 134.174 382.666 135.478 382.666 137.086V139.683C382.666 141.291 383.967 142.594 385.571 142.594H434.895C436.499 142.594 437.8 141.291 437.8 139.683V137.086C437.8 135.478 436.499 134.174 434.895 134.174Z" fill="#CFB53B"/>
<path d="M458.259 116.693H385.571C383.967 116.693 382.666 117.997 382.666 119.604V122.202C382.666 123.81 383.967 125.113 385.571 125.113H458.259C459.864 125.113 461.164 123.81 461.164 122.202V119.604C461.164 117.997 459.864 116.693 458.259 116.693Z" fill="#CFB53B"/>
<path d="M490.028 97.5721H417.336C415.732 97.5721 414.432 98.8755 414.432 100.483V103.081C414.432 104.689 415.732 105.992 417.336 105.992H490.028C491.633 105.992 492.933 104.689 492.933 103.081V100.483C492.933 98.8755 491.633 97.5721 490.028 97.5721Z" fill="#CFB53B"/>
<path d="M490.029 116.693H470.108C468.504 116.693 467.203 117.997 467.203 119.604V122.202C467.203 123.81 468.504 125.113 470.108 125.113H490.029C491.633 125.113 492.933 123.81 492.933 122.202V119.604C492.933 117.997 491.633 116.693 490.029 116.693Z" fill="#CFB53B"/>
<path d="M414.038 169.023L410.149 171.873L379.384 194.426V169.023H414.038Z" fill="#CFB53B"/>
<path d="M458.259 116.693H385.571C383.967 116.693 382.666 117.997 382.666 119.604V122.202C382.666 123.81 383.967 125.113 385.571 125.113H458.259C459.864 125.113 461.164 123.81 461.164 122.202V119.604C461.164 117.997 459.864 116.693 458.259 116.693Z" fill="white"/>
<path d="M490.029 116.693H470.108C468.504 116.693 467.203 117.997 467.203 119.604V122.202C467.203 123.81 468.504 125.113 470.108 125.113H490.029C491.633 125.113 492.933 123.81 492.933 122.202V119.604C492.933 117.997 491.633 116.693 490.029 116.693Z" fill="white"/>
<path d="M490.028 97.5721H417.336C415.732 97.5721 414.432 98.8755 414.432 100.483V103.081C414.432 104.689 415.732 105.992 417.336 105.992H490.028C491.633 105.992 492.933 104.689 492.933 103.081V100.483C492.933 98.8755 491.633 97.5721 490.028 97.5721Z" fill="white"/>
<path d="M405.488 97.572H385.571C383.967 97.572 382.666 98.8755 382.666 100.483V103.081C382.666 104.689 383.967 105.992 385.571 105.992H405.488C407.093 105.992 408.393 104.689 408.393 103.081V100.483C408.393 98.8755 407.093 97.572 405.488 97.572Z" fill="white"/>
<path d="M434.895 134.174H385.571C383.967 134.174 382.666 135.478 382.666 137.086V139.683C382.666 141.291 383.967 142.594 385.571 142.594H434.895C436.499 142.594 437.8 141.291 437.8 139.683V137.086C437.8 135.478 436.499 134.174 434.895 134.174Z" fill="white"/>
<path d="M510.572 196.364C507.022 196.344 503.575 195.885 501.141 192.395C496.368 185.54 489.077 179.387 480.904 186.358C476.189 190.379 479.736 198.648 475.679 202.626C472.09 206.143 467.529 205.564 465.693 211.399C462.995 219.988 471.503 227.512 474.233 234.939C476.525 241.173 471.37 243.547 469.053 248.403C467.268 252.145 468.185 256.156 470.131 259.737C473.562 266.049 481.169 271.13 479.407 279.305C477.935 286.127 476.57 292.205 482.573 297.375C486.688 300.92 494.328 304.148 493.747 310.709C493.54 313.031 491.94 315.008 491.497 317.295C490.803 320.918 493.143 324.44 495.861 326.925C502.045 332.579 507.477 337.914 512.109 345.03C514.087 348.071 522.014 354.935 518.845 359.092C524.603 351.535 530.687 344.209 535.919 336.267C540.221 329.733 546.705 320.177 542.293 312.132C540.922 309.628 538.365 307.765 537.668 304.996C536.406 299.995 541.306 295.359 543.129 291.106C545.989 284.426 543.891 276.668 538.849 271.658C536.464 269.287 533.879 266.676 533.527 263.328C533.146 259.673 535.431 256.263 536.471 252.889C537.426 249.781 538.023 246.475 538.372 243.243C538.617 240.962 538.714 238.63 538.178 236.398C537.161 232.157 533.35 229.799 530.529 226.787C523.812 219.622 527.343 211.196 524.409 202.869C521.775 195.393 516.053 196.399 510.576 196.367L510.572 196.364Z" fill="#059997"/>
<mask id="mask1_1347_1660" style="mask-type:luminance" maskUnits="userSpaceOnUse" x="465" y="183" width="80" height="177">
<path d="M510.572 196.364C507.022 196.344 503.575 195.885 501.141 192.395C496.368 185.54 489.077 179.387 480.904 186.358C476.189 190.379 479.736 198.648 475.679 202.626C472.09 206.143 467.529 205.564 465.693 211.399C462.995 219.988 471.503 227.512 474.233 234.939C476.525 241.173 471.37 243.547 469.053 248.403C467.268 252.145 468.185 256.156 470.131 259.737C473.562 266.049 481.169 271.13 479.407 279.305C477.935 286.127 476.57 292.205 482.573 297.375C486.688 300.92 494.328 304.148 493.747 310.709C493.54 313.031 491.94 315.008 491.497 317.295C490.803 320.918 493.143 324.44 495.861 326.925C502.045 332.579 507.477 337.914 512.109 345.03C514.087 348.071 522.014 354.935 518.845 359.092C524.603 351.535 530.687 344.209 535.919 336.267C540.221 329.733 546.705 320.177 542.293 312.132C540.922 309.628 538.365 307.765 537.668 304.996C536.406 299.995 541.306 295.359 543.129 291.106C545.989 284.426 543.891 276.668 538.849 271.658C536.464 269.287 533.879 266.676 533.527 263.328C533.146 259.673 535.431 256.263 536.471 252.889C537.426 249.781 538.023 246.475 538.372 243.243C538.617 240.962 538.714 238.63 538.178 236.398C537.161 232.157 533.35 229.799 530.529 226.787C523.812 219.622 527.343 211.196 524.409 202.869C521.775 195.393 516.053 196.399 510.576 196.367L510.572 196.364Z" fill="white"/>
</mask>
<g mask="url(#mask1_1347_1660)">
<path d="M520.365 367.68L518.758 367.538C521.062 341.068 519.358 312.294 513.69 282.016C507.781 250.44 500.909 225.244 492.059 202.723C488.622 193.976 484.849 185.689 480.84 178.09L482.266 177.333C486.301 184.984 490.103 193.326 493.56 202.131C502.445 224.749 509.346 250.039 515.275 281.718C520.968 312.142 522.679 341.061 520.362 367.677L520.365 367.68Z" fill="white"/>
<path d="M505.686 242.463C503.888 240.565 502.5 239.694 500.744 238.588C500.041 238.145 499.243 237.643 498.343 237.029C486.068 228.628 472.735 221.854 458.718 216.895L459.254 215.372C473.403 220.376 486.862 227.214 499.25 235.696C500.121 236.295 500.873 236.764 501.6 237.22C503.452 238.384 504.918 239.306 506.854 241.351L505.682 242.463H505.686Z" fill="white"/>
<path d="M512.506 273.282C499.157 264.635 483.81 258.699 468.13 256.114L468.391 254.52C484.29 257.14 499.847 263.16 513.384 271.926L512.509 273.285L512.506 273.282Z" fill="white"/>
<path d="M517.753 310.172C505.259 299.322 490.125 291.707 473.978 288.149L474.323 286.57C490.729 290.184 506.111 297.921 518.809 308.949L517.75 310.172H517.753Z" fill="white"/>
<path d="M506.376 241.017L504.766 240.914C505.76 225.561 509.5 210.681 515.885 196.684L517.353 197.357C511.053 211.173 507.361 225.862 506.376 241.017Z" fill="white"/>
<path d="M513.503 271.693L512.041 271.008C518.441 257.279 527.817 244.725 539.153 234.697L540.221 235.91C529.05 245.792 519.81 258.165 513.503 271.693Z" fill="white"/>
<path d="M519.909 310.777L518.331 310.447C519.235 306.118 520.8 301.978 522.988 298.138C525.571 293.609 528.924 289.653 532.139 285.994C534.521 283.284 536.974 280.573 539.436 277.933L540.614 279.04C538.165 281.666 535.718 284.367 533.349 287.065C530.189 290.662 526.894 294.544 524.389 298.944C522.285 302.638 520.778 306.62 519.909 310.783V310.777Z" fill="white"/>
</g>
<path d="M554.187 248.58C556.766 249.059 559.329 249.205 561.578 247.008C565.987 242.7 572.126 239.248 577.093 245.436C579.956 249.007 576.244 254.513 578.639 257.961C580.757 261.012 584.145 261.222 584.672 265.712C585.443 272.318 578.232 276.594 575.224 281.605C572.7 285.807 576.112 288.246 577.122 292.089C577.9 295.052 576.68 297.834 574.776 300.16C571.416 304.262 565.196 306.892 565.345 313.067C565.471 318.22 565.622 322.817 560.552 325.734C557.076 327.734 551.088 329.018 550.608 333.857C550.436 335.568 551.327 337.228 551.327 338.949C551.331 341.672 549.149 343.904 546.831 345.331C541.564 348.576 536.887 351.691 532.543 356.21C530.687 358.141 523.99 362.023 525.713 365.474C522.579 359.196 519.177 353.036 516.482 346.547C514.265 341.21 510.879 333.382 515.191 328.157C516.534 326.533 518.641 325.534 519.532 323.622C521.14 320.171 518.225 316.127 517.489 312.789C516.337 307.548 518.932 302.211 523.28 299.273C525.336 297.883 527.572 296.349 528.292 293.968C529.073 291.368 527.885 288.579 527.598 285.988C527.333 283.601 527.359 281.12 527.55 278.729C527.685 277.041 527.94 275.336 528.634 273.789C529.957 270.852 533.049 269.672 535.512 267.879C541.373 263.613 539.976 257.01 543.255 251.379C546.199 246.323 550.211 247.846 554.187 248.58Z" fill="#024342"/>
<mask id="mask2_1347_1660" style="mask-type:luminance" maskUnits="userSpaceOnUse" x="513" y="242" width="72" height="124">
<path d="M554.187 248.58C556.766 249.059 559.329 249.205 561.578 247.008C565.987 242.7 572.126 239.248 577.093 245.436C579.956 249.007 576.244 254.513 578.639 257.961C580.757 261.012 584.145 261.222 584.672 265.712C585.443 272.318 578.232 276.594 575.224 281.605C572.7 285.807 576.112 288.246 577.122 292.089C577.9 295.052 576.68 297.834 574.776 300.16C571.416 304.262 565.196 306.892 565.345 313.067C565.471 318.22 565.622 322.817 560.552 325.734C557.076 327.734 551.088 329.018 550.608 333.857C550.436 335.568 551.327 337.228 551.327 338.949C551.331 341.672 549.149 343.904 546.831 345.331C541.564 348.576 536.887 351.691 532.543 356.21C530.687 358.141 523.99 362.023 525.713 365.474C522.579 359.196 519.177 353.036 516.482 346.547C514.265 341.21 510.879 333.382 515.191 328.157C516.534 326.533 518.641 325.534 519.532 323.622C521.14 320.171 518.225 316.127 517.489 312.789C516.337 307.548 518.932 302.211 523.28 299.273C525.336 297.883 527.572 296.349 528.292 293.968C529.073 291.368 527.885 288.579 527.598 285.988C527.333 283.601 527.359 281.12 527.55 278.729C527.685 277.041 527.94 275.336 528.634 273.789C529.957 270.852 533.049 269.672 535.512 267.879C541.373 263.613 539.976 257.01 543.255 251.379C546.199 246.323 550.211 247.846 554.187 248.58Z" fill="white"/>
</mask>
<g mask="url(#mask2_1347_1660)">
<path d="M524.822 371.633L523.218 371.468C525.216 351.82 530.454 331.062 538.794 309.764C547.476 287.596 555.978 270.196 565.554 255.011C569.282 249.101 573.194 243.57 577.186 238.572L578.445 239.581C574.491 244.53 570.615 250.013 566.919 255.875C557.398 270.972 548.938 288.282 540.295 310.356C532.01 331.515 526.804 352.131 524.822 371.633Z" fill="#059997"/>
<path d="M551.488 282.873L550.546 281.56C552.257 280.33 553.515 279.835 554.974 279.266C555.562 279.036 556.168 278.8 556.882 278.49C567.058 274.048 577.78 270.953 588.754 269.28L588.996 270.878C578.161 272.528 567.575 275.588 557.527 279.971C556.788 280.295 556.136 280.547 555.562 280.773C554.093 281.346 553.031 281.76 551.488 282.873Z" fill="#059997"/>
<path d="M542.244 304.304L541.638 302.806C552.692 298.313 564.834 296.1 576.76 296.407L576.718 298.025C565.012 297.724 553.092 299.898 542.241 304.307L542.244 304.304Z" fill="#059997"/>
<path d="M533.366 330.321L532.556 328.921C543.316 322.668 555.578 319.177 568.014 318.831L568.059 320.449C555.891 320.788 543.894 324.201 533.366 330.321Z" fill="#059997"/>
<path d="M552.457 281.728L550.857 281.527C552.235 270.422 551.586 259.281 548.93 248.412L550.498 248.027C553.203 259.087 553.861 270.429 552.461 281.728H552.457Z" fill="#059997"/>
<path d="M541.457 302.871C538.756 292.209 533.776 281.98 527.056 273.285L528.331 272.295C535.186 281.165 540.266 291.601 543.019 302.473L541.454 302.871H541.457Z" fill="#059997"/>
<path d="M531.403 330.283C531.349 327.164 530.81 324.088 529.799 321.138C528.595 317.618 526.746 314.358 524.958 311.317C523.615 309.039 522.218 306.743 520.801 304.491L522.166 303.628C523.593 305.892 525 308.202 526.349 310.492C528.182 313.604 530.074 316.949 531.329 320.61C532.394 323.722 532.962 326.964 533.02 330.25L531.407 330.279L531.403 330.283Z" fill="#059997"/>
</g>
<path d="M498.943 364.235H551.643L542.4 417.093H508.19L498.943 364.235Z" fill="#CFB53B"/>
<path d="M492.492 364.235H558.096V349.397H492.492V364.235Z" fill="#CFB53B"/>
<g opacity="0.1">
<path d="M550.417 371.245H500.17L498.943 364.235H551.643L550.417 371.245Z" fill="#242424"/>
</g>
<path d="M307.88 394.526C309.461 394.255 311.043 393.996 312.631 393.743C320.345 392.53 328.026 391.091 335.663 389.425C350.791 386.129 366.005 383.298 381.407 381.836C383.041 381.681 384.674 381.542 386.307 381.419C393.211 380.895 400.447 380.727 406.767 384.036C413.086 387.345 418.112 395.173 416.569 402.717C415.484 408.019 411.44 412.007 406.944 414.019C402.451 416.031 397.5 416.381 392.649 416.708C376.924 417.769 361.203 418.83 345.478 419.891C337.693 420.411 329.908 420.952 322.126 421.492C314.693 422.009 307.147 423.061 299.691 423.054C296.538 423.051 293.017 422.459 290.37 420.35C286.687 417.419 284.47 411.179 284.115 406.301C283.931 403.768 284.422 400.695 286.358 399.126C287.394 398.288 288.711 398.03 289.98 397.797C295.954 396.694 301.902 395.545 307.88 394.523V394.526Z" fill="#059997"/>
<path d="M290.241 418.538C286.439 419.325 283.466 422.673 279.683 423.792C276.982 424.591 274.093 424.164 271.498 423.19C269.113 422.294 266.686 421.812 264.236 421.026C262.329 420.415 259.75 419.124 257.7 419.551C252.326 420.673 246.965 424.507 242.095 426.994C241.001 427.554 239.8 428.13 238.593 427.9C237.386 427.67 236.379 426.202 237.066 425.18C235.666 426.493 233.81 429.116 231.547 428.097C230.624 427.68 230.066 426.454 230.576 425.577C229.798 426.431 228.981 427.315 227.91 427.738C226.838 428.162 225.431 427.978 224.798 427.011C224.501 426.554 224.411 425.995 224.385 425.451C224.292 423.582 224.856 421.734 225.634 420.033C229.472 411.639 238.148 405.415 245.532 400.414C246.839 399.531 248.169 398.631 249.677 398.172C251.026 397.758 252.455 397.713 253.866 397.706C263.023 397.664 272.183 399.149 280.862 402.076C282.74 402.71 284.806 402.17 286.678 401.818C288.062 401.559 289.511 401.3 290.864 401.695C292.378 402.138 293.552 403.341 294.476 404.622C296.173 406.98 297.468 410.105 297.267 413.068C297.112 415.32 296.945 417.746 294.301 418.218C293.23 418.409 292.129 418.293 291.048 418.406C290.777 418.435 290.512 418.477 290.247 418.532L290.241 418.538Z" fill="#F8A17A"/>
<path d="M579.011 426.846C579.011 429.563 577.858 432.024 575.993 433.804C574.131 435.583 571.555 436.686 568.711 436.686H10.2992C4.61223 436.686 0 432.28 0 426.846C0 424.128 1.15225 421.667 3.0178 419.887C4.88012 418.108 7.45574 417.005 10.2992 417.005H568.711C574.398 417.005 579.011 421.411 579.011 426.846Z" fill="#A3CCC9"/>
<path d="M132.938 85.5773H112.078C103.209 85.5773 95.9531 92.8492 95.9531 101.738C95.9531 107.234 98.7289 112.109 102.944 115.034V126.407L114.551 117.9H132.938C141.808 117.9 149.063 110.628 149.063 101.738C149.063 92.8492 141.808 85.5773 132.938 85.5773Z" fill="#A3CCC9"/>
<path d="M110.822 104.191C112.174 104.191 113.269 103.093 113.269 101.739C113.269 100.384 112.174 99.2865 110.822 99.2865C109.471 99.2865 108.376 100.384 108.376 101.739C108.376 103.093 109.471 104.191 110.822 104.191Z" fill="white"/>
<path d="M122.506 104.191C123.857 104.191 124.953 103.093 124.953 101.739C124.953 100.384 123.857 99.2865 122.506 99.2865C121.155 99.2865 120.06 100.384 120.06 101.739C120.06 103.093 121.155 104.191 122.506 104.191Z" fill="white"/>
<path d="M134.191 104.191C135.542 104.191 136.637 103.093 136.637 101.739C136.637 100.384 135.542 99.2865 134.191 99.2865C132.839 99.2865 131.744 100.384 131.744 101.739C131.744 103.093 132.839 104.191 134.191 104.191Z" fill="white"/>
<path d="M448.261 227.146C445.043 221.631 436.925 218.862 429.079 228.052C421.233 218.859 413.112 221.631 409.898 227.146C401.971 240.739 429.079 256.732 429.079 256.732C429.079 256.732 456.188 240.739 448.261 227.146Z" fill="#FF0000"/>
<path d="M265.156 56.4379H224.824C222.685 56.4379 220.951 58.1759 220.951 60.3197V84.7071C220.951 86.851 222.685 88.5889 224.824 88.5889H265.156C267.295 88.5889 269.029 86.851 269.029 84.7071V60.3197C269.029 58.1759 267.295 56.4379 265.156 56.4379Z" fill="#A3CCC9"/>
<path d="M244.99 79.4635C244.025 79.4635 243.064 79.1076 242.328 78.3927L221.277 57.9357L222.175 57.0073L243.225 77.4643C244.18 78.3927 245.797 78.3927 246.753 77.4643L267.803 57.0073L268.7 57.9357L247.65 78.3927C246.917 79.1076 245.952 79.4635 244.987 79.4635H244.99Z" fill="white"/>
<path d="M238.608 73.7448L221.336 87.0423L222.122 88.0685L239.395 74.771L238.608 73.7448Z" fill="white"/>
<path d="M251.379 73.7478L250.593 74.774L267.865 88.0715L268.651 87.0453L251.379 73.7478Z" fill="white"/>
<path d="M183.389 175.389H135.595C133.456 175.389 131.722 177.127 131.722 179.271V210.17C131.722 212.314 133.456 214.052 135.595 214.052H183.389C185.528 214.052 187.262 212.314 187.262 210.17V179.271C187.262 177.127 185.528 175.389 183.389 175.389Z" fill="#024342"/>
<path d="M159.489 226.27L169.226 213.107H149.751L159.489 226.27Z" fill="#024342"/>
<path d="M172.128 188.299L168.465 191.224L169.624 192.673L170.931 191.618C171.086 191.495 171.363 191.233 171.76 190.832L171.721 192.016L171.699 193.1V199.692H174.1V188.299H172.128Z" fill="white"/>
<path d="M156.29 187.918H148.408C145.058 187.918 142.314 190.664 142.314 194.025C142.314 196.102 143.363 197.946 144.955 199.049V203.348L149.341 200.132H156.29C159.64 200.132 162.384 197.386 162.384 194.025C162.384 190.667 159.643 187.918 156.29 187.918Z" fill="white"/>
<g opacity="0.1">
<path d="M414.038 169.023L410.149 171.873H379.384V169.023H414.038Z" fill="#242424"/>
</g>
</svg>
