<svg width="242" height="74" viewBox="0 0 242 74" fill="none" xmlns="http://www.w3.org/2000/svg">
<g clip-path="url(#clip0_1143_1194)">
<path d="M68.3005 21.8364L43.5923 0L0 21.751L20.2695 63.9372L30.4416 28.6382L16.7666 28.4695L19.842 21.9972L53.8793 21.9039L51.8304 28.9022L38.8733 28.7414L25.769 74L57.5032 61.5515L68.3005 21.8364Z" fill="white"/>
<path d="M81.0295 33.1253C80.2135 33.1433 79.4025 32.9966 78.6463 32.6942C77.8902 32.3917 77.2051 31.94 76.6332 31.3668C76.0555 30.8009 75.5993 30.1264 75.292 29.3834C74.9847 28.6404 74.8325 27.8441 74.8444 27.042H111.951C111.968 27.8486 111.815 28.6499 111.499 29.3946C111.184 30.1393 110.714 30.811 110.12 31.3668C109.552 31.9318 108.874 32.3786 108.127 32.6807C107.381 32.9828 106.58 33.134 105.772 33.1253H81.0295ZM81.0295 45.2979C80.2152 45.3145 79.4061 45.1672 78.6518 44.8647C77.8975 44.5623 77.214 44.1113 76.6433 43.5394C76.0657 42.973 75.6097 42.2981 75.3024 41.5548C74.9951 40.8115 74.8428 40.015 74.8545 39.2126H111.961C111.977 40.0202 111.821 40.8221 111.504 41.5671C111.187 42.3122 110.716 42.9839 110.12 43.5394C109.552 44.1043 108.874 44.5512 108.127 44.8533C107.381 45.1553 106.58 45.3066 105.772 45.2979H81.0295ZM81.0295 57.4684C80.2135 57.4865 79.4025 57.3398 78.6463 57.0373C77.8902 56.7349 77.2051 56.2831 76.6332 55.7099C76.0553 55.1438 75.5991 54.4689 75.2918 53.7256C74.9845 52.9822 74.8323 52.1856 74.8444 51.3832H111.951C111.968 52.1905 111.813 52.9923 111.496 53.7374C111.18 54.4824 110.709 55.1543 110.114 55.7099C109.546 56.2749 108.868 56.7217 108.121 57.0238C107.374 57.3259 106.573 57.4771 105.766 57.4684H81.0295Z" fill="#CFB53B"/>
<path d="M81.0295 33.1253C80.2135 33.1433 79.4025 32.9966 78.6463 32.6942C77.8902 32.3917 77.2051 31.94 76.6332 31.3668C76.0555 30.8009 75.5993 30.1264 75.292 29.3834C74.9847 28.6404 74.8325 27.8441 74.8444 27.042H111.951C111.968 27.8486 111.815 28.6499 111.499 29.3946C111.184 30.1393 110.714 30.811 110.12 31.3668C109.552 31.9318 108.874 32.3786 108.127 32.6807C107.381 32.9828 106.58 33.134 105.772 33.1253H81.0295ZM81.0295 57.4684C80.2135 57.4865 79.4025 57.3398 78.6463 57.0373C77.8902 56.7349 77.2051 56.2831 76.6332 55.7099C76.0553 55.1438 75.5991 54.4689 75.2918 53.7256C74.9845 52.9822 74.8323 52.1856 74.8444 51.3832H111.951C111.968 52.1905 111.813 52.9923 111.496 53.7374C111.18 54.4824 110.709 55.1543 110.114 55.7099C109.546 56.2749 108.868 56.7217 108.121 57.0238C107.374 57.3259 106.573 57.4771 105.766 57.4684H81.0295Z" fill="white"/>
<path d="M124.313 33.1253C123.497 33.1436 122.686 32.997 121.93 32.6945C121.174 32.392 120.489 31.9402 119.917 31.3668C119.339 30.8012 118.882 30.1267 118.575 29.3836C118.268 28.6406 118.116 27.8442 118.128 27.042H155.235C155.252 27.8489 155.097 28.6504 154.781 29.3951C154.465 30.1399 153.995 30.8114 153.4 31.3668C152.83 31.933 152.151 32.3805 151.403 32.6826C150.654 32.9848 149.851 33.1353 149.042 33.1253H124.313ZM118.128 57.4684V39.2086H155.235V57.4684H149.042V45.2979H124.313V57.4684H118.128Z" fill="white"/>
<path d="M161.414 57.4684V27.042H167.595V51.3832H198.513C198.529 52.1905 198.374 52.9923 198.058 53.7374C197.742 54.4824 197.271 55.1543 196.675 55.7099C196.108 56.2751 195.43 56.722 194.683 57.0242C193.936 57.3263 193.135 57.4774 192.328 57.4684H161.414Z" fill="white"/>
<path d="M204.702 57.4685C204.687 56.6728 204.838 55.8825 205.145 55.1464C205.453 54.4104 205.911 53.7443 206.49 53.1894C207.059 52.6086 207.742 52.1487 208.499 51.8381C209.255 51.5275 210.068 51.3726 210.887 51.3832H235.619V45.2979H204.702V27.0381H241.808C241.825 27.845 241.671 28.6465 241.355 29.3912C241.039 30.1359 240.568 30.8075 239.973 31.3629C239.405 31.9279 238.728 32.3747 237.981 32.6768C237.234 32.9789 236.433 33.1301 235.625 33.1214H210.883V39.2126H241.808V57.4725L204.702 57.4685Z" fill="white"/>
<path d="M166.286 61.7207C166.56 61.7202 166.823 61.8267 167.018 62.0169C167.212 62.207 167.322 62.4653 167.323 62.735V66.9724H166.339V65.208H162.967V66.9724H161.989V62.733C161.988 62.5996 162.015 62.4675 162.066 62.3442C162.118 62.2209 162.194 62.1089 162.289 62.0146C162.385 61.9204 162.499 61.8457 162.624 61.7949C162.75 61.7441 162.884 61.7182 163.019 61.7188L166.286 61.7207ZM166.339 64.2454V62.733C166.338 62.7196 166.332 62.707 166.323 62.6978C166.313 62.6885 166.3 62.6833 166.286 62.6834H163.019C163.012 62.6828 163.006 62.6837 162.999 62.6859C162.993 62.6882 162.987 62.6918 162.982 62.6965C162.977 62.7012 162.973 62.7069 162.97 62.7132C162.968 62.7195 162.967 62.7262 162.967 62.733V64.2434L166.339 64.2454Z" fill="#CFB53B"/>
<path d="M174.73 61.7207V62.6853H172.558V66.9724H171.572V62.6853H169.394V61.7207H174.73Z" fill="#CFB53B"/>
<path d="M186.171 61.7207L183.702 65.0114V66.9724H182.72V65.0114C181.944 63.9675 181.024 62.7647 180.254 61.7207H181.417L183.208 63.9536L184.999 61.7207H186.171Z" fill="#CFB53B"/>
<path d="M192.301 61.7207C192.574 61.7218 192.835 61.829 193.028 62.0191C193.221 62.2091 193.329 62.4665 193.33 62.735V65.9582C193.329 66.2267 193.221 66.4841 193.028 66.6741C192.835 66.8641 192.574 66.9714 192.301 66.9724H189.026C188.891 66.973 188.756 66.9471 188.631 66.8963C188.506 66.8455 188.392 66.7708 188.296 66.6766C188.2 66.5823 188.125 66.4703 188.073 66.347C188.021 66.2237 187.995 66.0915 187.996 65.9582V62.733C187.995 62.5996 188.021 62.4675 188.073 62.3442C188.125 62.2209 188.2 62.1089 188.296 62.0146C188.392 61.9204 188.506 61.8457 188.631 61.7949C188.756 61.7441 188.891 61.7182 189.026 61.7188L192.301 61.7207ZM192.301 66.0098C192.314 66.0083 192.325 66.0022 192.334 65.9926C192.342 65.983 192.346 65.9707 192.346 65.9582V62.733C192.346 62.7207 192.342 62.7086 192.334 62.6994C192.325 62.6901 192.314 62.6844 192.301 62.6834H189.026C189.019 62.6831 189.013 62.6842 189.006 62.6865C189 62.6889 188.994 62.6925 188.989 62.6972C188.984 62.7018 188.98 62.7074 188.978 62.7135C188.975 62.7197 188.974 62.7263 188.974 62.733V65.9562C188.973 65.9631 188.975 65.9699 188.977 65.9763C188.98 65.9827 188.983 65.9885 188.988 65.9933C188.993 65.9982 188.999 66.002 189.006 66.0045C189.012 66.007 189.019 66.0081 189.026 66.0078L192.301 66.0098Z" fill="#CFB53B"/>
<path d="M199.973 61.7207H200.959V65.9582C200.958 66.2268 200.849 66.4842 200.656 66.6742C200.463 66.8642 200.201 66.9714 199.928 66.9724H196.653C196.518 66.9727 196.384 66.9466 196.258 66.8957C196.133 66.8449 196.02 66.7701 195.924 66.6759C195.828 66.5817 195.752 66.4698 195.7 66.3466C195.649 66.2234 195.622 66.0914 195.623 65.9582V61.7207H196.603V65.9582C196.602 65.9649 196.603 65.9715 196.606 65.9778C196.608 65.984 196.612 65.9897 196.617 65.9946C196.621 65.9994 196.627 66.0032 196.633 66.0058C196.64 66.0084 196.646 66.0098 196.653 66.0098H199.928C199.941 66.0083 199.952 66.0021 199.961 65.9926C199.969 65.983 199.973 65.9707 199.973 65.9582V61.7207Z" fill="#CFB53B"/>
<path d="M208.594 64.156C208.592 64.4252 208.482 64.6827 208.287 64.8723C208.093 65.0619 207.831 65.1682 207.557 65.1682H207.267L208.594 66.7223V66.9704H207.525L205.986 65.1682H204.236V66.9704H203.258V61.7207H207.555C207.829 61.7207 208.092 61.8274 208.286 62.0174C208.48 62.2074 208.59 62.4654 208.592 62.7349L208.594 64.156ZM207.557 64.2076C207.564 64.2076 207.571 64.2063 207.577 64.2037C207.583 64.201 207.589 64.1972 207.594 64.1924C207.598 64.1876 207.602 64.1819 207.605 64.1756C207.607 64.1694 207.608 64.1627 207.608 64.156V62.7409C207.608 62.7341 207.607 62.7273 207.605 62.7209C207.603 62.7146 207.599 62.7087 207.594 62.7038C207.59 62.699 207.584 62.6951 207.577 62.6926C207.571 62.6901 207.564 62.689 207.557 62.6893H204.298C204.292 62.6893 204.285 62.6906 204.279 62.6932C204.272 62.6958 204.267 62.6997 204.262 62.7045C204.257 62.7093 204.254 62.715 204.251 62.7213C204.249 62.7275 204.248 62.7342 204.248 62.7409V64.156C204.248 64.1694 204.253 64.1822 204.263 64.1918C204.272 64.2014 204.285 64.2071 204.298 64.2076H207.557Z" fill="#CFB53B"/>
<path d="M219.561 62.6833H215.642V63.8623H218.798V64.8269H215.642V66.0177H219.561V66.9803H214.656V61.7207H219.561V62.6833Z" fill="#CFB53B"/>
<path d="M226.123 61.7207C226.397 61.7202 226.66 61.8267 226.854 62.0168C227.048 62.207 227.158 62.4652 227.159 62.7349V66.9724H226.175V65.2079H222.803V66.9724H221.825V62.7329C221.825 62.6001 221.851 62.4685 221.903 62.3457C221.954 62.2229 222.03 62.1113 222.125 62.0173C222.22 61.9233 222.334 61.8487 222.458 61.7978C222.583 61.7469 222.717 61.7207 222.852 61.7207H226.123ZM226.175 64.2453V62.7329C226.175 62.7196 226.169 62.707 226.159 62.6977C226.149 62.6885 226.136 62.6833 226.123 62.6833H222.852C222.845 62.6831 222.838 62.6841 222.832 62.6865C222.825 62.6889 222.82 62.6925 222.815 62.6971C222.81 62.7018 222.806 62.7073 222.803 62.7135C222.801 62.7196 222.799 62.7263 222.799 62.7329V64.2433L226.175 64.2453Z" fill="#CFB53B"/>
<path d="M234.795 63.1339H233.81V62.7369C233.811 62.7246 233.807 62.7126 233.798 62.7033C233.79 62.6941 233.779 62.6883 233.766 62.6873H230.491C230.484 62.6871 230.477 62.6881 230.471 62.6905C230.465 62.6929 230.459 62.6965 230.454 62.7011C230.449 62.7058 230.445 62.7113 230.443 62.7175C230.44 62.7236 230.439 62.7303 230.439 62.7369V63.8167C230.438 63.8234 230.439 63.8302 230.442 63.8365C230.444 63.8428 230.448 63.8484 230.453 63.8531C230.458 63.8578 230.464 63.8614 230.471 63.8637C230.477 63.866 230.484 63.8668 230.491 63.8663H233.766C234.039 63.8673 234.301 63.9748 234.494 64.1653C234.686 64.3558 234.795 64.6136 234.795 64.8825V65.9602C234.794 66.2287 234.686 66.486 234.493 66.6761C234.3 66.8661 234.039 66.9734 233.766 66.9744H230.491C230.356 66.9747 230.221 66.9486 230.096 66.8977C229.971 66.8469 229.857 66.7722 229.762 66.6779C229.666 66.5837 229.59 66.4718 229.538 66.3486C229.487 66.2255 229.46 66.0935 229.46 65.9602V65.5632H230.439V65.9602C230.438 65.967 230.439 65.9739 230.442 65.9803C230.444 65.9867 230.448 65.9925 230.453 65.9973C230.458 66.0022 230.464 66.006 230.471 66.0084C230.477 66.0109 230.484 66.0121 230.491 66.0118H233.766C233.779 66.0103 233.79 66.0042 233.799 65.9946C233.807 65.985 233.811 65.9727 233.81 65.9602V64.8825C233.811 64.8699 233.807 64.8577 233.799 64.8481C233.79 64.8385 233.779 64.8324 233.766 64.8309H230.491C230.356 64.8311 230.221 64.8051 230.096 64.7542C229.971 64.7033 229.857 64.6286 229.762 64.5344C229.666 64.4402 229.59 64.3283 229.538 64.2051C229.487 64.0819 229.46 63.9499 229.46 63.8167V62.733C229.46 62.5997 229.487 62.4677 229.538 62.3445C229.59 62.2214 229.666 62.1095 229.762 62.0152C229.857 61.921 229.971 61.8463 230.096 61.7954C230.221 61.7445 230.356 61.7185 230.491 61.7188H233.766C234.039 61.7198 234.3 61.8271 234.493 62.0171C234.686 62.2071 234.794 62.4645 234.795 62.733V63.1339Z" fill="#CFB53B"/>
<path d="M242.01 62.6833H238.092V63.8623H241.248V64.8269H238.092V66.0177H242.01V66.9803H237.105V61.7207H242.01V62.6833Z" fill="#CFB53B"/>
</g>
<defs>
<clipPath id="clip0_1143_1194">
<rect width="242" height="74" fill="white"/>
</clipPath>
</defs>
</svg>
