<svg width="449" height="600" viewBox="0 0 449 600" fill="none" xmlns="http://www.w3.org/2000/svg">
<g clip-path="url(#clip0_1457_1229)">
<path d="M153.438 147.324L178.913 166.737L142.417 215.456L116.926 196.043L153.438 147.324Z" fill="#A5A5A5"/>
<path d="M222.677 216.133L248.169 235.529L100.258 510.189L74.7837 490.793L222.677 216.133Z" fill="#AFAFAF"/>
<path d="M417.632 193.152L443.123 212.548L178.913 166.737L153.438 147.324L417.632 193.152Z" fill="#808080"/>
<path d="M380.663 0L406.154 19.3963L555.129 231.724L529.638 212.328L380.663 0Z" fill="#B4B4B4"/>
<path d="M368.255 522.246L393.746 541.642L123.248 600L97.7732 580.587L368.255 522.246Z" fill="#808080"/>
<path d="M529.638 212.328L555.13 231.724L393.746 541.642L368.255 522.246L529.638 212.328Z" fill="#B0B0B0"/>
<path d="M380.663 0L529.638 212.328L368.255 522.246L97.7731 580.587L287.876 228.511L388.067 247.552L417.632 193.151L153.438 147.324L116.925 196.043L222.677 216.133L74.7836 490.792L0 118.187L380.663 0Z" fill="url(#paint0_linear_1457_1229)"/>
</g>
<defs>
<linearGradient id="paint0_linear_1457_1229" x1="127.676" y1="77.4161" x2="383.41" y2="515.651" gradientUnits="userSpaceOnUse">
<stop stop-color="white"/>
<stop offset="1" stop-color="#CCCCCC"/>
</linearGradient>
<clipPath id="clip0_1457_1229">
<rect width="449" height="600" fill="white"/>
</clipPath>
</defs>
</svg>
