<svg width="120" height="120" viewBox="0 0 120 120" fill="none" xmlns="http://www.w3.org/2000/svg">
<circle cx="60" cy="60" r="60" fill="url(#paint0_linear_281_588)"/>
<path d="M118 60C118 67.6167 116.5 75.1588 113.585 82.1956C110.67 89.2325 106.398 95.6264 101.012 101.012C95.6264 106.398 89.2325 110.67 82.1956 113.585C75.1588 116.5 67.6167 118 60 118C52.3833 118 44.8412 116.5 37.8044 113.585C30.7675 110.67 24.3736 106.398 18.9878 101.012C13.602 95.6264 9.32976 89.2325 6.41499 82.1956C3.50022 75.1587 2 67.6167 2.00001 60" stroke="#CFB53B" stroke-width="4"/>
<g clip-path="url(#clip0_281_588)">
<g filter="url(#filter0_d_281_588)">
<path d="M36.1905 57.0238C36.949 57.0246 37.6787 57.3151 38.2303 57.8358C38.7819 58.3565 39.1138 59.0683 39.1583 59.8255C39.2027 60.5828 38.9563 61.3285 38.4695 61.9102C37.9826 62.4919 37.292 62.8657 36.5387 62.9553L36.1905 62.9761H33.2143C32.4557 62.9753 31.7261 62.6848 31.1745 62.1641C30.6229 61.6433 30.291 60.9316 30.2465 60.1744C30.2021 59.4171 30.4484 58.6714 30.9353 58.0897C31.4222 57.508 32.1128 57.1342 32.8661 57.0446L33.2143 57.0238H36.1905ZM60 30.238C60.729 30.2381 61.4326 30.5058 61.9773 30.9902C62.522 31.4746 62.8701 32.1421 62.9554 32.866L62.9762 33.2142V36.1904C62.9753 36.949 62.6849 37.6786 62.1641 38.2302C61.6434 38.7818 60.9317 39.1137 60.1744 39.1582C59.4172 39.2026 58.6715 38.9563 58.0898 38.4694C57.5081 37.9825 57.1342 37.2919 57.0446 36.5386L57.0238 36.1904V33.2142C57.0238 32.4249 57.3374 31.6679 57.8955 31.1097C58.4537 30.5516 59.2107 30.238 60 30.238ZM86.7857 57.0238C87.5443 57.0246 88.2739 57.3151 88.8255 57.8358C89.3771 58.3565 89.709 59.0683 89.7535 59.8255C89.7979 60.5828 89.5516 61.3285 89.0647 61.9102C88.5778 62.4919 87.8872 62.8657 87.1339 62.9553L86.7857 62.9761H83.8095C83.051 62.9753 82.3213 62.6848 81.7697 62.1641C81.2181 61.6433 80.8862 60.9316 80.8418 60.1744C80.7973 59.4171 81.0437 58.6714 81.5306 58.0897C82.0174 57.508 82.708 57.1342 83.4613 57.0446L83.8095 57.0238H86.7857ZM38.8482 38.8482C39.3607 38.3357 40.0425 38.0279 40.7658 37.9824C41.4891 37.9369 42.2042 38.1569 42.7768 38.6011L43.0566 38.8482L45.1399 40.9315C45.6737 41.4671 45.9836 42.1858 46.0066 42.9416C46.0297 43.6974 45.7642 44.4336 45.2641 45.0008C44.764 45.5679 44.0668 45.9235 43.3141 45.9952C42.5613 46.0669 41.8095 45.8494 41.2113 45.3868L40.9315 45.1398L38.8482 43.0565C38.2903 42.4984 37.9768 41.7415 37.9768 40.9523C37.9768 40.1631 38.2903 39.4063 38.8482 38.8482ZM76.9435 38.8482C77.479 38.3144 78.1977 38.0045 78.9535 37.9814C79.7093 37.9583 80.4456 38.2238 81.0127 38.7239C81.5799 39.224 81.9354 39.9212 82.0071 40.674C82.0788 41.4267 81.8613 42.1785 81.3988 42.7767L81.1518 43.0565L79.0685 45.1398C78.5329 45.6736 77.8142 45.9835 77.0584 46.0066C76.3026 46.0297 75.5663 45.7642 74.9992 45.2641C74.432 44.764 74.0765 44.0668 74.0048 43.314C73.9331 42.5613 74.1506 41.8094 74.6131 41.2113L74.8601 40.9315L76.9435 38.8482ZM65.9524 77.8571C66.7417 77.8571 67.4987 78.1706 68.0569 78.7288C68.615 79.2869 68.9286 80.0439 68.9286 80.8333C68.9286 83.2013 67.9879 85.4723 66.3135 87.1467C64.639 88.8212 62.368 89.7618 60 89.7618C57.632 89.7618 55.361 88.8212 53.6865 87.1467C52.0121 85.4723 51.0714 83.2013 51.0714 80.8333C51.0715 80.1043 51.3392 79.4007 51.8236 78.856C52.308 78.3112 52.9754 77.9632 53.6994 77.8779L54.0476 77.8571H65.9524ZM60 42.1428C63.7479 42.1428 67.4008 43.322 70.4413 45.5135C73.4817 47.7049 75.7556 50.7974 76.9408 54.353C78.126 57.9086 78.1624 61.7469 77.0449 65.3244C75.9274 68.9018 73.7126 72.0369 70.7143 74.2857C70.3041 74.5938 69.8212 74.7906 69.3125 74.8571L68.9286 74.8809H51.0714C50.4275 74.8809 49.8009 74.672 49.2857 74.2857C46.2874 72.0369 44.0726 68.9018 42.9551 65.3244C41.8376 61.7469 41.874 57.9086 43.0592 54.353C44.2444 50.7974 46.5183 47.7049 49.5587 45.5135C52.5992 43.322 56.2521 42.1428 60 42.1428Z" fill="url(#paint1_linear_281_588)"/>
</g>
</g>
<defs>
<filter id="filter0_d_281_588" x="26.2414" y="30.238" width="67.5172" height="67.5238" filterUnits="userSpaceOnUse" color-interpolation-filters="sRGB">
<feFlood flood-opacity="0" result="BackgroundImageFix"/>
<feColorMatrix in="SourceAlpha" type="matrix" values="0 0 0 0 0 0 0 0 0 0 0 0 0 0 0 0 0 0 127 0" result="hardAlpha"/>
<feOffset dy="4"/>
<feGaussianBlur stdDeviation="2"/>
<feComposite in2="hardAlpha" operator="out"/>
<feColorMatrix type="matrix" values="0 0 0 0 0 0 0 0 0 0 0 0 0 0 0 0 0 0 0.16 0"/>
<feBlend mode="normal" in2="BackgroundImageFix" result="effect1_dropShadow_281_588"/>
<feBlend mode="normal" in="SourceGraphic" in2="effect1_dropShadow_281_588" result="shape"/>
</filter>
<linearGradient id="paint0_linear_281_588" x1="60" y1="120" x2="60" y2="-7.15255e-06" gradientUnits="userSpaceOnUse">
<stop stop-color="#024342"/>
<stop offset="1" stop-color="#059997"/>
</linearGradient>
<linearGradient id="paint1_linear_281_588" x1="60" y1="30.238" x2="60" y2="89.7618" gradientUnits="userSpaceOnUse">
<stop stop-color="white"/>
<stop offset="1" stop-color="#E6E6E6"/>
</linearGradient>
<clipPath id="clip0_281_588">
<rect width="60" height="60" fill="white" transform="translate(30 30)"/>
</clipPath>
</defs>
</svg>
