<svg width="120" height="120" viewBox="0 0 120 120" fill="none" xmlns="http://www.w3.org/2000/svg">
<circle cx="60" cy="60" r="60" fill="url(#paint0_linear_282_300)"/>
<path d="M118 60C118 67.6167 116.5 75.1588 113.585 82.1956C110.67 89.2325 106.398 95.6264 101.012 101.012C95.6264 106.398 89.2325 110.67 82.1956 113.585C75.1588 116.5 67.6167 118 60 118C52.3833 118 44.8412 116.5 37.8044 113.585C30.7675 110.67 24.3736 106.398 18.9878 101.012C13.602 95.6264 9.32976 89.2325 6.41499 82.1956C3.50022 75.1587 2 67.6167 2.00001 60" stroke="#CFB53B" stroke-width="4"/>
<g clip-path="url(#clip0_282_300)">
<g filter="url(#filter0_d_282_300)">
<path d="M67.8047 80.7656H52.1953C50.3086 80.7656 48.7734 82.3008 48.7734 84.1875V87.8906C48.7734 89.0625 49.7344 90.0117 50.8945 90.0117H69.082C70.2539 90.0117 71.2031 89.0625 71.2031 87.8906V84.1875C71.2148 82.2891 69.6797 80.7656 67.8047 80.7656ZM58.2773 63.5039C58.2773 64.4531 59.0508 65.2266 60 65.2266C60.9492 65.2266 61.7227 64.4531 61.7227 63.5039C61.7227 62.5664 60.9609 61.7695 59.9883 61.7695C59.0391 61.7812 58.2773 62.5547 58.2773 63.5039Z" fill="url(#paint1_linear_282_300)"/>
<path d="M60.8203 44.9765C60.7617 44.8944 60.6328 44.9296 60.6328 45.0351V60.5976C61.9688 60.8905 62.9883 62.0741 62.9883 63.5155C62.9883 65.1562 61.6524 66.4804 60.0117 66.4804C58.4883 66.4804 57.293 65.3671 57.0703 63.996C56.8125 62.3554 57.8906 60.914 59.3789 60.5976V45.0351C59.3789 44.9296 59.2383 44.8944 59.1914 44.9765L45.9141 65.5077C44.9531 66.996 45.3164 69.0116 46.7344 70.0898C50.2149 72.7148 52.3477 75.8085 53.2266 79.5116H66.7734C67.6524 75.8085 69.7852 72.7148 73.2656 70.0898C74.6953 69.0116 75.0586 66.996 74.086 65.5077L60.8203 44.9765Z" fill="url(#paint2_linear_282_300)"/>
<path d="M85.8047 56.1445C84.1406 46.418 77.1094 38.5078 67.875 35.5898C72.5391 35.6016 77.1211 35.6133 81.1758 35.6133C81.5039 37.7461 83.3438 39.375 85.5586 39.375C88.0078 39.375 90 37.3828 90 34.9336C90 32.4844 88.0078 30.4922 85.5586 30.4922C83.3086 30.4922 81.4453 32.1797 81.1641 34.3594C77.3203 34.3477 71.3789 34.3359 65.0039 34.3242V32.5547C65.0039 31.1484 63.8672 30 62.4609 30H57.5391C56.1328 30 54.9844 31.1484 54.9844 32.5547V34.3242C46.793 34.3125 41.8359 34.3125 38.8125 34.3242C38.5195 32.168 36.668 30.5039 34.4414 30.5039C31.9922 30.5039 30 32.4961 30 34.9336C30 37.3828 31.9922 39.375 34.4414 39.375C36.668 39.375 38.5195 37.7227 38.8242 35.5781C42.0352 35.5664 46.7812 35.5664 52.1836 35.5664C42.9258 38.4727 35.8594 46.3945 34.1953 56.1445C31.8516 56.2734 30 58.207 30 60.5742C30 63.0234 31.9922 65.0156 34.4414 65.0156C36.8906 65.0156 38.8828 63.0234 38.8828 60.5742C38.8828 58.4766 37.418 56.7187 35.4492 56.2617C37.2188 46.1953 45.0234 38.1797 54.9961 36.1406V37.4648C54.9961 38.8711 56.1445 40.0195 57.5508 40.0195H62.4609C63.8672 40.0195 65.0156 38.8711 65.0156 37.4648V36.1289C74.9883 38.168 82.8047 46.1836 84.5625 56.25C82.6055 56.707 81.1289 58.4648 81.1289 60.5625C81.1289 63.0117 83.1211 65.0039 85.5703 65.0039C88.0195 65.0039 90.0117 63.0117 90.0117 60.5625C90 58.207 88.1484 56.2734 85.8047 56.1445Z" fill="url(#paint3_linear_282_300)"/>
</g>
</g>
<defs>
<filter id="filter0_d_282_300" x="26" y="30" width="68.0117" height="68.0117" filterUnits="userSpaceOnUse" color-interpolation-filters="sRGB">
<feFlood flood-opacity="0" result="BackgroundImageFix"/>
<feColorMatrix in="SourceAlpha" type="matrix" values="0 0 0 0 0 0 0 0 0 0 0 0 0 0 0 0 0 0 127 0" result="hardAlpha"/>
<feOffset dy="4"/>
<feGaussianBlur stdDeviation="2"/>
<feComposite in2="hardAlpha" operator="out"/>
<feColorMatrix type="matrix" values="0 0 0 0 0 0 0 0 0 0 0 0 0 0 0 0 0 0 0.16 0"/>
<feBlend mode="normal" in2="BackgroundImageFix" result="effect1_dropShadow_282_300"/>
<feBlend mode="normal" in="SourceGraphic" in2="effect1_dropShadow_282_300" result="shape"/>
</filter>
<linearGradient id="paint0_linear_282_300" x1="60" y1="120" x2="60" y2="-7.15255e-06" gradientUnits="userSpaceOnUse">
<stop stop-color="#024342"/>
<stop offset="1" stop-color="#059997"/>
</linearGradient>
<linearGradient id="paint1_linear_282_300" x1="59.9883" y1="61.7695" x2="59.9883" y2="90.0117" gradientUnits="userSpaceOnUse">
<stop stop-color="white"/>
<stop offset="1" stop-color="#E6E6E6"/>
</linearGradient>
<linearGradient id="paint2_linear_282_300" x1="60.0041" y1="44.9312" x2="60.0041" y2="79.5116" gradientUnits="userSpaceOnUse">
<stop stop-color="white"/>
<stop offset="1" stop-color="#E6E6E6"/>
</linearGradient>
<linearGradient id="paint3_linear_282_300" x1="60.0059" y1="30" x2="60.0059" y2="65.0156" gradientUnits="userSpaceOnUse">
<stop stop-color="white"/>
<stop offset="1" stop-color="#E6E6E6"/>
</linearGradient>
<clipPath id="clip0_282_300">
<rect width="60" height="60" fill="white" transform="translate(30 30)"/>
</clipPath>
</defs>
</svg>
