<svg width="198" height="239" viewBox="0 0 198 239" fill="none" xmlns="http://www.w3.org/2000/svg">
<path d="M194.311 21.0057C198.422 24.5846 197.83 27.1249 193.351 30.3683C161.965 52.6979 134.367 79.9115 111.608 110.972C90.7317 139.599 75.4817 171.922 66.667 206.228C64.268 215.67 63.3405 225.4 61.6132 235.082C61.1821 236.309 60.5554 237.458 59.7577 238.485C38.9662 221.102 20.1739 201.946 9.04238 176.83C-5.60767 143.773 -1.4975 111.164 14.48 79.8971C35.5115 38.7562 66.603 9.40639 113.832 1.24211C137.822 -2.89595 160.293 3.79844 181.804 14.0238C186.17 16.1168 190.153 18.6731 194.311 21.0057Z" fill="url(#paint0_radial_526_799)"/>
<defs>
<radialGradient id="paint0_radial_526_799" cx="0" cy="0" r="1" gradientUnits="userSpaceOnUse" gradientTransform="translate(63.4901 82.3409) rotate(95.3697) scale(192.344 177.581)">
<stop stop-color="#FFDF49"/>
<stop offset="1" stop-color="#B39C33"/>
</radialGradient>
</defs>
</svg>
