<svg width="357" height="571" viewBox="0 0 357 571" fill="none" xmlns="http://www.w3.org/2000/svg">
<g opacity="0.6" filter="url(#filter0_f_569_808)">
<path d="M336.432 528.607C336.432 540.669 325.86 550.559 312.921 550.463C298.735 550.367 288.403 540.669 288.563 527.568C288.691 516.624 299.759 507.293 312.842 507.213C326.676 507.118 336.368 515.937 336.432 528.607Z" fill="#059997"/>
</g>
<path d="M313.356 541.213C298.962 541.213 287.255 530.124 287.511 516.752C287.616 510.041 290.358 503.641 295.146 498.933C299.933 494.225 306.382 491.587 313.101 491.588C328.406 491.412 339.138 502.181 338.978 517.567C338.754 531.227 327.878 541.293 313.356 541.213Z" fill="url(#paint0_radial_569_808)"/>
<g opacity="0.6" filter="url(#filter1_f_569_808)">
<path d="M68.4322 42.2703C68.4322 54.333 57.8602 64.2227 44.9214 64.1268C30.7352 64.0309 20.4034 54.3329 20.5634 41.2318C20.6913 30.2875 31.7591 20.9569 44.8418 20.877C58.6761 20.7811 68.3682 29.6005 68.4322 42.2703Z" fill="#059997"/>
</g>
<path d="M68.4322 33.0191C68.4322 45.0818 57.8602 54.9714 44.9214 54.8756C30.7352 54.7797 20.4034 45.0817 20.5634 31.9805C20.6913 21.0362 31.7591 11.7057 44.8418 11.6258C58.6761 11.5299 68.3682 20.3493 68.4322 33.0191Z" fill="url(#paint1_radial_569_808)"/>
<defs>
<filter id="filter0_f_569_808" x="268.562" y="487.213" width="87.8706" height="83.2512" filterUnits="userSpaceOnUse" color-interpolation-filters="sRGB">
<feFlood flood-opacity="0" result="BackgroundImageFix"/>
<feBlend mode="normal" in="SourceGraphic" in2="BackgroundImageFix" result="shape"/>
<feGaussianBlur stdDeviation="10" result="effect1_foregroundBlur_569_808"/>
</filter>
<filter id="filter1_f_569_808" x="0.561523" y="0.876221" width="87.8706" height="83.2512" filterUnits="userSpaceOnUse" color-interpolation-filters="sRGB">
<feFlood flood-opacity="0" result="BackgroundImageFix"/>
<feBlend mode="normal" in="SourceGraphic" in2="BackgroundImageFix" result="shape"/>
<feGaussianBlur stdDeviation="10" result="effect1_foregroundBlur_569_808"/>
</filter>
<radialGradient id="paint0_radial_569_808" cx="0" cy="0" r="1" gradientUnits="userSpaceOnUse" gradientTransform="translate(326.804 510.619) rotate(140.377) scale(40.4827 45.4445)">
<stop stop-color="#059997"/>
<stop offset="1" stop-color="#024342"/>
</radialGradient>
<radialGradient id="paint1_radial_569_808" cx="0" cy="0" r="1" gradientUnits="userSpaceOnUse" gradientTransform="translate(57.1081 28.2128) rotate(142.193) scale(36.7049 40.6251)">
<stop stop-color="#059997"/>
<stop offset="1" stop-color="#024342"/>
</radialGradient>
</defs>
</svg>
