<svg width="284" height="525" viewBox="0 0 284 525" fill="none" xmlns="http://www.w3.org/2000/svg">
<g opacity="0.6" filter="url(#filter0_f_569_815)">
<path d="M34.9252 472.059C43.7376 471.963 49.943 478.45 50.087 487.828C50.2149 496.951 43.5776 504.317 35.325 504.189C26.5765 504.061 19.8592 496.648 20.0031 487.269C19.9627 485.286 20.3189 483.315 21.0507 481.471C21.7825 479.628 22.8754 477.948 24.265 476.532C25.6547 475.115 27.3134 473.99 29.1439 473.222C30.9744 472.454 32.9397 472.058 34.9252 472.059Z" fill="#FFDF49"/>
</g>
<path d="M34.9252 465.926C43.7376 465.83 49.943 472.317 50.087 481.696C50.2149 490.819 43.5776 498.184 35.325 498.056C26.5765 497.928 19.8592 490.515 20.0031 481.137C19.9627 479.154 20.3189 477.183 21.0507 475.339C21.7825 473.495 22.8754 471.816 24.265 470.399C25.6547 468.983 27.3134 467.857 29.1439 467.089C30.9744 466.321 32.9397 465.926 34.9252 465.926Z" fill="url(#paint0_radial_569_815)"/>
<g opacity="0.6" filter="url(#filter1_f_569_815)">
<path d="M248.455 46.638C239.53 46.638 234.06 41.9568 233.916 34.3357C233.772 26.7147 240.186 20.8351 248.519 20.8191C257.395 20.8191 263.121 25.9637 263.089 33.9522C263.057 42.4999 258.243 46.6699 248.455 46.638Z" fill="#FFDF49"/>
</g>
<path d="M248.455 44.8189C239.53 44.8189 234.06 40.1377 233.916 32.5166C233.772 24.8956 240.186 19.016 248.519 19C257.395 19 263.121 24.1446 263.089 32.1331C263.057 40.6808 258.243 44.8508 248.455 44.8189Z" fill="url(#paint1_radial_569_815)"/>
<defs>
<filter id="filter0_f_569_815" x="0" y="452.058" width="70.0889" height="72.1326" filterUnits="userSpaceOnUse" color-interpolation-filters="sRGB">
<feFlood flood-opacity="0" result="BackgroundImageFix"/>
<feBlend mode="normal" in="SourceGraphic" in2="BackgroundImageFix" result="shape"/>
<feGaussianBlur stdDeviation="10" result="effect1_foregroundBlur_569_815"/>
</filter>
<filter id="filter1_f_569_815" x="213.914" y="0.819092" width="69.1748" height="65.8191" filterUnits="userSpaceOnUse" color-interpolation-filters="sRGB">
<feFlood flood-opacity="0" result="BackgroundImageFix"/>
<feBlend mode="normal" in="SourceGraphic" in2="BackgroundImageFix" result="shape"/>
<feGaussianBlur stdDeviation="10" result="effect1_foregroundBlur_569_815"/>
</filter>
<radialGradient id="paint0_radial_569_815" cx="0" cy="0" r="1" gradientUnits="userSpaceOnUse" gradientTransform="translate(27.1079 474.713) rotate(46.4688) scale(27.5862 25.8316)">
<stop stop-color="#FFDF49"/>
<stop offset="1" stop-color="#CFB53B"/>
</radialGradient>
<radialGradient id="paint1_radial_569_815" cx="0" cy="0" r="1" gradientUnits="userSpaceOnUse" gradientTransform="translate(240.806 26.0608) rotate(41.0985) scale(24.447 22.7099)">
<stop stop-color="#FFDF49"/>
<stop offset="1" stop-color="#CFB53B"/>
</radialGradient>
</defs>
</svg>
