<svg width="280" height="503" viewBox="0 0 280 503" fill="none" xmlns="http://www.w3.org/2000/svg">
<path d="M87.2929 502.478L80.7514 501.519C90.3475 492.188 100.631 485.079 109.54 476.387C132.794 453.54 152.642 428.456 166.54 398.738C175.577 379.406 183.702 359.786 187.524 338.904C192.626 311.088 196.081 283.161 193.282 254.482C191.427 235.453 189.443 216.504 184.629 198.147C175.401 162.997 159.695 130.755 135.913 102.7C109.49 71.1556 73.8312 48.6815 33.9544 38.4399C23.9265 35.7557 14.1226 32.5124 3.64684 32.6402C-0.751373 32.6402 -0.30343 30.3396 0.576212 27.4956C41.0398 -8.58056 121.231 -7.44626 162.59 20.929C183.765 35.4521 195.681 54.7045 195.009 81.2264C194.545 99.5521 192.098 117.83 194.098 136.204C197.92 171.353 210.363 202.588 234.593 228.759C244.333 239.288 255.625 248.426 263.669 260.473C278.831 283.224 282.269 308.74 277.711 334.734C262.277 422.832 195.233 487.459 107.077 500.257C100.503 501.199 94.0262 503.276 87.2929 502.478Z" fill="url(#paint0_radial_526_798)"/>
<defs>
<radialGradient id="paint0_radial_526_798" cx="0" cy="0" r="1" gradientUnits="userSpaceOnUse" gradientTransform="translate(207.519 187.499) rotate(107.751) scale(331.272 345.43)">
<stop stop-color="#059997"/>
<stop offset="1" stop-color="#023332"/>
</radialGradient>
</defs>
</svg>
