<svg width="606" height="550" viewBox="0 0 606 550" fill="none" xmlns="http://www.w3.org/2000/svg">
<mask id="mask0_526_813" style="mask-type:alpha" maskUnits="userSpaceOnUse" x="0" y="0" width="606" height="550">
<path d="M496.023 475.03C480.653 475.733 470.433 486.837 458.166 493.803C419.363 516.102 377.203 531.981 333.321 540.824C285.564 550.41 237.695 552.343 189.923 543.012C92.2345 523.936 25.0621 457.743 6.26972 361.577C2.2107 340.417 0.643083 318.856 1.59935 297.333C1.97997 294.679 1.41381 291.975 0 289.696C2.54184 262.702 9.56858 236.319 20.7915 211.632C36.1933 177.265 58.3922 147.516 84.3017 120.563C98.5046 106.215 113.88 93.0733 130.267 81.2754C133.674 78.751 135.065 76.0827 134.602 72.1683C138.968 73.4625 142.39 75.5075 147.7 71.9606C187.454 45.1857 231.597 25.5782 278.127 14.0279C313.772 5.32423 350.406 1.33836 387.091 2.17286C394.576 2.31665 402.381 5.8476 409.274 0C411.639 1.73053 414.431 2.78548 417.35 3.05167C443.24 6.72722 468.22 15.1788 491.016 27.9757C527.642 48.027 554.335 77.7922 573.735 114.252C591.967 148.555 600.924 185.302 604.122 224.014C607.047 258.244 603.918 292.722 594.878 325.868C584.722 362.903 567.881 396.79 542.467 426.14C527.449 443.491 511.552 459.788 492.808 473.113C493.452 473.175 494.075 473.38 494.631 473.711C495.186 474.043 495.662 474.493 496.023 475.03Z" fill="#FF1111"/>
</mask>
<g mask="url(#mask0_526_813)">
<rect x="-5.75195" y="-0.44873" width="611" height="547" fill="#FF0000"/>
</g>
</svg>
