<svg width="785" height="520" viewBox="0 0 785 520" fill="none" xmlns="http://www.w3.org/2000/svg">
<g opacity="0.1" filter="url(#filter0_f_231_164)">
<path d="M506.273 271.363C505.325 314.547 504.178 348.153 486.31 365.037C469.426 382.905 435.82 384.046 392.636 385C349.453 384.046 315.847 382.905 298.962 365.037C281.095 348.153 279.954 314.547 279 271.363C279.954 228.18 281.095 194.574 298.962 177.689C315.847 159.822 349.453 158.675 392.636 157.727C435.82 158.675 469.426 159.822 486.31 177.689C504.178 194.545 505.325 228.151 506.273 271.363Z" fill="#242424"/>
</g>
<path d="M484.937 340.857L484.896 340.896L484.857 340.937C476.861 349.398 464.76 354.05 449.008 356.661C433.276 359.27 414.245 359.795 392.636 360.272C371.027 359.795 351.996 359.27 336.265 356.661C320.512 354.05 308.412 349.398 300.416 340.937L300.377 340.896L300.336 340.857C291.874 332.861 287.223 320.76 284.611 305.008C282.003 289.276 281.478 270.245 281 248.636C281.478 227.027 282.003 207.996 284.611 192.265C287.223 176.512 291.874 164.412 300.336 156.416L300.377 156.377L300.416 156.336C308.412 147.874 320.513 143.222 336.265 140.609C351.996 138 371.028 137.475 392.636 137C414.245 137.475 433.276 138 449.008 140.609C464.76 143.222 476.861 147.874 484.857 156.336L484.896 156.378L484.938 156.417C493.398 164.398 498.051 176.491 500.664 192.243C503.273 207.974 503.798 227.013 504.272 248.636C503.798 270.245 503.273 289.276 500.664 305.008C498.051 320.76 493.398 332.861 484.937 340.857Z" fill="url(#paint0_linear_231_164)" stroke="url(#paint1_linear_231_164)" stroke-width="4"/>
<path d="M336 288.358C336.888 285.693 338.782 284.763 341.534 284.775C356.73 284.838 371.93 284.802 387.129 284.814C387.833 284.814 388.286 284.761 388.638 283.946C391.145 278.119 397.46 274.871 403.527 276.195C406.537 276.837 409.234 278.497 411.165 280.895C413.095 283.293 414.141 286.283 414.128 289.362C414.089 295.659 409.582 301.057 403.299 302.339C403.057 302.403 402.819 302.48 402.586 302.57H399.257C399.011 302.499 398.768 302.41 398.52 302.363C393.959 301.475 390.663 298.91 388.709 294.709C388.331 293.895 387.94 293.667 387.088 293.67C371.903 293.693 356.716 293.655 341.531 293.717C338.782 293.729 336.888 292.799 336 290.134V288.358ZM400.769 293.687C401.647 293.696 402.507 293.443 403.242 292.962C403.976 292.481 404.552 291.792 404.895 290.984C405.239 290.176 405.335 289.284 405.172 288.421C405.009 287.558 404.593 286.762 403.978 286.135C403.363 285.508 402.576 285.078 401.717 284.899C400.857 284.719 399.964 284.799 399.15 285.127C398.336 285.456 397.637 286.019 397.142 286.744C396.648 287.47 396.379 288.326 396.371 289.205C396.366 290.381 396.825 291.512 397.648 292.351C398.472 293.191 399.593 293.671 400.769 293.687Z" fill="#CFB53B"/>
<path d="M449.64 290.134C448.752 292.799 446.855 293.77 444.1 293.717C438.557 293.613 433.008 293.702 427.459 293.679C426.451 293.692 425.468 293.356 424.678 292.728C423.888 292.1 423.339 291.218 423.124 290.232C422.891 289.289 422.984 288.296 423.389 287.413C423.793 286.53 424.484 285.81 425.349 285.37C426.117 285.018 426.952 284.833 427.797 284.829C433.23 284.781 438.67 284.879 444.103 284.775C446.858 284.722 448.752 285.693 449.64 288.358V290.134Z" fill="#CFB53B"/>
<path d="M418.59 215.521C417.712 215.516 416.853 215.772 416.12 216.256C415.388 216.741 414.815 217.431 414.475 218.241C414.134 219.051 414.042 219.943 414.208 220.805C414.375 221.668 414.794 222.462 415.411 223.086C416.029 223.71 416.817 224.138 417.677 224.314C418.538 224.489 419.431 224.406 420.243 224.074C421.056 223.743 421.753 223.177 422.244 222.449C422.736 221.722 423.001 220.864 423.006 219.986C423.009 219.403 422.897 218.825 422.677 218.285C422.457 217.745 422.132 217.253 421.722 216.839C421.312 216.424 420.825 216.094 420.287 215.868C419.75 215.642 419.173 215.524 418.59 215.521Z" fill="#CFB53B"/>
<path d="M433.177 192H392.82C379.319 192 365.819 192 352.321 192C342.851 192 336.012 198.878 336.009 208.362C336.009 221.999 336.009 235.636 336.009 249.272C336.009 258.838 342.845 265.687 352.401 265.69H433.257C442.804 265.687 449.64 258.832 449.64 249.275C449.64 235.68 449.64 222.087 449.64 208.495C449.64 198.816 442.833 192.003 433.177 192ZM431.854 220.975C431.622 223.931 430.412 226.725 428.414 228.915C426.416 231.105 423.745 232.565 420.824 233.066C417.903 233.566 414.899 233.077 412.287 231.676C409.675 230.276 407.604 228.044 406.403 225.333C406.081 224.596 405.708 224.409 404.95 224.383C400.082 224.202 395.415 224.922 391.225 227.548C384.335 231.874 380.686 238.136 380.39 246.314C380.275 249.642 377.57 251.794 374.59 250.847C373.703 250.561 372.928 250.002 372.375 249.251C371.823 248.499 371.521 247.593 371.512 246.66C371.216 238.941 365.848 233.556 358.195 233.286C355.606 233.194 353.694 231.213 353.756 228.717C353.769 228.131 353.898 227.554 354.136 227.018C354.374 226.483 354.717 226 355.143 225.598C355.57 225.197 356.073 224.884 356.622 224.679C357.17 224.474 357.755 224.38 358.34 224.404C364.602 224.495 369.905 226.84 374.279 231.311C374.483 231.521 374.685 231.738 374.892 231.948C374.964 231.991 375.04 232.026 375.12 232.054C376.955 228.6 379.427 225.524 382.406 222.988C388.41 217.91 395.359 215.382 403.219 215.551C405.069 215.592 406.122 215.231 407.09 213.395C410.005 207.852 416.456 205.401 422.464 207.228C425.351 208.12 427.851 209.965 429.557 212.462C431.262 214.958 432.072 217.959 431.854 220.975Z" fill="#CFB53B"/>
<defs>
<filter id="filter0_f_231_164" x="239" y="117.727" width="307.273" height="307.273" filterUnits="userSpaceOnUse" color-interpolation-filters="sRGB">
<feFlood flood-opacity="0" result="BackgroundImageFix"/>
<feBlend mode="normal" in="SourceGraphic" in2="BackgroundImageFix" result="shape"/>
<feGaussianBlur stdDeviation="20" result="effect1_foregroundBlur_231_164"/>
</filter>
<linearGradient id="paint0_linear_231_164" x1="279" y1="135" x2="506.273" y2="362.273" gradientUnits="userSpaceOnUse">
<stop stop-color="white"/>
<stop offset="1" stop-color="#E7E7E7"/>
</linearGradient>
<linearGradient id="paint1_linear_231_164" x1="279" y1="135" x2="506.273" y2="362.273" gradientUnits="userSpaceOnUse">
<stop stop-color="#E7E7E7"/>
<stop offset="1" stop-color="white"/>
</linearGradient>
</defs>
</svg>
