<svg width="785" height="520" viewBox="0 0 785 520" fill="none" xmlns="http://www.w3.org/2000/svg">
<g opacity="0.1" filter="url(#filter0_f_233_393)">
<path d="M506.273 271.363C505.325 314.547 504.178 348.153 486.31 365.037C469.426 382.905 435.82 384.046 392.636 385C349.453 384.046 315.847 382.905 298.962 365.037C281.095 348.153 279.954 314.547 279 271.363C279.954 228.18 281.095 194.574 298.962 177.689C315.847 159.822 349.453 158.675 392.636 157.727C435.82 158.675 469.426 159.822 486.31 177.689C504.178 194.545 505.325 228.151 506.273 271.363Z" fill="#242424"/>
</g>
<path d="M484.937 340.857L484.896 340.896L484.857 340.937C476.861 349.398 464.76 354.05 449.008 356.661C433.276 359.27 414.245 359.795 392.636 360.272C371.027 359.795 351.996 359.27 336.265 356.661C320.512 354.05 308.412 349.398 300.416 340.937L300.377 340.896L300.336 340.857C291.874 332.861 287.223 320.76 284.611 305.008C282.003 289.276 281.478 270.245 281 248.636C281.478 227.027 282.003 207.996 284.611 192.265C287.223 176.512 291.874 164.412 300.336 156.416L300.377 156.377L300.416 156.336C308.412 147.874 320.513 143.222 336.265 140.609C351.996 138 371.028 137.475 392.636 137C414.245 137.475 433.276 138 449.008 140.609C464.76 143.222 476.861 147.874 484.857 156.336L484.896 156.378L484.938 156.417C493.398 164.398 498.051 176.491 500.664 192.243C503.273 207.974 503.798 227.013 504.272 248.636C503.798 270.245 503.273 289.276 500.664 305.008C498.051 320.76 493.398 332.861 484.937 340.857Z" fill="url(#paint0_linear_233_393)" stroke="url(#paint1_linear_233_393)" stroke-width="4"/>
<path d="M388.651 281.54H387.153C386.668 281.54 386.203 281.732 385.861 282.075C385.518 282.417 385.326 282.882 385.326 283.367C385.326 283.851 385.518 284.316 385.861 284.659C386.203 285.001 386.668 285.194 387.153 285.194H388.651C389.135 285.194 389.6 285.001 389.943 284.659C390.285 284.316 390.478 283.851 390.478 283.367C390.478 282.882 390.285 282.417 389.943 282.075C389.6 281.732 389.135 281.54 388.651 281.54ZM397.677 281.54H396.178C395.694 281.54 395.229 281.732 394.886 282.075C394.544 282.417 394.351 282.882 394.351 283.367C394.351 283.851 394.544 284.316 394.886 284.659C395.229 285.001 395.694 285.194 396.178 285.194H397.677C398.161 285.194 398.626 285.001 398.968 284.659C399.311 284.316 399.504 283.851 399.504 283.367C399.504 282.882 399.311 282.417 398.968 282.075C398.626 281.732 398.161 281.54 397.677 281.54ZM357.701 246.588C358.185 246.588 358.65 246.395 358.992 246.053C359.335 245.71 359.528 245.245 359.528 244.761V243.244C359.528 242.76 359.335 242.295 358.992 241.953C358.65 241.61 358.185 241.417 357.701 241.417C357.216 241.417 356.751 241.61 356.409 241.953C356.066 242.295 355.873 242.76 355.873 243.244V244.761C355.873 245.245 356.066 245.71 356.409 246.053C356.751 246.395 357.216 246.588 357.701 246.588ZM355.873 253.896C355.873 254.381 356.066 254.845 356.409 255.188C356.751 255.531 357.216 255.723 357.701 255.723C358.185 255.723 358.65 255.531 358.992 255.188C359.335 254.845 359.528 254.381 359.528 253.896V252.38C359.528 251.895 359.335 251.43 358.992 251.088C358.65 250.745 358.185 250.553 357.701 250.553C357.216 250.553 356.751 250.745 356.409 251.088C356.066 251.43 355.873 251.895 355.873 252.38V253.896ZM428.956 243.226C428.956 242.742 428.763 242.277 428.421 241.934C428.078 241.592 427.613 241.399 427.129 241.399C426.644 241.399 426.179 241.592 425.837 241.934C425.494 242.277 425.302 242.742 425.302 243.226V244.761C425.302 245.245 425.494 245.71 425.837 246.053C426.179 246.395 426.644 246.588 427.129 246.588C427.613 246.588 428.078 246.395 428.421 246.053C428.763 245.71 428.956 245.245 428.956 244.761V243.226ZM427.129 250.516C426.644 250.516 426.179 250.709 425.837 251.051C425.494 251.394 425.302 251.859 425.302 252.343V253.896C425.302 254.381 425.494 254.845 425.837 255.188C426.179 255.531 426.644 255.723 427.129 255.723C427.613 255.723 428.078 255.531 428.421 255.188C428.763 254.845 428.956 254.381 428.956 253.896V252.38C428.961 252.137 428.917 251.895 428.827 251.669C428.738 251.443 428.604 251.238 428.434 251.064C428.264 250.891 428.061 250.753 427.836 250.659C427.612 250.565 427.372 250.516 427.129 250.516ZM387.153 215.528H388.651C389.135 215.528 389.6 215.335 389.943 214.993C390.285 214.65 390.478 214.185 390.478 213.701C390.478 213.216 390.285 212.752 389.943 212.409C389.6 212.066 389.135 211.874 388.651 211.874H387.153C386.668 211.874 386.203 212.066 385.861 212.409C385.518 212.752 385.326 213.216 385.326 213.701C385.326 214.185 385.518 214.65 385.861 214.993C386.203 215.335 386.668 215.528 387.153 215.528ZM397.677 211.874H396.178C395.694 211.874 395.229 212.066 394.886 212.409C394.544 212.752 394.351 213.216 394.351 213.701C394.351 214.185 394.544 214.65 394.886 214.993C395.229 215.335 395.694 215.528 396.178 215.528H397.677C398.161 215.528 398.626 215.335 398.968 214.993C399.311 214.65 399.504 214.185 399.504 213.701C399.504 213.216 399.311 212.752 398.968 212.409C398.626 212.066 398.161 211.874 397.677 211.874Z" fill="#CFB53B"/>
<path d="M357.701 215.638C358.77 215.638 359.637 214.771 359.637 213.701C359.637 212.631 358.77 211.764 357.701 211.764C356.631 211.764 355.764 212.631 355.764 213.701C355.764 214.771 356.631 215.638 357.701 215.638Z" fill="#CFB53B"/>
<path d="M350.392 221.009H365.009V206.393H350.392V221.009ZM357.701 208.11C358.806 208.11 359.887 208.438 360.807 209.052C361.726 209.667 362.443 210.54 362.866 211.561C363.289 212.583 363.4 213.707 363.184 214.792C362.968 215.876 362.436 216.872 361.654 217.654C360.872 218.436 359.876 218.969 358.791 219.184C357.707 219.4 356.583 219.289 355.561 218.866C354.539 218.443 353.666 217.726 353.052 216.807C352.438 215.888 352.11 214.807 352.11 213.701C352.115 212.22 352.705 210.8 353.753 209.753C354.8 208.706 356.219 208.115 357.701 208.11Z" fill="#CFB53B"/>
<path d="M374.418 227.842C377.394 224.38 379.214 220.075 379.625 215.528C380.11 215.528 380.575 215.335 380.917 214.993C381.26 214.65 381.452 214.185 381.452 213.701C381.452 213.216 381.26 212.752 380.917 212.409C380.575 212.066 380.11 211.874 379.625 211.874H379.534C379.189 207.706 377.658 203.724 375.124 200.398C372.59 197.071 369.157 194.539 365.23 193.099C361.303 191.66 357.047 191.374 352.963 192.274C348.879 193.175 345.138 195.224 342.181 198.181C339.224 201.139 337.174 204.88 336.274 208.964C335.373 213.048 335.66 217.304 337.099 221.23C338.538 225.157 341.071 228.59 344.397 231.124C347.724 233.659 351.706 235.189 355.873 235.534V235.626C355.873 236.11 356.066 236.575 356.409 236.918C356.751 237.26 357.216 237.453 357.701 237.453C358.185 237.453 358.65 237.26 358.992 236.918C359.335 236.575 359.528 236.11 359.528 235.626C364.064 235.24 368.368 233.452 371.842 230.51L378.036 236.704C375.693 239.512 374.237 242.952 373.852 246.588H382.092C382.176 241.432 383.07 236.32 384.741 231.442C383.252 232.116 381.858 232.982 380.594 234.018L374.418 227.842ZM368.663 222.836C368.663 223.321 368.47 223.785 368.128 224.128C367.785 224.471 367.32 224.663 366.836 224.663H348.565C348.081 224.663 347.616 224.471 347.273 224.128C346.931 223.785 346.738 223.321 346.738 222.836V204.566C346.738 204.081 346.931 203.616 347.273 203.274C347.616 202.931 348.081 202.739 348.565 202.739H366.836C367.32 202.739 367.785 202.931 368.128 203.274C368.47 203.616 368.663 204.081 368.663 204.566V222.836Z" fill="#CFB53B"/>
<path d="M424.589 290.675C425.861 290.675 426.891 289.644 426.891 288.373C426.891 287.101 425.861 286.071 424.589 286.071C423.318 286.071 422.287 287.101 422.287 288.373C422.287 289.644 423.318 290.675 424.589 290.675Z" fill="#CFB53B"/>
<path d="M428.956 261.533V261.442C428.956 260.957 428.763 260.493 428.421 260.15C428.078 259.807 427.613 259.615 427.129 259.615C426.644 259.615 426.179 259.807 425.837 260.15C425.494 260.493 425.302 260.957 425.302 261.442C420.822 261.822 416.568 263.569 413.115 266.448L406.794 260.126C409.136 257.318 410.592 253.878 410.978 250.242H402.738C402.653 255.398 401.759 260.51 400.088 265.388C401.577 264.714 402.971 263.848 404.236 262.812L410.521 269.097C407.481 272.58 405.62 276.935 405.204 281.54C404.719 281.54 404.255 281.732 403.912 282.075C403.569 282.417 403.377 282.882 403.377 283.367C403.377 283.851 403.569 284.316 403.912 284.659C404.255 285.001 404.719 285.194 405.204 285.194H405.295C405.641 289.361 407.171 293.343 409.705 296.67C412.24 299.997 415.673 302.529 419.599 303.968C423.526 305.408 427.782 305.694 431.866 304.794C435.95 303.893 439.691 301.843 442.648 298.886C445.605 295.929 447.655 292.188 448.556 288.104C449.456 284.02 449.17 279.764 447.73 275.837C446.291 271.911 443.759 268.478 440.432 265.943C437.106 263.409 433.124 261.879 428.956 261.533ZM433.962 279.713C432.801 279.829 431.63 279.666 430.545 279.237V288.373C430.548 289.652 430.139 290.898 429.378 291.927C428.617 292.956 427.545 293.712 426.321 294.084C425.097 294.456 423.785 294.424 422.581 293.992C421.377 293.561 420.343 292.753 419.633 291.689C418.924 290.624 418.576 289.36 418.641 288.082C418.706 286.804 419.181 285.581 419.995 284.594C420.809 283.608 421.919 282.909 423.161 282.602C424.403 282.296 425.711 282.397 426.891 282.892V274.231C426.862 273.747 427.027 273.271 427.349 272.907C427.671 272.544 428.124 272.324 428.609 272.295C429.093 272.266 429.569 272.43 429.933 272.752C430.296 273.074 430.516 273.528 430.545 274.012C430.637 274.688 431.167 276.259 433.67 276.058C433.91 276.038 434.151 276.065 434.381 276.138C434.61 276.211 434.823 276.328 435.007 276.484C435.191 276.639 435.343 276.829 435.453 277.043C435.564 277.257 435.632 277.49 435.652 277.73C435.672 277.97 435.645 278.212 435.572 278.441C435.499 278.671 435.382 278.883 435.227 279.068C435.071 279.252 434.881 279.403 434.668 279.514C434.454 279.625 434.22 279.692 433.98 279.713H433.962ZM389.382 266.795C389.784 266.795 390.186 266.923 390.588 266.978V250.242H385.746C385.689 255.964 386.933 261.624 389.382 266.795ZM400.088 231.442C401.759 236.32 402.653 241.432 402.738 246.588H410.978C410.611 242.951 409.174 239.505 406.848 236.685L413.06 230.473C416.51 233.415 420.787 235.215 425.302 235.626C425.302 236.11 425.494 236.575 425.837 236.918C426.179 237.26 426.644 237.453 427.129 237.453C427.613 237.453 428.078 237.26 428.421 236.918C428.763 236.575 428.956 236.11 428.956 235.626V235.534C433.124 235.189 437.106 233.659 440.432 231.124C443.759 228.59 446.291 225.157 447.73 221.23C449.17 217.304 449.456 213.048 448.556 208.964C447.655 204.88 445.605 201.139 442.648 198.181C439.691 195.224 435.95 193.175 431.866 192.274C427.782 191.374 423.526 191.66 419.599 193.099C415.673 194.539 412.24 197.071 409.705 200.398C407.171 203.724 405.641 207.706 405.295 211.874H405.204C404.719 211.874 404.255 212.066 403.912 212.409C403.569 212.752 403.377 213.216 403.377 213.701C403.377 214.185 403.569 214.65 403.912 214.993C404.255 215.335 404.719 215.528 405.204 215.528C405.59 220.096 407.398 224.428 410.375 227.915L404.291 234.073C403.013 233.013 401.599 232.129 400.088 231.442ZM422.25 210.65C422.255 208.55 423.093 206.538 424.579 205.055C426.066 203.571 428.08 202.739 430.18 202.739C430.664 202.739 431.129 202.931 431.472 203.274C431.814 203.616 432.007 204.081 432.007 204.566C432.007 205.05 431.814 205.515 431.472 205.858C431.129 206.2 430.664 206.393 430.18 206.393C429.052 206.398 427.972 206.848 427.175 207.645C426.378 208.442 425.928 209.522 425.923 210.65V211.874H430.18C430.664 211.874 431.129 212.066 431.472 212.409C431.814 212.752 432.007 213.216 432.007 213.701C432.007 214.185 431.814 214.65 431.472 214.993C431.129 215.335 430.664 215.528 430.18 215.528H425.905V222.836C425.905 223.321 425.712 223.785 425.369 224.128C425.027 224.471 424.562 224.663 424.078 224.663C423.593 224.663 423.128 224.471 422.786 224.128C422.443 223.785 422.25 223.321 422.25 222.836V210.65ZM399.083 250.242H394.242V266.978C394.644 266.978 395.046 266.868 395.448 266.795C397.897 261.624 399.14 255.964 399.083 250.242ZM385.746 246.588H390.588V229.852C390.186 229.852 389.784 229.962 389.382 230.035C386.933 235.206 385.689 240.866 385.746 246.588ZM380.667 262.867C381.911 263.878 383.281 264.726 384.741 265.388C383.07 260.51 382.176 255.398 382.092 250.242H373.852C374.225 253.936 375.702 257.431 378.091 260.273L371.769 266.594C368.308 263.686 364.032 261.918 359.528 261.533C359.528 261.049 359.335 260.584 358.992 260.241C358.65 259.899 358.185 259.706 357.701 259.706C357.216 259.706 356.751 259.899 356.409 260.241C356.066 260.584 355.873 261.049 355.873 261.533V261.625C351.701 261.969 347.715 263.5 344.386 266.038C341.056 268.576 338.523 272.014 337.085 275.946C335.648 279.877 335.366 284.138 336.273 288.225C337.18 292.312 339.238 296.054 342.204 299.008C345.169 301.963 348.919 304.006 353.009 304.897C357.1 305.788 361.36 305.49 365.286 304.037C369.212 302.584 372.64 300.038 375.165 296.698C377.69 293.359 379.206 289.367 379.534 285.194H379.625C380.11 285.194 380.575 285.001 380.917 284.659C381.26 284.316 381.452 283.851 381.452 283.367C381.452 282.882 381.26 282.417 380.917 282.075C380.575 281.732 380.11 281.54 379.625 281.54C379.235 276.978 377.427 272.652 374.455 269.17L380.667 262.867ZM355.709 290.675H362.816C363.301 290.675 363.766 290.867 364.108 291.21C364.451 291.553 364.643 292.017 364.643 292.502C364.643 292.986 364.451 293.451 364.108 293.794C363.766 294.136 363.301 294.329 362.816 294.329H355.709C354.357 294.329 353.061 293.792 352.105 292.836C351.149 291.88 350.612 290.583 350.612 289.231V274.231C350.612 273.747 350.804 273.282 351.147 272.939C351.489 272.597 351.954 272.404 352.439 272.404C352.923 272.404 353.388 272.597 353.731 272.939C354.073 273.282 354.266 273.747 354.266 274.231V280.827H362.944C363.429 280.827 363.893 281.02 364.236 281.362C364.579 281.705 364.771 282.17 364.771 282.654C364.771 283.139 364.579 283.603 364.236 283.946C363.893 284.289 363.429 284.481 362.944 284.481H354.266V289.231C354.266 289.421 354.303 289.609 354.376 289.784C354.448 289.959 354.554 290.118 354.688 290.252C354.822 290.386 354.982 290.492 355.157 290.565C355.332 290.638 355.519 290.675 355.709 290.675ZM395.448 230.035C395.046 230.035 394.644 229.907 394.242 229.852V246.588H399.083C399.14 240.866 397.897 235.206 395.448 230.035Z" fill="#CFB53B"/>
<defs>
<filter id="filter0_f_233_393" x="239" y="117.727" width="307.273" height="307.273" filterUnits="userSpaceOnUse" color-interpolation-filters="sRGB">
<feFlood flood-opacity="0" result="BackgroundImageFix"/>
<feBlend mode="normal" in="SourceGraphic" in2="BackgroundImageFix" result="shape"/>
<feGaussianBlur stdDeviation="20" result="effect1_foregroundBlur_233_393"/>
</filter>
<linearGradient id="paint0_linear_233_393" x1="279" y1="135" x2="506.273" y2="362.273" gradientUnits="userSpaceOnUse">
<stop stop-color="white"/>
<stop offset="1" stop-color="#E7E7E7"/>
</linearGradient>
<linearGradient id="paint1_linear_233_393" x1="279" y1="135" x2="506.273" y2="362.273" gradientUnits="userSpaceOnUse">
<stop stop-color="#E7E7E7"/>
<stop offset="1" stop-color="white"/>
</linearGradient>
</defs>
</svg>
