<svg width="88" height="86" viewBox="0 0 88 86" fill="none" xmlns="http://www.w3.org/2000/svg">
<g clip-path="url(#clip0_1092_1200)">
<path d="M0.958809 42.2259C1.01529 41.8697 1.10886 41.5148 1.12319 41.1565C1.32426 36.0869 2.35907 31.1906 4.35914 26.5293C9.12952 15.4103 17.134 7.55777 28.3727 2.97174C31.1677 1.82839 34.0761 1.05466 37.06 0.568974C38.6099 0.316671 40.1648 0.110203 41.7358 0.0673117C43.1239 0.0290457 44.514 -0.0285631 45.9004 0.0164309C47.4954 0.0677326 49.0845 0.235934 50.666 0.476884C54.1466 1.00135 57.5478 1.95828 60.7902 3.32538C67.4321 6.12987 73.0293 10.3245 77.5816 15.9094C81.7014 20.9625 84.522 26.6596 86.0434 33.0008C86.4531 34.7018 86.73 36.4254 86.9421 38.163C87.2249 40.4791 87.2532 42.8058 87.1461 45.124C86.8932 50.62 85.6032 55.8708 83.2762 60.8765C80.5204 66.8174 76.6143 71.8763 71.5582 76.053C66.3497 80.3514 60.4497 83.2691 53.8581 84.8062C52.3181 85.1678 50.7582 85.4391 49.1865 85.6186C47.962 85.7561 46.7278 85.8087 45.4986 85.9046C45.2774 85.9218 45.0582 85.9672 44.8381 86H43.405C43.2415 85.9693 43.0792 85.9231 42.9144 85.9105C42.076 85.847 41.2372 85.7915 40.3988 85.7338C38.9442 85.6342 37.5068 85.4155 36.0749 85.1472C32.8369 84.541 29.6819 83.556 26.6752 82.2125C20.9708 79.6668 16.0455 76.0593 11.8996 71.39C7.80584 66.7776 4.83924 61.5293 2.99976 55.645C1.90153 52.1303 1.27061 48.4868 1.12319 44.8082C1.10718 44.4218 1.0136 44.0391 0.95459 43.6543L0.958809 42.2259ZM85.3525 42.9546C85.2986 19.9664 66.5531 1.95874 44.3753 1.84689C21.6862 1.73251 3.00271 20.1431 2.94286 42.828C2.88216 65.6388 21.5867 84.0409 44.1435 84.0459C66.4334 84.0514 85.2919 65.9911 85.3525 42.9546Z" fill="url(#paint0_linear_1092_1200)"/>
<path d="M85.3527 42.9546C85.292 65.9911 66.4336 84.0514 44.1437 84.0459C21.5869 84.0408 2.88232 65.6387 2.94302 42.828C3.00287 20.143 21.6864 1.73247 44.3755 1.84684C66.5512 1.9587 85.2988 19.9664 85.3527 42.9546ZM49.3556 25.7189C49.383 25.8451 49.3919 25.9132 49.4134 25.9775C53.7937 38.9652 58.1751 51.9524 62.5574 64.939C62.5601 64.9453 62.5641 64.9509 62.5691 64.9556C62.5741 64.9603 62.58 64.964 62.5865 64.9663C62.6061 64.9686 62.6261 64.9678 62.6455 64.9638C62.6851 64.8376 62.7298 64.7064 62.7681 64.574C63.968 60.5828 65.1677 56.5917 66.367 52.6005C67.0368 50.3639 67.7158 48.1289 68.3481 45.8817C68.7541 44.468 68.9898 43.011 69.0504 41.5417C69.111 39.9114 68.9163 38.3038 68.5146 36.7193C67.962 34.5403 66.9731 32.5542 65.8325 30.6325C65.0683 29.3445 64.286 28.0653 63.5791 26.7462C62.914 25.5053 62.4832 24.1811 62.3947 22.7514C62.2906 21.0774 62.7125 19.5556 63.7014 18.21C64.713 16.8278 66.0618 15.9577 67.7829 15.7214C68.1243 15.6743 68.4682 15.6487 68.8215 15.6121C62.2067 9.3045 50.2092 4.03683 36.5135 6.88996C29.7183 8.3058 23.8066 11.4482 18.7543 16.1945C16.6523 18.1708 13.6418 21.8255 13.453 22.6068C13.5238 22.6126 13.5921 22.6219 13.6608 22.6236C16.4546 22.7077 19.2437 22.5815 22.032 22.4423C22.6335 22.4121 23.2329 22.3439 23.834 22.3023C24.4216 22.2603 25.0091 22.2119 25.5972 22.2052C26.4427 22.1951 27.0362 22.7518 27.145 23.613C27.1934 23.9854 27.1009 24.3625 26.8856 24.6705C26.6704 24.9786 26.3477 25.1956 25.9807 25.2791C25.5748 25.3754 25.1521 25.409 24.7343 25.4473C23.925 25.5196 23.114 25.5734 22.3043 25.6382C22.0737 25.6571 21.8453 25.6991 21.57 25.737L34.9054 65.3065C35.0037 65.2076 35.0761 65.0859 35.1161 64.9524C37.6916 57.2468 40.2681 49.5418 42.8458 41.8373C42.9487 41.5492 42.9421 41.2336 42.8273 40.95C41.5703 37.5366 40.3198 34.1212 39.0758 30.7036C38.514 29.1666 37.947 27.6309 37.3944 26.0906C37.2979 25.8219 37.1719 25.6802 36.862 25.6701C36.3166 25.6516 35.7729 25.5898 35.2295 25.5339C34.5332 25.462 33.8318 25.414 33.1443 25.2904C32.3325 25.1445 31.868 24.4275 31.9767 23.6151C32.1104 22.6185 32.8872 22.1476 33.6118 22.1984C34.6883 22.2746 35.7657 22.3372 36.8431 22.4032C37.3185 22.4322 37.7948 22.4554 38.2707 22.481C39.1243 22.5269 39.9783 22.6118 40.8323 22.6114C43.0064 22.6114 45.1806 22.5761 47.3547 22.542C48.14 22.5298 48.9244 22.4894 49.7085 22.4457C50.3099 22.4125 50.9098 22.3486 51.5108 22.3082C52.1402 22.2661 52.7699 22.2161 53.4001 22.2064C54.0534 22.1963 54.566 22.5685 54.7978 23.1627C55.1957 24.1824 54.5778 25.2206 53.4582 25.3493C52.4006 25.47 51.3372 25.5347 50.2762 25.6264C49.9846 25.6504 49.6941 25.6844 49.3573 25.7189H49.3556ZM44.8375 46.4616L44.7498 46.4734C41.0944 57.0701 37.4392 67.6668 33.7842 78.2635C36.2327 79.1197 41.7158 80.2655 48.1493 79.581C50.924 79.2901 53.6546 78.6736 56.2845 77.7442C52.4566 67.2806 48.6409 56.8531 44.8375 46.4616ZM10.3705 28.1339C9.55908 29.5001 8.28948 33.6135 7.68461 37.0999C7.14634 40.2024 7.08226 43.3313 7.38027 46.4683C8.28457 55.9114 12.809 64.6414 20.0096 70.837C22.3022 72.8134 26.8158 75.7569 27.8641 75.9495C22.0334 60.0137 16.2022 44.0752 10.3705 28.1339ZM76.7235 25.6256C76.7501 25.97 76.7657 26.2626 76.7965 26.554C76.9836 28.3853 76.944 30.2175 76.7589 32.0441C76.5503 34.1076 76.1558 36.1403 75.5269 38.1179C75.0522 39.6094 74.5072 41.0787 73.9943 42.558C70.3386 53.1037 66.683 63.649 63.0274 74.1939C62.9797 74.3322 62.9389 74.4735 62.8832 74.651C80.0438 64.8011 85.9745 42.7212 76.7235 25.6256Z" fill="white"/>
<path d="M49.3574 25.719C49.6946 25.6845 49.9846 25.6504 50.2759 25.6252C51.3368 25.5335 52.4003 25.4688 53.4579 25.3481C54.5774 25.2219 55.1953 24.1824 54.7974 23.1615C54.5656 22.5673 54.053 22.1943 53.3997 22.2052C52.7695 22.2149 52.1398 22.2649 51.5105 22.307C50.9094 22.349 50.3096 22.4113 49.7081 22.4445C48.9241 22.4865 48.1396 22.5286 47.3544 22.5408C45.1802 22.5749 43.0061 22.6085 40.8319 22.6102C39.9779 22.6102 39.124 22.5261 38.2704 22.4798C37.7945 22.4542 37.3182 22.431 36.8427 22.402C35.7653 22.336 34.688 22.2733 33.6114 22.1972C32.8868 22.1464 32.11 22.6177 31.9764 23.6139C31.8676 24.4263 32.3321 25.1433 33.144 25.2892C33.8315 25.4128 34.5329 25.4608 35.2292 25.5327C35.7725 25.5886 36.3163 25.6504 36.8617 25.6689C37.1715 25.6794 37.2975 25.8211 37.3941 26.0894C37.9467 27.6297 38.5136 29.1654 39.0755 30.7024C40.3246 34.1186 41.575 37.534 42.8269 40.9488C42.9417 41.2323 42.9483 41.548 42.8455 41.8361C40.2639 49.5395 37.6873 57.2445 35.1158 64.9512C35.0758 65.0847 35.0034 65.2063 34.905 65.3053L21.5697 25.7358C21.8449 25.6979 22.0734 25.6559 22.304 25.637C23.1137 25.5701 23.9247 25.5184 24.734 25.4461C25.1517 25.4086 25.5745 25.375 25.9804 25.2779C26.3474 25.1944 26.67 24.9774 26.8853 24.6693C27.1006 24.3613 27.193 23.9842 27.1446 23.6118C27.0358 22.7506 26.4424 22.1939 25.5968 22.204C25.0088 22.2107 24.4212 22.2607 23.8336 22.3011C23.2326 22.3432 22.6332 22.4109 22.0317 22.4411C19.2434 22.5816 16.4542 22.7069 13.6604 22.6224C13.5917 22.6224 13.5235 22.6114 13.4526 22.6055C13.6415 21.8242 16.6519 18.168 18.754 16.1933C23.8062 11.447 29.7179 8.30459 36.5131 6.88875C50.2089 4.03563 62.2063 9.30119 68.8211 15.6109C68.4679 15.6475 68.1239 15.6731 67.7825 15.7202C66.0598 15.9565 64.7131 16.8265 63.701 18.2087C62.7138 19.5569 62.2919 21.077 62.3943 22.7502C62.4828 24.1761 62.9136 25.5024 63.5788 26.745C64.2856 28.0641 65.068 29.3433 65.8322 30.6313C66.9728 32.553 67.9616 34.5391 68.5142 36.7181C68.9159 38.3013 69.1107 39.9102 69.05 41.5405C68.9905 43.0101 68.7558 44.4675 68.3507 45.8818C67.7184 48.1289 67.039 50.3639 66.3696 52.6006C65.1742 56.5929 63.9746 60.584 62.7707 64.574C62.7286 64.7065 62.6864 64.8381 62.6481 64.9639C62.6287 64.9678 62.6087 64.9687 62.5891 64.9664C62.5826 64.964 62.5767 64.9604 62.5717 64.9557C62.5667 64.951 62.5627 64.9453 62.56 64.939C58.178 51.9522 53.7966 38.965 49.416 25.9776C49.3937 25.9132 49.3848 25.8443 49.3574 25.719Z" fill="url(#paint1_linear_1092_1200)"/>
<path d="M44.8372 46.4615C48.6469 56.8707 52.4631 67.298 56.2859 77.7433C53.6561 78.6727 50.9255 79.2892 48.1507 79.5801C41.7172 80.2647 36.2342 79.1175 33.7856 78.2627C37.4404 67.6659 41.0956 57.0692 44.7513 46.4725L44.8372 46.4615Z" fill="url(#paint2_linear_1092_1200)"/>
<path d="M10.3706 28.1339C16.2077 44.0879 22.0386 60.0264 27.8634 75.9495C26.8151 75.759 22.3015 72.8138 20.0089 70.837C17.638 68.795 15.5363 66.4612 13.7541 63.8916C10.1648 58.727 7.96966 52.727 7.38042 46.47C7.08241 43.3331 7.14649 40.2045 7.68476 37.1016C8.28963 33.6152 9.55923 29.5001 10.3706 28.1339Z" fill="url(#paint3_linear_1092_1200)"/>
<path d="M76.7236 25.6256C85.9745 42.7208 80.0439 64.8007 62.8833 74.6514C62.9389 74.474 62.9798 74.3327 63.0275 74.1944C66.6828 63.6489 70.3384 53.1035 73.9943 42.5581C74.5073 41.0788 75.0523 39.6095 75.527 38.118C76.1558 36.1416 76.5504 34.1076 76.759 32.0442C76.9441 30.2175 76.9837 28.3858 76.7966 26.5541C76.767 26.2631 76.7502 25.9704 76.7236 25.6256Z" fill="url(#paint4_linear_1092_1200)"/>
</g>
<defs>
<linearGradient id="paint0_linear_1092_1200" x1="44.593" y1="0.00807749" x2="20.1267" y2="149.137" gradientUnits="userSpaceOnUse">
<stop stop-color="#FFE466"/>
<stop offset="1" stop-color="#BFA737"/>
</linearGradient>
<linearGradient id="paint1_linear_1092_1200" x1="41.5881" y1="6.0987" x2="23.665" y2="108.399" gradientUnits="userSpaceOnUse">
<stop stop-color="#FFE466"/>
<stop offset="1" stop-color="#BFA737"/>
</linearGradient>
<linearGradient id="paint2_linear_1092_1200" x1="45.1698" y1="46.4647" x2="31.5173" y2="102.484" gradientUnits="userSpaceOnUse">
<stop stop-color="#FFE466"/>
<stop offset="1" stop-color="#BFA737"/>
</linearGradient>
<linearGradient id="paint3_linear_1092_1200" x1="17.6566" y1="28.1384" x2="-10.6615" y2="102.501" gradientUnits="userSpaceOnUse">
<stop stop-color="#FFE466"/>
<stop offset="1" stop-color="#BFA737"/>
</linearGradient>
<linearGradient id="paint4_linear_1092_1200" x1="72.0852" y1="25.6302" x2="39.7292" y2="98.5811" gradientUnits="userSpaceOnUse">
<stop stop-color="#FFE466"/>
<stop offset="1" stop-color="#BFA737"/>
</linearGradient>
<clipPath id="clip0_1092_1200">
<rect width="86.245" height="86" fill="white" transform="translate(0.958984)"/>
</clipPath>
</defs>
</svg>
