<svg width="80" height="108" viewBox="0 0 80 108" fill="none" xmlns="http://www.w3.org/2000/svg">
<g clip-path="url(#clip0_1065_1017)">
<path d="M51.0113 0.331543C53.0194 2.61626 53.8601 5.31045 53.7883 8.29648C53.6881 12.4913 51.8825 16.0414 49.4541 19.328C46.8731 22.8128 43.617 25.6442 40.3282 28.4408C38.1089 30.3356 35.9352 32.3612 34.1079 34.6197C30.7864 38.7383 30.5447 43.2991 33.1997 47.8772C34.5936 50.273 36.2489 52.5316 37.7735 54.8664C38.5983 56.1195 39.3425 57.4238 40.0015 58.7716C35.2797 54.5702 30.4554 50.4952 27.3692 44.8563C25.0278 40.6005 25.2718 36.5799 28.4582 32.7859C31.1153 29.6169 34.3714 27.1427 37.5535 24.5661C40.1431 22.4687 42.7698 20.4018 45.1874 18.1193C50.2904 13.2906 52.7319 7.50151 51.0113 0.331543Z" fill="white"/>
<path d="M73.5206 92.1931C75.6442 93.1187 75.9665 94.6585 74.0542 95.8325C72.1392 96.9981 70.0919 97.9311 67.9558 98.6116C62.023 100.513 55.8723 101.41 49.6803 101.846C44.0393 102.242 38.3765 102.499 32.7224 102.484C23.2502 102.445 13.7987 101.595 4.4716 99.9424C3.33155 99.7336 2.22614 99.367 1.18718 98.8534C-0.254655 98.1433 -0.38098 97.0543 0.73851 95.8826C1.18739 95.4094 1.70062 95.0017 2.26311 94.6716C6.22706 92.389 10.4742 91.0496 15.085 91.0518C15.7907 91.0841 16.4855 91.2381 17.1388 91.507C14.4006 91.7682 11.723 92.4729 9.21092 93.5935C8.67646 93.8241 8.16583 94.1064 7.68632 94.4364C6.59732 95.2096 6.61692 95.9457 7.84313 96.3966C9.60327 97.0617 11.4129 97.5875 13.2555 97.9691C19.5107 99.1822 25.8552 99.4632 32.204 99.5481C40.8855 99.6657 49.5583 99.4436 58.1766 98.3873C62.1253 97.9016 66.0174 97.0326 69.9378 96.2703C70.7541 96.0798 71.5363 95.7654 72.2574 95.3381C73.8103 94.4799 74.0477 93.8135 73.5206 92.1931Z" fill="url(#paint0_linear_1065_1017)"/>
<path d="M64.0137 22.2441C61.4458 23.8733 58.8518 25.4589 56.321 27.1425C53.5397 28.9916 50.8542 30.9735 48.6827 33.5523C45.921 36.8193 45.6836 39.5156 47.9226 43.1725C48.8091 44.623 49.8414 45.9843 50.8215 47.376C53.0431 50.5341 53.0932 53.5746 50.9174 56.7414C49.2686 59.1481 47.0253 60.897 44.3681 62.2409C44.5642 61.9882 44.7493 61.7312 44.9518 61.4851C47.7506 58.0918 47.6678 54.7943 44.9627 51.3596C43.5405 49.5562 42.201 47.6091 41.2449 45.5335C39.448 41.637 39.9207 37.7602 42.5517 34.3799C43.9624 32.5901 45.6061 30.9969 47.4391 29.6428C52.3984 25.9881 58.1004 23.8428 64.0137 22.2441Z" fill="white"/>
<path d="M25.2232 83.2827C24.3259 84.8966 24.5415 85.6589 26.3645 85.9529C29.2569 86.419 32.1841 86.7131 35.107 86.9265C40.1338 87.2924 45.0931 86.6063 50.0197 85.6742C50.7561 85.5028 51.5301 85.6181 52.1846 85.9965C53.7332 86.8546 55.3514 87.5821 57.0851 88.4337C56.4317 88.7038 55.8589 88.9716 55.2643 89.1785C45.8989 92.4455 36.3702 93.1752 26.7021 90.7815C24.991 90.325 23.3597 89.6096 21.8647 88.6602C20.0309 87.532 20.1223 85.9333 21.9475 84.8204C22.9712 84.1975 24.1233 83.7945 25.2232 83.2827Z" fill="url(#paint1_linear_1065_1017)"/>
<path d="M62.7285 63.2689C59.2938 65.8629 55.1883 66.7363 50.9674 67.3396C43.7802 68.363 36.5249 68.8312 29.2658 68.74C23.4985 68.6725 17.7224 68.5092 12.0792 67.1131C11.1342 66.875 10.2263 66.5086 9.38069 66.0241C8.50949 65.5275 8.50949 64.8501 9.25001 64.1728C9.5439 63.9029 9.87373 63.6749 10.2301 63.4954C15.1611 61.0561 20.3469 59.5554 25.8616 59.2701C26.2799 59.2336 26.701 59.294 27.0922 59.4465C26.221 59.6904 25.3498 59.8821 24.5112 60.187C22.2962 60.9755 20.079 61.7617 17.9075 62.6591C17.3739 62.8769 17.0146 63.5303 16.5746 63.9659C17.1235 64.3318 17.6397 64.9394 18.2277 65.02C21.168 65.4208 24.1214 65.8912 27.0791 65.9587C38.984 66.1976 50.8842 65.2903 62.6153 63.2493C62.6741 63.245 62.7569 63.2733 62.7285 63.2689Z" fill="url(#paint2_linear_1065_1017)"/>
<path d="M58.8406 77.2103C55.3405 77.9029 51.8579 78.7131 48.3361 79.2641C42.1157 80.2377 35.8409 80.5709 29.5726 79.9175C26.5997 79.6017 23.6616 78.896 20.7387 78.2274C19.8218 78.0096 18.9353 77.4564 18.1687 76.8792C17.0492 76.0429 16.9751 74.8711 18.1011 74.0478C19.4755 73.046 21.0393 72.3054 22.5203 71.4517L22.7599 71.774C22.6553 71.9265 22.5573 72.0833 22.4462 72.2292C21.3246 73.6907 21.5881 74.7709 23.4307 75.1194C25.9265 75.5633 28.4454 75.8658 30.9753 76.0255C38.6244 76.6026 46.1799 75.7902 53.694 74.3985C54.1796 74.3092 54.783 74.5335 55.2534 74.7666C55.8632 75.0672 56.3816 75.5507 56.9718 75.9013C57.5621 76.252 58.1828 76.5329 58.7926 76.8444C58.8079 76.9642 58.8231 77.0862 58.8406 77.2103Z" fill="url(#paint3_linear_1065_1017)"/>
<path d="M14.9546 104.509C16.2266 104.664 17.4942 104.834 18.7661 104.971C32.9858 106.546 47.3512 106.236 61.4897 104.05C66.4664 103.272 71.4126 102.266 76.0387 100.169C77.376 99.561 78.6022 98.7137 79.9199 97.9536C79.7762 99.1711 79.0356 100.103 78.1122 100.903C76.1237 102.628 73.7192 103.545 71.2493 104.296C65.7738 105.966 60.1285 106.666 54.4482 107.127C46.3482 107.772 38.2128 107.844 30.1026 107.345C25.5767 107.075 21.0617 106.674 16.6796 105.4C16.1939 105.259 15.7213 105.069 15.2465 104.891C15.1264 104.833 15.0113 104.766 14.9023 104.69L14.9546 104.509Z" fill="url(#paint4_linear_1065_1017)"/>
<path d="M62.9336 79.0532C63.3191 78.8136 63.6959 78.5544 64.0945 78.3345C67.5618 76.4026 70.9094 74.3073 73.3793 71.1122C74.7841 69.2936 75.7751 67.3029 75.3765 64.8984C74.8255 61.6053 71.2949 59.0962 67.9822 59.6342C67.1306 59.7714 66.2921 59.987 65.3272 59.9761C65.7628 59.6625 66.1723 59.2421 66.6645 59.057C69.9859 57.809 73.2769 57.7676 76.3827 59.6756C79.9198 61.8536 80.9565 65.8088 79.0617 69.5027C77.8638 71.831 75.9645 73.4971 73.8083 74.8845C70.5805 76.9667 67.0152 78.2735 63.3278 79.2753C63.2225 79.2872 63.116 79.2828 63.012 79.2623L62.9336 79.0532Z" fill="white"/>
</g>
<defs>
<linearGradient id="paint0_linear_1065_1017" x1="37.654" y1="91.2827" x2="37.654" y2="102.485" gradientUnits="userSpaceOnUse">
<stop stop-color="#FFE466"/>
<stop offset="1" stop-color="#BFA737"/>
</linearGradient>
<linearGradient id="paint1_linear_1065_1017" x1="38.8092" y1="83.4627" x2="38.8092" y2="92.1923" gradientUnits="userSpaceOnUse">
<stop stop-color="#FFE466"/>
<stop offset="1" stop-color="#BFA737"/>
</linearGradient>
<linearGradient id="paint2_linear_1065_1017" x1="35.7221" y1="59.4515" x2="35.7221" y2="68.7512" gradientUnits="userSpaceOnUse">
<stop stop-color="#FFE466"/>
<stop offset="1" stop-color="#BFA737"/>
</linearGradient>
<linearGradient id="paint3_linear_1065_1017" x1="38.0663" y1="71.6295" x2="38.0663" y2="80.2559" gradientUnits="userSpaceOnUse">
<stop stop-color="#FFE466"/>
<stop offset="1" stop-color="#BFA737"/>
</linearGradient>
<linearGradient id="paint4_linear_1065_1017" x1="47.4111" y1="98.1499" x2="47.4111" y2="107.672" gradientUnits="userSpaceOnUse">
<stop stop-color="#FFE466"/>
<stop offset="1" stop-color="#BFA737"/>
</linearGradient>
<clipPath id="clip0_1065_1017">
<rect width="80" height="107.332" fill="white" transform="translate(0 0.331543)"/>
</clipPath>
</defs>
</svg>
