<svg width="143" height="73" viewBox="0 0 143 73" fill="none" xmlns="http://www.w3.org/2000/svg">
<g clip-path="url(#clip0_1065_962)">
<ellipse cx="71.5" cy="36.5" rx="69.5" ry="32.5" fill="white"/>
<path d="M73.6884 72.7866C58.6813 72.9574 43.9667 71.1257 29.7923 65.9955C21.2592 62.9069 13.2185 58.867 6.92405 52.1048C-2.68922 41.7791 -2.25192 29.7752 7.97529 19.9752C15.5266 12.7352 24.7721 8.58955 34.5982 5.59653C49.6154 1.01941 65.0062 -0.272204 80.6272 0.7023C91.7434 1.39589 102.619 3.34345 113.106 7.15748C121.636 10.2605 129.704 14.2527 135.999 21.009C145.721 31.4505 145.266 43.4443 134.942 53.2849C127.318 60.551 117.99 64.6676 108.1 67.6896C96.8925 71.117 85.3781 72.5766 73.6884 72.7866ZM29.8922 58.8728C30.4613 55.6104 31.1114 52.4277 31.5371 49.2146C31.7587 47.5451 32.4407 47.0426 34.0827 47.1295C36.7803 47.2743 39.4924 47.102 42.1915 47.1773C52.0973 47.4553 57.5055 40.4904 58.5539 32.5076C59.1331 28.0854 58.425 23.8051 54.2099 21.4145C51.8931 20.1113 49.0536 19.3149 46.3907 19.1382C41.1432 18.7907 35.8551 19.0745 30.5858 19.0007C29.2942 18.9833 28.8062 19.3438 28.5586 20.6557C26.7023 30.5919 24.7431 40.5092 22.8419 50.4382C22.3134 53.1894 21.8688 55.9608 21.3591 58.8728H29.8922ZM98.6953 47.1671C102.084 47.1671 105.404 47.0701 108.717 47.1845C119.827 47.5697 125.325 38.8426 125.369 30.4572C125.399 24.4046 122.08 19.9534 116.032 19.4771C109.306 18.9471 102.506 19.3569 95.5748 19.3569C93.0872 32.3469 90.5677 45.5005 87.9874 58.977C90.4591 58.977 92.6557 58.9032 94.8465 59.0016C96.2713 59.0668 96.7593 58.489 96.9591 57.1352C97.4399 53.8612 98.0828 50.6076 98.6953 47.17V47.1671ZM69.7817 25.0026C72.598 25.0026 75.2348 24.923 77.863 25.0243C80.6373 25.13 81.6958 26.4912 81.3382 29.2568C81.2498 29.9432 81.0688 30.6165 80.9356 31.2956C79.9119 36.5084 78.891 41.7212 77.8499 47.0267H86.4988C87.7629 40.7163 89.1052 34.5565 90.2013 28.3475C91.0195 23.6965 89.1458 20.8324 84.5223 19.7116C82.2055 19.1498 79.7265 19.1672 77.3156 19.0484C75.2884 18.9471 73.2467 19.0282 71.0776 19.0282C71.7495 15.3227 72.3577 11.9692 73.0064 8.38683C70.6027 8.38683 68.5248 8.49398 66.4628 8.35208C64.8411 8.24058 64.3444 8.95299 64.0736 10.4097C62.9978 16.2017 61.8104 21.9633 60.6723 27.7379C59.414 34.1091 58.1658 40.489 56.8539 47.17C59.1519 47.17 61.2877 47.0904 63.4134 47.1975C64.9381 47.2728 65.5593 46.8109 65.8474 45.2051C67.0449 38.5284 68.4234 31.8864 69.7817 25.0026Z" fill="url(#paint0_linear_1065_962)"/>
<path d="M33.1689 41.164C34.2376 35.6848 35.2555 30.4705 36.3545 24.874C39.3736 25.0188 42.4825 24.9377 45.5189 25.3649C48.3802 25.766 49.7094 27.3921 49.6486 30.2229C49.5169 36.4262 47.2638 41.5086 39.4952 41.177C37.4927 41.0916 35.4915 41.164 33.1689 41.164Z" fill="#CFB53B"/>
<path d="M99.9131 41.0757C100.888 36.0483 101.822 31.1019 102.84 26.1729C102.932 25.7241 103.563 25.0435 103.931 25.0464C106.759 25.071 109.619 25.016 112.404 25.4272C115.253 25.8471 116.48 27.4979 116.342 30.3779C116.253 32.2391 115.915 34.08 115.337 35.8514C114.283 39.0572 111.887 40.8499 108.532 41.0424C105.707 41.1959 102.87 41.0757 99.9131 41.0757Z" fill="#CFB53B"/>
</g>
<defs>
<linearGradient id="paint0_linear_1065_962" x1="71.4986" y1="0.397461" x2="71.4986" y2="72.7974" gradientUnits="userSpaceOnUse">
<stop stop-color="#FFE466"/>
<stop offset="1" stop-color="#BFA737"/>
</linearGradient>
<clipPath id="clip0_1065_962">
<rect width="143" height="72.3999" fill="white" transform="translate(0 0.399902)"/>
</clipPath>
</defs>
</svg>
