<svg width="87" height="88" viewBox="0 0 87 88" fill="none" xmlns="http://www.w3.org/2000/svg">
<g clip-path="url(#clip0_1065_1010)">
<rect x="7" y="8.82129" width="72" height="72" fill="white"/>
<path d="M86.2152 15.6101C84.2044 7.55628 78.8937 3.04581 70.8921 1.48028C69.7058 1.24893 68.4969 1.13238 67.2984 0.97583H19.7132C18.0433 1.24023 16.3456 1.39505 14.707 1.78817C6.72625 3.7016 1.69916 9.20357 0.530231 17.3321C0.206637 19.5425 0.0380715 21.7727 0.0257781 24.0065C-0.0177089 38.0754 0.00663955 52.1461 -0.000318361 66.2167C-0.000318361 69.5548 0.378896 72.8267 1.59479 75.9578C4.03006 82.1886 8.70926 85.8206 15.121 87.247C17.1957 87.6917 19.3118 87.9144 21.4335 87.9115C36.0695 87.9654 50.7072 87.948 65.3432 87.9341C70.1007 87.9341 74.6285 86.9982 78.6398 84.2812C83.203 81.1953 85.8754 76.9174 86.657 71.4473C86.7666 70.6663 86.8849 69.8818 87.0049 69.106V20.1744C86.744 18.6524 86.5875 17.1043 86.2152 15.6101ZM74.0632 71.3168C74.0197 71.6473 73.7797 71.9518 73.564 72.411C73.3778 72.2193 73.2067 72.0134 73.0525 71.7952C70.419 66.9908 65.9799 65.5696 60.6449 67.3404C59.7828 67.6143 58.9506 67.9744 58.1609 68.4154C52.7685 71.5465 46.903 72.5901 40.8096 71.8944C27.0782 70.3584 16.7056 63.277 8.9667 52.0486C8.87799 51.9182 8.80493 51.7773 8.72491 51.6416L8.81188 51.5512C9.45897 51.9808 10.0991 52.4209 10.7549 52.8401C16.1473 56.2843 21.9432 58.6413 28.3393 59.3336C34.1613 59.9633 39.7381 59.1335 44.9443 56.3208C45.1687 56.2008 45.3844 56.0668 45.6001 55.9312C45.6436 55.9033 45.6662 55.8424 45.7427 55.7363C33.8151 46.404 24.248 34.8835 15.2828 22.7976C23.5331 29.6981 32.0044 36.2716 41.121 42.0084C34.7154 34.9139 28.7676 27.419 23.3139 19.5691C28.3271 23.97 33.3455 28.5257 38.5291 32.8848C43.7376 37.295 49.2748 41.3016 55.0924 44.8698C58.9558 33.2832 55.6943 23.1907 49.1678 13.5122C49.6062 13.7645 49.914 13.9193 50.1976 14.1089C59.2428 20.1153 65.6963 28.0891 68.7126 38.6355C70.1702 43.7357 70.3442 48.8985 68.9961 54.0664C68.857 54.5883 68.9961 54.9518 69.3144 55.3641C72.2559 59.2066 74.1206 63.4805 74.3015 68.3754C74.3381 69.3477 74.1971 70.3393 74.0632 71.3168Z" fill="url(#paint0_linear_1065_1010)"/>
</g>
<defs>
<linearGradient id="paint0_linear_1065_1010" x1="43.502" y1="0.97583" x2="43.502" y2="87.9482" gradientUnits="userSpaceOnUse">
<stop stop-color="#FFE466"/>
<stop offset="1" stop-color="#BFA737"/>
</linearGradient>
<clipPath id="clip0_1065_1010">
<rect width="87" height="86.9739" fill="white" transform="translate(0 0.974121)"/>
</clipPath>
</defs>
</svg>
