<svg width="80" height="86" viewBox="0 0 80 86" fill="none" xmlns="http://www.w3.org/2000/svg">
<g clip-path="url(#clip0_1092_1312)">
<path d="M40.9677 0C52.2167 5.00545 62.8096 11.2543 73.5084 17.281C76.4741 18.9503 78.7069 21.2679 79.5244 24.7177C79.6569 25.3615 79.7137 26.0185 79.6937 26.6754C79.6937 37.3451 79.6249 48.0147 79.7308 58.687C79.7705 62.5866 78.0561 65.51 74.9687 67.3672C64.5028 73.661 53.9813 79.8702 43.0101 85.2751C41.0179 86.2566 39.3062 86.2434 37.3115 85.2751C29.3562 81.3914 21.721 76.9283 14.0515 72.5313C11.5038 71.0736 9.00372 69.5339 6.45073 68.0894C3.89775 66.6449 1.99028 64.5866 0.937339 61.8061C0.873845 61.6395 0.842098 61.4728 0.635742 61.4305V24.7891C1.13311 21.0139 3.68345 18.736 6.67826 16.9926C13.7234 12.8946 20.8401 8.91827 28.0704 5.14831C30.9065 3.66943 33.7267 2.16409 36.6448 0.843942C37.5363 0.441813 38.4676 0.288376 39.375 0.0079445L40.9677 0Z" fill="url(#paint0_radial_1092_1312)"/>
<path d="M4.87919 42.8347C4.87919 37.8716 5.00618 32.9058 4.83422 27.948C4.72046 24.6913 6.24696 22.5774 8.83698 21.1039C18.1706 15.7915 27.5307 10.5215 37.1289 5.68803C39.3088 4.59011 41.0496 4.59541 43.2296 5.68803C52.8251 10.5268 62.1852 15.7942 71.5215 21.1039C74.1088 22.5774 75.5771 24.7019 75.5348 27.9506C75.4078 37.9157 75.4078 47.8807 75.5348 57.8457C75.5745 60.8934 74.2464 62.8485 71.831 64.2745C67.0372 67.1053 62.2407 69.9281 57.3914 72.6637C52.124 75.6373 46.8567 78.6162 41.4015 81.2486C41.0266 81.4592 40.6039 81.5699 40.1739 81.5699C39.744 81.5699 39.3212 81.4592 38.9464 81.2486C31.6948 77.7008 24.7078 73.6663 17.7209 69.6397C14.7208 67.9095 11.7392 66.1476 8.74174 64.4121C6.16494 62.9173 4.69665 60.9331 4.82628 57.7108C5.0247 52.7662 4.87919 47.7978 4.87919 42.8347Z" fill="white"/>
<path d="M21.6976 49.991C25.0231 53.6472 28.7746 56.3774 33.4837 57.5812C37.7299 58.6632 42.0078 58.3749 46.2751 57.5812C46.918 57.4595 47.1481 57.2214 47.1455 56.5626C47.1243 50.4125 47.1243 44.2616 47.1455 38.1097C47.1271 37.6256 46.9399 37.1632 46.6164 36.8028C44.6613 34.2074 42.7009 31.6174 40.7829 28.9956C40.3622 28.4216 39.9627 28.2866 39.2458 28.3819C32.9837 29.202 26.7136 29.9507 20.4621 30.7629C19.8219 30.8449 19.6367 30.7259 19.5891 30.0751C19.4806 28.53 20.1182 27.3448 21.2293 26.3712C23.7003 24.2389 26.6978 23.26 29.8037 22.5986C37.8886 20.8817 45.9232 21.0113 53.8494 23.5087C55.748 24.0709 57.5142 25.0093 59.0427 26.2681C60.4925 27.493 61.0374 28.9851 60.6935 30.8343C58.9298 40.3161 57.1767 49.7996 55.4341 59.2849C55.2503 60.2804 54.7129 61.1758 53.9208 61.8062C51.0451 64.2824 47.6005 65.3671 43.9285 65.7878C38.759 66.3804 33.6715 66.1343 28.8936 63.756C27.188 62.9284 25.681 61.7427 24.4755 60.2797C23.2082 58.7214 22.3167 57.0203 22.2347 54.9224C22.1606 53.2715 21.8802 51.6339 21.6976 49.991Z" fill="url(#paint1_linear_1092_1312)"/>
<path d="M22.6919 35.3397C27.4275 38.2499 32.552 39.2684 37.8987 39.615C39.9173 39.7472 41.9279 39.7552 43.9412 39.7737C44.6688 39.7737 44.9624 39.988 44.9439 40.7473C44.8249 45.3083 44.7323 49.8692 44.6344 54.4302C44.6344 54.925 44.4624 55.2848 43.9095 55.3509C38.8379 55.962 33.8245 55.88 29.126 53.6022C25.7343 51.9698 23.7448 49.3296 23.602 45.3559C23.4829 42.0542 23.0173 38.7631 22.6919 35.3397Z" fill="#BFA737"/>
<path d="M44.3833 37.7181C36.7799 37.689 29.4834 37.5514 23.1631 33.1307L23.2028 32.6756C25.1261 32.4111 27.0494 32.1465 28.9754 31.9031C32.0919 31.5036 35.2137 31.1465 38.3249 30.6994C39.0551 30.5936 39.5472 30.6174 39.989 31.2894C41.3647 33.3635 42.796 35.4032 44.3833 37.7181Z" fill="#BFA737"/>
</g>
<defs>
<radialGradient id="paint0_radial_1092_1312" cx="0" cy="0" r="1" gradientUnits="userSpaceOnUse" gradientTransform="translate(40.6463 43) scale(130 137.811)">
<stop stop-color="#FFE466"/>
<stop offset="1" stop-color="#BFA737"/>
</radialGradient>
<linearGradient id="paint1_linear_1092_1312" x1="40.4307" y1="21.4533" x2="29.1164" y2="84.9849" gradientUnits="userSpaceOnUse">
<stop stop-color="#FFE466"/>
<stop offset="1" stop-color="#BFA737"/>
</linearGradient>
<clipPath id="clip0_1092_1312">
<rect width="79.095" height="86" fill="white" transform="translate(0.646484)"/>
</clipPath>
</defs>
</svg>
