<svg width="80" height="89" viewBox="0 0 80 89" fill="none" xmlns="http://www.w3.org/2000/svg">
<g clip-path="url(#clip0_1065_993)">
<circle cx="40" cy="44.1411" r="34" fill="white"/>
<path d="M79.8962 36.5196C79.8962 32.9643 80.1749 29.2652 79.8139 25.7414C79.5458 23.0814 78.2666 21.0453 75.9694 19.6978C70.1098 16.2563 64.1678 12.9393 58.2364 9.64151C53.4089 6.95528 48.5989 4.24803 43.8397 1.46717C43.6996 1.40712 43.5489 1.37554 43.3964 1.3743L42.9198 1.18856C40.8171 0.403538 38.7354 0.393028 36.6782 1.30246C31.1708 3.73111 25.9105 7.15154 20.6081 10.0761C15.0289 13.1653 9.44788 16.2669 3.94049 19.491C3.67064 19.6452 3.38151 19.7697 3.23958 20.0588C2.64834 20.53 2.10486 21.0582 1.61697 21.6358C1.44689 21.7184 1.30088 21.8433 1.19292 21.9985C0.739914 22.6619 0.397844 23.3946 0.18011 24.1679C0.123186 24.3144 0.123186 24.4769 0.18011 24.6234C0.0653572 25.2472 0.00671373 25.8799 0.00488281 26.5142C0.00488281 38.4401 0.00488281 50.3661 0.00488281 62.292C0.00488281 65.185 1.27703 67.449 3.7565 68.9051C6.78442 70.6942 9.86492 72.3886 12.9331 74.1146C16.0014 75.8406 19.0416 77.7523 22.1939 79.3224C26.0489 81.4934 29.9442 83.6119 33.7589 85.8426C34.4598 86.2561 35.1432 86.6907 35.8459 87.0832C36.6344 87.5409 37.4883 87.8753 38.3779 88.075C39.969 88.3851 41.9122 88.2502 43.3701 87.4652C44.4863 86.8554 45.592 86.2263 46.6994 85.606C47.7333 85.0471 48.7251 84.4268 49.7677 83.9011C50.7805 83.2913 51.8354 82.7218 52.8692 82.1488C60.1131 78.1186 67.2956 73.9639 74.5606 69.9547C74.8182 69.8093 75.0565 69.6446 75.3141 69.5202C76.3974 68.9956 77.3585 68.2493 78.1352 67.3298C78.7047 66.6377 79.2409 65.928 79.3863 65.0151C79.5213 64.4894 79.6544 63.9812 79.7788 63.4538C79.8507 63.3797 79.904 63.2896 79.9345 63.1909C79.965 63.0923 79.9717 62.9878 79.9541 62.8861C79.9436 62.7301 79.9541 62.5759 79.9436 62.42V62.1729C80.0522 53.6306 79.8962 45.0111 79.8962 36.5196ZM52.2839 58.4038C52.1385 58.5492 52.0141 58.7139 51.8809 58.8593C50.9831 60.0265 49.9409 61.0751 48.7794 61.9801C47.3751 63.1849 45.8062 64.1832 44.1201 64.945C43.1417 65.4822 42.0997 65.8943 41.0186 66.1716C40.5161 66.357 39.9976 66.4954 39.4696 66.5851C37.3848 67.1165 35.2293 67.3152 33.0825 67.1739C31.5213 67.081 29.9828 66.9058 28.4828 66.4204C27.9938 66.3272 27.5137 66.1924 27.0477 66.0174C25.9508 65.6354 24.8661 65.2324 23.8638 64.6418C19.5624 62.4206 16.0751 58.894 13.9022 54.568C13.8446 54.4479 13.796 54.3238 13.7567 54.1965C13.2311 53.2134 12.8196 52.1734 12.5301 51.0968C12.3376 50.5954 12.1961 50.0758 12.1078 49.546C11.9556 49.0406 11.8552 48.521 11.8082 47.9953C11.7163 47.6304 11.6709 47.2553 11.6733 46.8791C11.4637 45.6365 11.4289 44.3708 11.5699 43.1187C11.5804 42.6736 11.5278 42.2285 11.6838 41.7957C11.6831 41.2712 11.7562 40.7491 11.9011 40.245C11.9654 39.6712 12.0936 39.1064 12.2831 38.561C12.4583 37.5272 12.8823 36.5669 13.2643 35.5944C13.7304 34.5203 14.1948 33.4444 14.8869 32.4947C15.5581 31.233 16.464 30.1273 17.4085 29.0742C18.8543 27.441 20.5456 26.0428 22.4217 24.9301C23.3961 24.2865 24.435 23.7462 25.5215 23.318C26.4922 22.9448 27.449 22.5225 28.4863 22.3367C29.0308 22.1417 29.5968 22.0129 30.172 21.953C30.676 21.81 31.1972 21.7369 31.721 21.7357C32.7454 21.5642 33.7854 21.5055 34.8225 21.5605C35.488 21.5513 36.1526 21.6101 36.8061 21.7357C37.1825 21.7283 37.5582 21.7731 37.9223 21.8689C38.4481 21.9212 38.9676 22.0251 39.4731 22.179C40.5777 22.3865 41.6532 22.7265 42.6762 23.1918C43.1868 23.3257 43.6746 23.5347 44.1236 23.8121C46.2 24.7216 48.0084 26.034 49.6923 27.5427C50.6057 28.375 51.4458 29.2843 52.2033 30.2605C52.298 30.3849 52.5345 30.5198 52.2244 30.6951L47.2304 33.5408C46.2474 34.119 45.2661 34.6973 44.2953 35.293C44.1289 35.3964 44.0465 35.3351 43.9536 35.2212C43.5103 34.6955 42.9513 34.3013 42.466 33.8194C41.4031 33.0437 40.2469 32.4049 39.0245 31.9182C36.3368 30.8911 33.3885 30.7638 30.6223 31.5554C30.4787 31.5975 30.3227 31.6273 30.179 31.6588C29.6774 31.8991 29.1592 32.1028 28.6283 32.2686C27.5769 32.8679 26.5518 33.4672 25.6494 34.2627C24.2381 35.4992 23.0857 37.003 22.2587 38.6872C22.052 39.2024 21.8347 39.7088 21.6279 40.2257C21.3178 41.4523 21.0392 42.6789 21.0094 43.9668C20.9568 47.0368 21.8049 49.8159 23.6536 52.2866C23.7061 52.3584 23.7377 52.4303 23.7885 52.5038C25.2326 54.3307 27.1175 55.7604 29.2661 56.6585C31.9867 57.7831 35.0039 57.9717 37.8435 57.1947C38.9386 56.9266 39.9304 56.4097 40.9327 55.9243C42.0174 55.2111 43.0828 54.4769 43.9501 53.5062C44.064 53.3712 44.1674 53.3204 44.3426 53.4431C44.6423 53.6604 44.9735 53.8461 45.2836 54.0423C45.441 54.0739 45.5831 54.1579 45.6866 54.2807C46.7818 54.8484 47.8577 55.4582 48.9003 56.1311C50.006 56.7601 51.1117 57.3909 52.2296 58.0218C52.3768 58.1567 52.4487 58.2478 52.2839 58.4038ZM68.5293 46.7371C68.5082 47.7394 68.5187 48.7312 68.5293 49.7335C68.5293 49.9823 68.4977 50.105 68.2086 50.0962C67.4131 50.0752 66.6315 50.0752 65.8308 50.0647C64.7251 50.126 64.7251 50.126 64.7146 51.2527C64.7146 52.008 64.6953 52.7614 64.7251 53.5062C64.7356 53.8671 64.6112 53.9705 64.2817 53.8881C63.2987 53.8987 62.3174 53.8881 61.3362 53.9197C61.0155 53.9302 60.9332 53.8163 60.9332 53.5062C60.9542 52.5039 60.9226 51.5121 60.9437 50.508C60.9542 50.1681 60.8508 50.0647 60.5091 50.0752C59.5173 50.0962 58.515 50.0962 57.5127 50.0752C57.1815 50.0647 57.1202 50.1891 57.1202 50.4887C57.1412 51.428 57.0887 52.3794 57.1412 53.3204C57.171 53.8461 56.9853 53.9915 56.5104 53.8776H54.9614C54.4357 53.8776 53.7523 54.0634 53.4106 53.8163C53.069 53.5692 53.3283 52.8543 53.3073 52.3479C53.2985 51.7486 53.267 51.1388 53.3073 50.5396C53.3388 50.126 53.1741 50.0647 52.8114 50.0752C51.8301 50.0962 50.8488 50.0647 49.8675 50.0962C49.5364 50.0962 49.4645 50.0016 49.4733 49.6932C49.4943 48.7102 49.4943 47.7289 49.4733 46.7581C49.4645 46.3954 49.5679 46.271 49.9394 46.2815C50.9207 46.3026 51.9019 46.271 52.885 46.292C53.2249 46.3026 53.3178 46.1992 53.3178 45.8592C53.2979 44.8768 53.2979 43.8949 53.3178 42.9137C53.3283 42.593 53.2354 42.5001 52.9148 42.5106C51.9125 42.5299 50.9207 42.5106 49.9184 42.5212C49.5872 42.5212 49.4733 42.4178 49.4838 42.0761C49.5048 41.1456 49.5259 40.2152 49.4733 39.297C49.454 38.7713 49.6398 38.6241 50.1146 38.738H51.965C52.0158 38.7275 52.0684 38.7275 52.1192 38.717C52.5012 38.6767 53.0286 38.8922 53.2459 38.6241C53.4632 38.356 53.309 37.8706 53.309 37.4781C53.309 36.7544 53.3178 36.0307 53.309 35.3176C53.2985 35.039 53.3388 34.883 53.691 34.8935C54.7231 34.9145 55.7464 34.9145 56.7803 34.8935C57.0799 34.8935 57.1517 34.9864 57.1517 35.2755C57.143 36.4233 57.1517 37.571 57.1623 38.717C57.4724 38.7275 57.7721 38.738 58.0822 38.738H59.4367C59.8187 38.7275 60.1902 38.7065 60.5739 38.7275C60.9034 38.7485 60.977 38.6136 60.977 38.3139C60.9559 37.3116 60.9857 36.3199 60.9559 35.3176C60.9454 34.9566 61.0803 34.8725 61.3993 34.8935C61.8443 34.9145 62.2982 34.9145 62.7433 34.9145C63.2917 34.904 63.8384 34.9145 64.3869 34.883C64.7076 34.862 64.7478 35.0074 64.7478 35.2755C64.7373 36.2165 64.7689 37.168 64.7268 38.1072C64.7076 38.5926 64.8302 38.8081 65.3366 38.717C65.4405 38.7086 65.545 38.7157 65.6468 38.738H67.399C68.5468 38.6661 68.5468 38.6661 68.5363 39.8121C68.5363 39.926 68.5257 40.0504 68.5152 40.1626V41.9149C68.6186 42.3792 68.4627 42.5545 67.9563 42.5247C67.017 42.4826 66.0656 42.5247 65.1158 42.5036C64.8355 42.5036 64.7216 42.5755 64.7216 42.8751C64.7426 43.8774 64.7426 44.8692 64.7216 45.8715C64.7128 46.1922 64.8162 46.285 65.1351 46.285C66.1181 46.2658 67.0994 46.2955 68.0807 46.2745C68.4259 46.2623 68.5293 46.3744 68.5293 46.7371Z" fill="url(#paint0_linear_1065_993)"/>
<path d="M60.9444 42.84C60.9444 42.593 60.862 42.5106 60.6132 42.5106C59.5618 42.5211 58.5104 42.5211 57.4591 42.5106C57.233 42.5106 57.1191 42.5614 57.1191 42.8208C57.1297 43.8634 57.1297 44.9235 57.1191 45.9626C57.1191 46.2517 57.2418 46.3025 57.4906 46.292C57.9865 46.2815 58.4929 46.292 58.9888 46.292C59.4847 46.292 60.0227 46.2815 60.5396 46.292C60.8077 46.3025 60.9426 46.2517 60.9426 45.9311C60.9338 44.8972 60.9444 43.8791 60.9444 42.84Z" fill="#CFB53B"/>
</g>
<defs>
<linearGradient id="paint0_linear_1065_993" x1="40.0019" y1="0.609497" x2="40.0019" y2="88.2293" gradientUnits="userSpaceOnUse">
<stop stop-color="#FFE466"/>
<stop offset="1" stop-color="#BFA737"/>
</linearGradient>
<clipPath id="clip0_1065_993">
<rect width="80" height="87.6136" fill="white" transform="translate(0 0.61377)"/>
</clipPath>
</defs>
</svg>
