<svg width="100" height="86" viewBox="0 0 100 86" fill="none" xmlns="http://www.w3.org/2000/svg">
<g clip-path="url(#clip0_1077_1169)">
<path d="M58.9995 42.9206C58.9995 38.176 55.0395 34.3298 50.1555 34.3298C45.2715 34.3298 41.3115 38.176 41.3115 42.9206C41.3115 47.6651 45.2715 51.5126 50.1555 51.5126C55.0395 51.5126 58.9995 47.6664 58.9995 42.9206Z" fill="url(#paint0_linear_1077_1169)"/>
<path fill-rule="evenodd" clip-rule="evenodd" d="M78.8705 26.9709C80.737 19.5974 83.0839 5.92607 74.8115 1.29133C66.5773 -3.32356 55.8629 5.52518 50.2054 10.8267C44.5637 5.57281 33.5483 -3.23359 25.2825 1.41702C17.0523 6.04779 19.5893 19.4916 21.498 26.9114C13.8209 29.0283 0.65918 33.5943 0.65918 42.9206C0.65918 52.2205 13.8064 57.186 21.4386 59.3043C19.5233 66.7638 17.113 80.0171 25.3537 84.6372C33.6499 89.2852 44.6257 80.6905 50.3413 75.3241C56.0358 80.6627 66.6473 89.3156 74.8828 84.6822C83.1446 80.0343 80.993 66.5455 79.0843 59.0847C86.4829 56.9677 99.6592 52.1041 99.6592 42.9206C99.6592 33.6842 86.4275 29.0826 78.8705 26.9709ZM77.932 55.13C76.6793 51.2745 74.9884 47.1756 72.916 42.9418C74.7941 39.053 76.4047 35.04 77.7366 30.9309C83.2806 32.4908 95.4246 36.0591 95.4246 42.9206C95.4246 49.8469 83.7677 53.4497 77.932 55.13ZM72.7642 81.1245C66.6196 84.5817 57.4918 76.3071 53.2863 72.3763C56.0767 69.4099 58.8646 65.9633 61.5851 62.1357C66.0942 61.7659 70.5737 61.095 74.9936 60.1272C76.3361 65.405 78.9352 77.6527 72.7642 81.1245ZM27.467 81.0755C21.3211 77.6355 24.1301 65.8059 25.5399 60.3111C29.5949 61.1831 34.0829 61.8102 38.8811 62.1873C41.4857 65.7726 44.3238 69.1817 47.3766 72.3922C43.8126 75.7488 33.6407 84.542 27.467 81.0755ZM4.88846 42.9206C4.88846 35.9679 16.9678 32.4273 22.6332 30.87C23.9667 35.0248 25.5791 39.0845 27.4591 43.0212C25.556 47.0139 23.9242 51.131 22.5751 55.3443C17.1711 53.8466 4.88846 49.8774 4.88846 42.9206ZM27.401 4.97346C33.572 1.50303 43.1526 9.95616 47.2446 13.7574C44.2114 16.9464 41.394 20.3348 38.8111 23.9001C34.3688 24.288 29.9553 24.9557 25.5966 25.8992C24.0601 19.915 21.2406 8.44124 27.401 4.97346ZM64.6105 28.3707C67.7693 28.7584 70.796 29.2731 73.638 29.9042C72.7246 32.7186 71.6672 35.4839 70.47 38.1893C68.6546 34.8419 66.7014 31.5691 64.6105 28.3707ZM50.2067 16.6986C52.2625 18.8767 54.2067 21.158 56.0319 23.5336C52.1335 23.3572 48.2333 23.3572 44.3314 23.5336C46.2546 21.066 48.2254 18.7758 50.2067 16.6986ZM29.8787 38.1853C28.6922 35.4648 27.6424 32.6864 26.7331 29.8605C29.5579 29.2466 32.5702 28.7439 35.7091 28.3628C33.613 31.5461 31.6717 34.8203 29.8853 38.1853H29.8787ZM35.7989 57.7669C32.557 57.4149 29.4985 56.9386 26.675 56.3406C27.602 53.4571 28.673 50.6221 29.884 47.8464C31.6968 51.2467 33.6706 54.5553 35.8055 57.7722L35.7989 57.7669ZM50.3189 69.4285C48.3151 67.3261 46.3153 65.0015 44.363 62.5008C48.2834 62.6499 52.2061 62.6433 56.1309 62.481C54.3155 64.8972 52.3769 67.2178 50.3229 69.4338L50.3189 69.4285ZM70.5056 47.6996C71.7624 50.4612 72.8719 53.2877 73.8294 56.1673C70.7772 56.8333 67.6932 57.3438 64.5894 57.6968C66.708 54.4473 68.688 51.1158 70.5096 47.7049L70.5056 47.6996ZM59.221 58.1916C53.2183 58.5995 47.1952 58.6106 41.1911 58.2247C37.7862 53.393 34.7566 48.3062 32.1293 43.0093C34.7419 37.7252 37.7546 32.6496 41.1409 27.827C47.1481 27.3844 53.1795 27.3844 59.1866 27.827C62.5422 32.6596 65.5646 37.7162 68.2326 42.9616C65.5807 48.2403 62.5711 53.3306 59.2249 58.1969L59.221 58.1916ZM72.6955 4.84644C78.8665 8.30629 76.1196 20.5911 74.7719 25.9363C70.4075 24.9755 65.9861 24.2967 61.5349 23.904C58.9784 20.3364 56.1837 16.9464 53.1701 13.7574C57.3188 9.87281 66.5866 1.42629 72.6995 4.85173L72.6955 4.84644Z" fill="url(#paint1_linear_1077_1169)"/>
</g>
<defs>
<linearGradient id="paint0_linear_1077_1169" x1="50.2609" y1="3.49976" x2="34.2857" y2="103.446" gradientUnits="userSpaceOnUse">
<stop stop-color="#FFE466"/>
<stop offset="1" stop-color="#BFA737"/>
</linearGradient>
<linearGradient id="paint1_linear_1077_1169" x1="50.749" y1="0.00942094" x2="36.0432" y2="102.898" gradientUnits="userSpaceOnUse">
<stop stop-color="#FFE466"/>
<stop offset="1" stop-color="#BFA737"/>
</linearGradient>
<clipPath id="clip0_1077_1169">
<rect width="99" height="86" fill="white" transform="translate(0.65918)"/>
</clipPath>
</defs>
</svg>
