<svg width="78" height="86" viewBox="0 0 78 86" fill="none" xmlns="http://www.w3.org/2000/svg">
<g clip-path="url(#clip0_1098_1384)">
<path d="M77.4507 19.889C77.4138 19.3131 77.4507 18.7255 77.3033 18.1592C77.2539 16.8551 77.2422 15.5412 76.9959 14.2584C76.5809 12.0864 75.7122 10.1152 74.281 8.40864C72.8091 6.50235 70.9261 5.14779 68.6475 4.40409C66.1933 3.60317 63.6723 3.03691 61.1503 2.4881C55.5436 1.2558 49.8479 0.47052 44.1169 0.13967C40.5206 -0.0618565 36.9154 -0.0456665 33.3211 0.188151C30.8253 0.349109 28.3382 0.583759 25.8617 0.918279C20.5492 1.6358 15.2928 2.6384 10.1596 4.20046C5.26689 5.69175 2.25814 9.06217 1.30596 14.0722C0.650497 17.5251 0.483726 21.0535 0.352826 24.5684C0.176354 29.2992 0.282047 34.0213 0.986965 38.7191C1.71418 43.5741 2.94755 48.2864 4.80826 52.8301C8.14378 60.975 13.1354 67.9631 19.6251 73.8826C25.1723 78.9431 31.3818 82.9816 38.3389 85.8517C38.8441 86.0602 39.261 86.0456 39.7545 85.8391C45.4753 83.4897 50.6871 80.2986 55.4858 76.4201C61.9095 71.2297 67.1387 65.0396 70.9765 57.7064C75.6045 48.8663 77.6669 39.4027 77.7755 29.4699C77.8153 26.273 77.6524 23.08 77.4507 19.889Z" fill="url(#paint0_linear_1098_1384)"/>
<path d="M71.2905 27.3589C71.2846 29.6957 71.3137 31.4236 71.1741 33.1466C70.9389 36.26 70.4744 39.3518 69.7846 42.3969C68.7908 46.7239 67.2448 50.9053 65.1847 54.8381C63.4402 58.1524 61.3385 61.266 58.9171 64.1233C54.5993 69.2342 49.4748 73.3619 43.6823 76.676C42.2957 77.4692 40.8636 78.1799 39.4043 78.8344C39.2899 78.8918 39.1634 78.921 39.0354 78.9196C38.9074 78.9183 38.7816 78.8864 38.6684 78.8267C34.3462 76.7812 30.2835 74.2272 26.5665 71.219C24.9439 69.9147 23.3977 68.518 21.9355 67.036C17.7303 62.7503 14.2929 57.9216 11.7545 52.4645C9.73969 48.1165 8.33032 43.5128 7.56569 38.7821C7.24248 36.7937 7.01623 34.796 6.88695 32.7888C6.75799 30.8069 6.67557 28.825 6.73084 26.8412C6.79484 24.5858 6.87822 22.3285 7.02173 20.077C7.12645 18.4568 7.18365 16.823 7.49296 15.2289C7.96808 12.7738 9.47003 11.1226 11.8427 10.4399C16.1604 9.19785 20.5635 8.30676 25.0025 7.60766C27.2753 7.25278 29.5597 6.98613 31.8558 6.79317C33.9948 6.61476 36.1338 6.52653 38.2796 6.50229C40.2944 6.47805 42.3093 6.50229 44.3174 6.63997C48.2828 6.91416 52.2291 7.41531 56.1371 8.14095C59.3679 8.74115 62.5658 9.47613 65.7452 10.2974C68.3176 10.9616 69.8118 12.6536 70.4963 15.1455C70.7552 16.0851 70.7872 17.0567 70.8619 18.0147C71.1334 21.3269 71.3409 24.643 71.2905 27.3589Z" fill="white"/>
<path d="M51.9153 39.9185C51.8445 38.1421 51.7039 36.3784 51.3732 34.6379C50.4463 29.7645 48.5836 25.2616 45.8987 21.0932C44.038 18.2066 41.9019 15.5508 39.3586 13.2334C39.2452 13.1296 39.1773 12.8455 38.9145 13.0143C37.7011 14.104 36.567 15.2789 35.5208 16.5301C32.9338 19.5696 30.7981 22.9658 29.1795 26.6142C27.629 30.0958 26.6469 33.8036 26.2706 37.5962C26.0282 40.0814 26.0253 42.5578 26.4354 45.0216C27.1336 49.222 28.8236 53.0045 31.3311 56.4322C32.9297 58.6233 34.7852 60.6149 36.8579 62.3643C37.1362 62.3372 37.1411 62.089 37.2002 61.9086C37.8024 60.0731 38.4607 58.2551 39.0154 56.4041C39.5971 58.1597 40.1825 59.9141 40.7714 61.6672C40.9109 62.0797 40.9807 62.5126 40.9779 62.9481C40.9721 64.674 40.9721 66.3996 40.9779 68.1249C40.9779 68.3721 40.9081 68.6514 41.1631 68.8385C41.2659 68.6737 41.2164 68.4914 41.2174 68.3178C41.2174 66.493 41.2261 64.6672 41.2174 62.8424C41.208 62.6995 41.2326 62.5565 41.2892 62.425C41.3459 62.2935 41.4329 62.1774 41.5432 62.0861C42.9122 60.8804 44.1883 59.5732 45.3606 58.1756C47.2446 55.9212 48.8241 53.4777 49.9537 50.7589C51.3954 47.3332 52.0651 43.6321 51.9153 39.9185Z" fill="url(#paint1_linear_1098_1384)"/>
<path opacity="0.1" d="M38.9145 13.0162C39.0706 13.1995 38.9969 13.4196 38.9969 13.6213C39.0008 27.5296 39.0008 41.4376 38.9969 55.3453C38.9843 55.6189 39.0171 55.8929 39.0939 56.1559C38.5208 58.0951 37.8334 59.9927 37.2021 61.9116C37.143 62.0919 37.1381 62.3401 36.8599 62.3673C34.7871 60.6179 32.9316 58.6263 31.333 56.4351C28.8217 53.0085 27.1316 49.2269 26.4335 45.0246C26.0233 42.5607 26.0262 40.0843 26.2686 37.5992C26.6449 33.8065 27.627 30.0988 29.1775 26.6172C30.7961 22.9687 32.9318 19.5725 35.5189 16.5331C36.5656 15.2815 37.7004 14.1062 38.9145 13.0162Z" fill="black"/>
<path d="M36.8589 62.3673C37.3379 61.2804 37.6346 60.1294 38.0224 59.0114C38.3133 58.1941 38.5693 57.3631 38.8486 56.5457C38.898 56.4022 38.8941 56.215 39.0881 56.1578C39.7164 58.0383 40.345 59.9184 40.974 61.7982C41.0968 62.1475 41.1607 62.5148 41.1631 62.8851C41.1553 64.8709 41.1631 66.8557 41.1631 68.8415C39.8279 68.8493 38.4927 68.8522 37.1585 68.8706C36.8143 68.8706 36.8676 68.6524 36.8676 68.4508C36.8676 66.6317 36.8676 64.813 36.8676 62.9947C36.8715 62.7862 36.8637 62.5768 36.8589 62.3673Z" fill="#BFA737"/>
</g>
<defs>
<linearGradient id="paint0_linear_1098_1384" x1="39.4914" y1="0.0078325" x2="-14.7252" y2="296.96" gradientUnits="userSpaceOnUse">
<stop stop-color="#FFE466"/>
<stop offset="1" stop-color="#BFA737"/>
</linearGradient>
<linearGradient id="paint1_linear_1098_1384" x1="39.1741" y1="12.9672" x2="-23.8054" y2="189.918" gradientUnits="userSpaceOnUse">
<stop stop-color="#FFE466"/>
<stop offset="1" stop-color="#BFA737"/>
</linearGradient>
<clipPath id="clip0_1098_1384">
<rect width="77.5012" height="86" fill="white" transform="translate(0.278809)"/>
</clipPath>
</defs>
</svg>
