<svg width="87" height="87" viewBox="0 0 87 87" fill="none" xmlns="http://www.w3.org/2000/svg">
<g clip-path="url(#clip0_1065_953)">
<circle cx="31" cy="10" r="5" fill="white"/>
<circle cx="56" cy="77" r="5" fill="white"/>
<path d="M47.5634 87H41.6152L40.5308 86.8643C38.5689 86.6225 36.5913 86.4676 34.6485 86.1161C31.6231 85.5698 28.7142 84.6597 26.2587 82.6901C23.9058 80.8022 22.4757 78.4549 22.5817 75.3177C22.6321 73.8178 22.5817 72.3127 22.5921 70.8111C22.6373 65.3423 22.5921 59.8682 22.7832 54.4046C22.884 51.5128 24.2464 49.0889 26.5785 47.2933C29.0426 45.3949 31.9064 44.7389 34.9388 44.725C40.9687 44.6972 46.9987 44.725 53.0286 44.7111C54.3858 44.7111 55.7482 44.7111 57.1001 44.591C59.639 44.3805 61.9658 43.5853 63.8495 41.7775C66.4405 39.2997 67.511 36.1712 67.6152 32.686C67.6986 29.8532 67.6326 27.0153 67.6326 24.1808V21.8701H68.6127C70.6511 21.8701 72.6894 21.8545 74.7261 21.8701C77.2487 21.8685 79.6753 22.8386 81.5033 24.5793C84.096 26.9735 85.4653 30.0429 86.2977 33.3976C86.5618 34.4625 86.7686 35.543 87.0015 36.6166V49.8928C86.9346 50.0769 86.88 50.2652 86.8381 50.4566C86.3533 53.6042 85.3749 56.5761 83.5173 59.1861C81.187 62.4556 78.0034 64.3366 73.9684 64.3627C64.171 64.427 54.3719 64.3731 44.5728 64.3627H43.7039V67.3589H64.8088C64.8088 67.7835 64.8088 68.1141 64.8088 68.4464C64.8314 71.481 64.7549 74.5208 64.9061 77.5484C65.0625 80.6804 63.6897 82.8206 61.017 84.2195C58.4764 85.5541 55.7065 86.1335 52.8861 86.4728C51.1171 86.6938 49.3412 86.8295 47.5634 87ZM55.7308 80.2402C57.7692 80.2297 59.5139 78.4688 59.4878 76.4487C59.4618 74.4285 57.6823 72.6485 55.6909 72.6903C53.6264 72.7338 51.9252 74.4547 51.9356 76.4887C51.9555 77.4858 52.3633 78.4358 53.0721 79.1365C53.7809 79.8371 54.7348 80.2331 55.7308 80.2402Z" fill="url(#paint0_linear_1065_953)"/>
<path d="M19.7911 64.9212C16.9273 64.9212 14.1955 65.1144 11.5021 64.8742C7.80414 64.5454 5.27397 62.2468 3.40764 59.1862C1.49612 56.0542 0.726305 52.5463 0.323149 48.9411C-0.177321 44.4623 -0.137348 39.9905 0.719359 35.5639C1.38839 32.1048 2.59438 28.8458 5.10715 26.2427C7.43399 23.8346 10.2717 22.5 13.6447 22.4948C23.3865 22.4809 33.1288 22.4849 42.8718 22.507H43.7406V19.5368H22.5958C22.5958 19.1296 22.5958 18.8269 22.5958 18.5241C22.575 15.1503 22.5315 11.7747 22.5384 8.40079C22.5384 5.84299 23.8904 4.09951 26.0313 2.87803C29.1071 1.12237 32.5061 0.457696 35.9573 0.248896C39.8537 -0.00480286 43.7605 -0.0628757 47.6627 0.0748959C51.8038 0.248896 55.884 0.981432 59.561 3.09379C62.4213 4.73635 64.4788 6.99313 64.7986 10.4592C64.849 11.0195 64.7986 11.5885 64.7986 12.154C64.7986 18.1396 64.8594 24.1252 64.7621 30.1073C64.7325 31.8664 64.5101 33.7056 63.9366 35.3534C62.682 38.9587 59.8008 40.8379 56.2176 41.6887C55.0894 41.9517 53.9353 42.0871 52.7769 42.0924C46.0918 42.129 39.4085 42.0924 32.7251 42.1307C31.2835 42.1375 29.8463 42.2926 28.4363 42.5935C24.4065 43.4635 21.7808 46.0092 20.5939 49.9015C20.0987 51.5302 19.8988 53.2858 19.8258 54.9945C19.7042 57.9682 19.7911 60.9505 19.7911 63.9277V64.9212ZM31.6998 14.202C33.6826 14.2194 35.4829 12.4132 35.4985 10.3914C35.5142 8.42515 33.7747 6.66776 31.7641 6.62252C29.7536 6.57728 27.9237 8.37121 27.9133 10.3687C27.9028 12.3663 29.7049 14.1863 31.6998 14.202Z" fill="url(#paint1_linear_1065_953)"/>
</g>
<defs>
<linearGradient id="paint0_linear_1065_953" x1="54.7888" y1="21.8632" x2="54.7888" y2="87" gradientUnits="userSpaceOnUse">
<stop stop-color="#FFE466"/>
<stop offset="1" stop-color="#BFA737"/>
</linearGradient>
<linearGradient id="paint1_linear_1065_953" x1="32.41" y1="0.00219727" x2="32.41" y2="64.9947" gradientUnits="userSpaceOnUse">
<stop stop-color="#FFE466"/>
<stop offset="1" stop-color="#BFA737"/>
</linearGradient>
<clipPath id="clip0_1065_953">
<rect width="87" height="87" fill="white"/>
</clipPath>
</defs>
</svg>
