<svg width="87" height="86" viewBox="0 0 87 86" fill="none" xmlns="http://www.w3.org/2000/svg">
<g clip-path="url(#clip0_1092_1220)">
<path d="M51.0325 -4.7884e-05C50.4391 0.00825597 49.8511 0.115393 49.2929 0.316956C50.3245 0.987553 51.0647 2.02317 51.365 3.21635C51.365 3.37099 51.4346 3.47924 51.4578 3.63387C51.4885 3.7657 51.504 3.90057 51.5042 4.03591C51.5892 5.99977 50.9939 6.24718 50.5687 7.40694C50.2644 8.10878 50.1335 8.87362 50.1874 9.6367C50.2412 10.3998 50.4781 11.1387 50.8779 11.7908C50.9481 11.966 51.0389 12.1321 51.1485 12.2857C50.298 6.64149 55.0144 5.79875 55.8726 4.03591C55.9422 2.48957 54.6742 1.46899 53.6691 0.75767C52.8825 0.252689 51.9673 -0.0156788 51.0325 -0.0155028V-4.7884e-05ZM58.1226 1.26794C58.08 1.48164 58.067 1.70019 58.0839 1.91743C58.0839 2.09526 58.0839 2.31948 58.0375 2.49731C57.9911 2.67514 57.9447 2.86068 57.8828 3.03078C57.8361 3.21602 57.7741 3.39706 57.6973 3.57201L57.4576 4.0823C57.3881 4.16735 57.3493 4.26014 57.2797 4.35292L57.1484 4.54621C57.0401 4.70085 56.9318 4.84774 56.8081 4.99464C56.69 5.14366 56.5551 5.27858 56.4061 5.39671C56.2746 5.50495 56.1432 5.63638 55.9809 5.75236C55.517 6.10802 54.9834 6.37862 54.4886 6.71109C54.3322 6.80872 54.1848 6.91996 54.0479 7.04354C53.8979 7.15177 53.7557 7.27064 53.6227 7.39922C53.4788 7.53135 53.3445 7.67344 53.2206 7.82446C53.0987 7.96543 52.9877 8.11534 52.8882 8.27291C52.7722 8.41981 52.6717 8.58216 52.5711 8.73679L52.3315 9.25483C52.2595 9.42105 52.1974 9.59146 52.1459 9.76513C52.0917 9.95069 52.0377 10.1363 51.9913 10.3218C51.9449 10.5074 51.9913 10.5228 51.9913 10.6079C51.9913 10.6929 51.9913 10.7934 51.9449 10.8785C51.8985 10.9635 51.9449 11.2574 51.9449 11.4352C51.9333 11.5689 51.9333 11.7035 51.9449 11.8372C51.9461 12.0249 51.9694 12.2117 52.0145 12.3939C52.0356 12.577 52.0719 12.758 52.1227 12.9351C52.1923 13.113 52.231 13.2908 52.3006 13.4686C52.3701 13.6464 52.4088 13.6928 52.4552 13.7779L47.329 11.7986C46.4631 11.5512 45.6126 11.3269 44.7389 11.1259L43.3395 10.7934C41.9977 10.5228 40.6429 10.3215 39.2803 10.1904C39.234 10.1904 39.2108 10.1904 39.1721 10.1904C36.8723 9.96108 34.5569 9.93264 32.2521 10.1053C30.8866 10.1994 29.5267 10.362 28.1775 10.5924C27.1466 10.7625 26.1416 10.9713 25.1622 11.2187L24.1648 11.4816C23.8323 11.613 23.5153 11.7676 23.2061 11.9068L22.4329 12.2393C22.4329 12.2393 22.3478 12.2393 22.3246 12.2857L21.6984 12.5949C21.4123 12.7264 21.1262 12.8655 20.8556 13.0202L20.4072 13.2444L20.2061 13.3526C20.0051 13.4686 19.8041 13.5769 19.6263 13.6928C19.4413 13.7917 19.263 13.9028 19.0927 14.0253C18.9381 14.1335 18.7835 14.2263 18.6443 14.3346C18.6443 14.3346 18.598 14.3346 18.5825 14.381C18.434 14.4772 18.2919 14.5831 18.1572 14.698L18.1109 14.7366L17.7784 15.0072C17.732 15.0072 17.6856 15.0768 17.6469 15.0923L17.3067 15.3861C17.2891 15.4235 17.2591 15.4535 17.2217 15.4711C17.0903 15.6103 16.9511 15.7186 16.8196 15.8577C16.8196 15.8577 16.8196 15.8577 16.7732 15.8964L16.3712 16.2752C16.3712 16.2752 16.3712 16.3216 16.3248 16.3216C16.2784 16.3216 16.1006 16.5536 15.9924 16.685L15.8377 16.8087C15.7215 16.9519 15.5949 17.0863 15.4589 17.2108C15.4589 17.2572 15.3893 17.2804 15.3738 17.319C15.1883 17.5046 15.0336 17.6824 14.8558 17.8602L14.7939 17.9298C14.4336 18.3147 14.0516 18.6787 13.6497 19.02C13.2561 19.3736 12.8404 19.7016 12.4049 20.0019C11.5532 20.6223 10.632 21.1413 9.66006 21.5483C9.18734 21.7502 8.70479 21.9282 8.21423 22.0818C7.31967 22.3481 6.41108 22.5649 5.49265 22.7312C5.31482 22.7312 5.11381 22.7776 4.93598 22.7931L4.37932 22.9323L3.83804 23.1333C3.65793 23.202 3.48238 23.2821 3.31234 23.373C3.14997 23.4889 2.97213 23.574 2.8175 23.69C2.65772 23.8035 2.50776 23.9303 2.36909 24.0688C2.20874 24.1902 2.05869 24.3247 1.92059 24.4709C1.78915 24.6255 1.65773 24.7569 1.54948 24.9116C1.44124 25.0662 1.30211 25.2518 1.20933 25.4296C1.09446 25.5923 0.991103 25.7628 0.900044 25.9399C0.807769 26.1288 0.725137 26.3224 0.652576 26.5198C0.582991 26.6976 0.521129 26.8986 0.451544 27.0996C0.381958 27.3007 0.366483 27.4553 0.343288 27.6409C0.343288 27.6409 0.343288 27.6795 0.343288 27.7027C0.296898 27.9037 0.296924 28.1666 0.273729 28.3058C0.262273 28.4525 0.262273 28.5998 0.273729 28.7465C0.267689 29.1362 0.357963 29.5213 0.536581 29.8676C0.608689 30.0077 0.691455 30.1421 0.78405 30.2697C0.86975 30.4103 0.965346 30.5446 1.07012 30.6717C1.1861 30.7877 1.31753 30.9191 1.45671 31.0351C1.58699 31.1637 1.72657 31.2826 1.87425 31.3908C2.27309 31.7859 2.73248 32.1147 3.23504 32.3649C3.34959 32.4319 3.46837 32.4913 3.59067 32.5428C3.59067 32.5428 3.63703 32.5428 3.66023 32.5428C3.64928 32.5807 3.64928 32.6209 3.66023 32.6588C3.70896 33.0253 3.80512 33.384 3.9463 33.7257C4.01589 33.8649 4.06226 33.9963 4.12411 34.1278C4.13986 34.1681 4.16358 34.205 4.19377 34.236C4.28655 34.4216 4.37157 34.5762 4.45662 34.7309L4.79677 35.2025C4.90501 35.3339 5.04418 35.4886 5.17562 35.6277C5.31057 35.759 5.45256 35.8829 5.6009 35.9989C5.73178 36.1117 5.86859 36.2175 6.0107 36.3159C6.16588 36.423 6.32868 36.5186 6.49781 36.6019C6.66086 36.6982 6.83155 36.781 7.00813 36.8494C7.15294 36.9136 7.30293 36.9653 7.45653 37.004C7.45653 37.004 7.50291 37.004 7.54157 37.0504L7.82764 37.1122C7.71596 38.0267 7.74989 38.9531 7.92816 39.857C8.12145 40.3054 9.10341 38.9447 10.0853 37.3829C9.9539 38.9292 9.86112 40.7307 10.0853 41.2487C10.3096 41.7667 11.6316 40.0658 12.83 38.156C16.4294 37.2803 20.1752 37.1912 23.8121 37.8946C27.449 38.598 30.8914 40.0774 33.9047 42.2321C36.9179 44.3867 39.4311 47.1657 41.2727 50.3798C43.1144 53.5938 44.2413 57.1673 44.5766 60.8564C44.2905 58.4441 41.3215 57.1065 39.9375 57.4467C39.2135 59.4404 37.9566 61.1973 36.3036 62.5264C36.4645 61.0368 36.3888 59.5312 36.0794 58.0652C35.5848 60.1194 34.6422 62.0388 33.3191 63.6862C32.2978 63.7544 31.2754 63.57 30.3422 63.1493C29.4091 62.7286 28.5939 62.0845 27.9688 61.2739C27.876 61.212 27.8528 61.0729 27.7909 60.9878C27.7191 60.8347 27.6571 60.6772 27.6054 60.5162C27.5418 60.3678 27.4977 60.2119 27.474 60.0523C27.4621 59.8875 27.4621 59.7222 27.474 59.5574V59.225C27.5044 59.0659 27.5431 58.9084 27.59 58.7533C27.631 58.5954 27.6827 58.4404 27.7446 58.2894C27.823 58.1258 27.9135 57.9681 28.0152 57.8178C28.3863 56.7508 28.3863 55.8771 27.6981 55.3668C27.5631 55.28 27.4209 55.205 27.273 55.1426L26.9869 55.0576L26.8091 54.988C26.6548 54.9401 26.4972 54.9039 26.3374 54.8798C26.1873 54.8331 26.0307 54.8096 25.8735 54.8102C25.7111 54.8102 25.5487 54.7715 25.3786 54.7638C25.2085 54.756 25.1622 54.7638 25.0462 54.7638C24.8789 54.7641 24.7123 54.7875 24.5514 54.8333C24.3967 54.8333 24.2421 54.8797 24.0875 54.9184C23.9276 54.9644 23.7702 55.0186 23.6159 55.0808C23.4612 55.1426 23.3297 55.2122 23.1751 55.2818C23.0205 55.3514 22.9045 55.4364 22.7499 55.506C17.5542 58.8925 20.6546 66.8253 24.1957 69.1293C23.1296 69.2459 22.087 69.5221 21.1031 69.9489L21.0566 69.9953C22.0184 70.5709 23.0241 71.0698 24.0643 71.4875C25.4946 71.9591 27.0101 72.3766 27.675 72.5545C30.4928 73.1445 33.4018 73.1477 36.2209 72.564C39.04 71.9802 41.7086 70.8221 44.0604 69.1616C46.4122 67.5011 48.3966 65.374 49.8901 62.9129C51.3837 60.4517 52.3542 57.7093 52.7412 54.8566L52.8727 55.4364C52.9423 55.8385 53.0273 56.2637 53.0737 56.6812C53.0737 56.8823 53.1356 57.0833 53.1588 57.2611V57.3462C53.1851 57.541 53.2007 57.7372 53.2052 57.9338C53.2052 58.1735 53.2515 58.4209 53.2515 58.6683V59.024C53.2515 59.1322 53.2515 59.2636 53.2515 59.3796C53.2515 59.4956 53.2515 59.6502 53.2515 59.7817V60.0909C53.2515 60.2456 53.2515 60.3847 53.2515 60.5394C53.2624 60.6344 53.2624 60.7304 53.2515 60.8254C53.2515 60.9878 53.2515 61.1424 53.2515 61.3203C53.2397 61.3868 53.2397 61.4548 53.2515 61.5213L53.182 62.0316C53.1896 62.0984 53.1896 62.1658 53.182 62.2326C53.182 62.4568 53.1124 62.6579 53.0892 62.8821L52.9577 63.5083V63.5779L52.8263 64.1733C52.8281 64.2042 52.8281 64.2352 52.8263 64.2661C52.7799 64.4748 52.7335 64.6758 52.6717 64.8691V64.9387C52.6021 65.1629 52.5325 65.364 52.4861 65.565C52.4833 65.5711 52.4819 65.5777 52.4819 65.5843C52.4819 65.591 52.4833 65.5976 52.4861 65.6037L52.2851 66.2763C52.2 66.5005 52.1305 66.7015 52.0454 66.918C51.9604 67.1345 51.8908 67.3665 51.798 67.5675C51.7052 67.7685 51.6202 67.9928 51.5351 68.217C51.4501 68.418 51.3573 68.6345 51.2491 68.8355C51.2339 68.8903 51.2104 68.9425 51.1794 68.9902C51.1794 68.9902 51.1794 69.0443 51.1794 69.0597C49.703 72.0125 47.5555 74.5783 44.909 76.5518C44.7311 76.66 44.5534 76.7992 44.3755 76.9306C44.3258 76.9693 44.2742 77.0054 44.2208 77.0389C44.0585 77.1626 43.8962 77.2708 43.7338 77.3791L43.7957 77.5105L44.7312 77.3791C45.311 77.2863 45.8909 77.178 46.4708 77.0698C46.638 77.0413 46.8032 77.0026 46.9656 76.9538L47.2749 76.8842L47.7466 76.7992C47.878 76.7528 48.0094 76.7296 48.1409 76.6909C50.3508 76.1476 52.5146 75.4314 54.6123 74.5492C50.9986 79.5046 46.1715 83.4477 40.5947 86C43.1701 85.8279 45.7202 85.3847 48.2027 84.6778C57.1629 82.0504 64.7305 76.0047 69.2717 67.8459C68.3512 73.0098 66.3025 77.907 63.2718 82.1882C67.3538 79.4918 70.8274 75.9725 73.4703 71.8558C76.1132 67.739 77.8671 63.1156 78.6194 58.2817C79.3757 61.8109 79.5947 65.4342 79.2688 69.0288C95.3586 46.6068 80.5987 23.3034 74.421 17.1721C74.421 17.1257 74.421 17.1025 74.421 17.0561C74.421 17.0097 74.421 17.0561 74.421 17.1025C74.421 17.1489 74.421 17.1025 74.421 17.0561C74.421 17.3267 74.421 17.5896 74.3746 17.8293C74.3127 18.3319 74.2355 18.8267 74.1504 19.3215C74.0654 19.8164 73.9108 20.3035 73.7716 20.7983C73.6324 21.2931 73.4391 21.757 73.238 22.2209C73.037 22.6848 72.8128 23.141 72.5731 23.5817C72.0725 24.4538 71.4983 25.2816 70.8567 26.0559C70.5165 26.4579 70.1609 26.829 69.8052 27.1692C69.5964 27.3625 69.3799 27.5481 69.1557 27.7337L68.6454 28.1744C68.2473 28.4901 67.8289 28.7794 67.3929 29.0403C66.9693 29.3219 66.5304 29.5801 66.0785 29.8135C65.6145 30.03 65.143 30.231 64.6791 30.4398C63.7238 30.79 62.7374 31.0489 61.7332 31.2129C61.2229 31.3057 60.7126 31.3444 60.1869 31.3985C59.8312 31.3985 59.4756 31.4372 59.1199 31.4372C58.6096 31.4372 58.107 31.3985 57.5736 31.3444C57.0537 31.3084 56.537 31.236 56.0272 31.1279C55.5226 31.0317 55.0244 30.9052 54.535 30.749C55.0299 30.7026 55.5169 30.6563 56.0117 30.5712C57.0126 30.4034 57.996 30.1446 58.9498 29.798C59.4296 29.6142 59.8993 29.4051 60.357 29.1718C60.821 28.9475 61.2462 28.7001 61.6946 28.4372C62.1431 28.1744 62.5374 27.8574 62.9394 27.5404C63.3411 27.2348 63.7208 26.9015 64.076 26.543C64.4498 26.2001 64.801 25.8333 65.1275 25.4451C65.4599 25.0507 65.7769 24.6719 66.063 24.2466C66.1094 24.177 66.1558 24.0843 66.1944 24.0224C66.4187 23.659 66.6429 23.3034 66.8439 22.9477C67.3385 22.0628 67.7427 21.1303 68.0501 20.1643C68.2008 19.6865 68.3273 19.2014 68.4289 18.7107C68.5217 18.2004 68.6068 17.7133 68.6532 17.2185C68.6996 16.7237 68.7382 16.1979 68.7382 15.6722C68.7382 15.3165 68.7382 14.9608 68.6918 14.6052C68.6918 14.1026 68.5913 13.6078 68.514 13.113C68.4298 12.6074 68.3189 12.1067 68.1816 11.613C68.0269 11.1491 67.8723 10.6543 67.6945 10.1904C67.5166 9.72646 67.2924 9.25482 67.0681 8.80638C66.8439 8.35794 66.5733 7.91724 66.295 7.492C66.0166 7.06675 65.7151 6.66469 65.4058 6.27037C65.0965 5.87605 64.7332 5.49721 64.3775 5.12609C64.1919 4.93537 63.9987 4.74981 63.7976 4.56941C62.7925 3.79623 61.7487 3.02305 60.7049 2.38905C60.5611 2.30358 60.4112 2.22864 60.2565 2.16483C59.5971 1.75645 58.884 1.4416 58.138 1.22929L58.1226 1.26794Z" fill="url(#paint0_linear_1092_1220)"/>
</g>
<defs>
<linearGradient id="paint0_linear_1092_1220" x1="43.9147" y1="-0.00742399" x2="19.4457" y2="149.149" gradientUnits="userSpaceOnUse">
<stop stop-color="#FFE466"/>
<stop offset="1" stop-color="#BFA737"/>
</linearGradient>
<clipPath id="clip0_1092_1220">
<rect width="86.3325" height="86" fill="white" transform="translate(0.204102)"/>
</clipPath>
</defs>
</svg>
