<svg width="85" height="86" viewBox="0 0 85 86" fill="none" xmlns="http://www.w3.org/2000/svg">
<g clip-path="url(#clip0_1099_2146)">
<path d="M83.5071 52.0545C83.3819 51.0136 82.8102 50.1733 81.9829 49.5425C81.1628 48.9171 80.209 48.6517 79.185 48.6219C78.7037 48.6092 78.2222 48.6431 77.7473 48.7232C76.6339 48.907 75.534 49.169 74.4065 49.2801C73.8941 49.331 73.3838 49.41 72.8614 49.3848C72.8651 49.3559 72.8726 49.3276 72.8835 49.3007C73.1174 48.8995 73.3617 48.5041 73.5859 48.0975C74.2474 46.8959 74.9043 45.6918 75.5131 44.4613C75.8543 43.772 76.1926 43.0814 76.5154 42.3841C76.6365 42.1234 76.7584 41.863 76.8782 41.6015C77.4988 40.2439 78.082 38.8701 78.628 37.48C79.3874 35.5555 80.0709 33.6039 80.6784 31.6253C80.954 30.7232 81.2054 29.8136 81.4509 28.9022C81.6831 28.0395 81.8948 27.1727 82.0861 26.3019C82.3041 25.2962 82.4964 24.285 82.6632 23.2684C82.8595 22.0668 82.9939 20.8594 83.1017 19.6486C83.1484 19.1237 83.1693 18.5972 83.1814 18.0698C83.1985 17.3036 83.1731 16.5394 83.1142 15.774C83.0862 15.4173 83.0586 15.059 83.0152 14.7049C82.9452 14.1189 82.8365 13.5382 82.6899 12.9667C82.4256 11.9486 82.0431 10.98 81.4668 10.0968C81.0041 9.38734 80.4445 8.75398 79.8799 8.1286C79.4669 7.67103 79.0393 7.22566 78.5854 6.80426C78.1766 6.42575 77.7677 6.04388 77.3368 5.69145C76.5611 5.05912 75.7496 4.47271 74.9064 3.93519C73.7134 3.17972 72.4579 2.5295 71.1539 1.99178C70.1443 1.57554 69.1078 1.22904 68.0515 0.954676C67.233 0.737667 66.4066 0.559069 65.5723 0.418882C65.0269 0.32762 64.4803 0.244346 63.9274 0.200187C63.6071 0.174533 63.2868 0.143832 62.9669 0.116075C62.5493 0.0790659 62.1317 0.0403743 61.7141 0.031963C61.5558 -0.00378464 61.3913 0.0529907 61.2343 0H59.5222C59.3689 0.0542524 59.2081 -0.00546565 59.054 0.033226C58.502 0.0361699 57.9524 0.0883176 57.4029 0.131215C56.979 0.164019 56.5535 0.194719 56.1329 0.257383C55.3713 0.369252 54.6116 0.49584 53.8533 0.629578C52.8554 0.807098 51.8671 1.03548 50.8921 1.31383C50.6257 1.38953 50.3655 1.51486 50.0749 1.46229C49.8544 1.42023 49.6352 1.37103 49.413 1.34243C48.7244 1.25411 48.0349 1.15865 47.3451 1.09556C46.6402 1.03122 45.9319 1.0022 45.2254 0.957618C45.0644 0.937772 44.9015 0.939611 44.7409 0.963085C44.6923 0.936833 44.6374 0.924336 44.5823 0.926918C43.8686 0.926918 43.1553 0.90799 42.4412 0.950467C41.7272 0.992943 41.0051 1.06444 40.2919 1.17085C37.9116 1.52538 35.6695 2.28281 33.584 3.49696C33.5426 3.52619 33.4948 3.54492 33.4446 3.55158C33.3945 3.55824 33.3435 3.55264 33.2959 3.53524C30.8682 2.71366 28.3792 2.08868 25.8527 1.66626C23.8386 1.33486 21.8141 1.14603 19.7721 1.16159C17.545 1.17757 15.3502 1.43243 13.2079 2.06537C9.85128 3.05748 7.01957 4.85327 4.84139 7.63949C3.7974 8.97645 2.99562 10.4535 2.38467 12.0377C1.70901 13.7902 1.28181 15.6032 1.04336 17.4655C0.900123 18.5854 0.7999 19.7075 0.792801 20.8371C0.776097 21.5041 0.776097 22.1713 0.792801 22.8386C0.789244 23.7148 0.847294 24.5902 0.96652 25.4582C1.05714 26.095 1.11518 26.7376 1.22585 27.3705C1.39831 28.3609 1.56911 29.3518 1.75661 30.3397C2.08651 32.078 2.4533 33.8083 2.85697 35.5307C3.17713 36.9095 3.51775 38.2834 3.87883 39.6522C4.21666 40.9307 4.56577 42.2066 4.9437 43.473C5.47028 45.2372 6.03613 46.9897 6.66294 48.7216C7.23212 50.2936 7.84098 51.8497 8.52166 53.3763C9.09321 54.6722 9.73447 55.9358 10.4426 57.1614C10.9282 58.0015 11.4602 58.8134 12.0361 59.5935C12.4425 60.1402 12.8876 60.6503 13.3445 61.1496C13.6043 61.4279 13.8855 61.6852 14.1855 61.9192C14.8449 62.5182 15.5912 63.0123 16.3988 63.3844C17.637 63.9737 19.0175 64.1918 20.3755 64.0127C21.0678 63.9195 21.7424 63.7227 22.377 63.429C22.9635 63.1693 23.5155 62.837 24.0203 62.4398C24.1518 62.3351 24.288 62.1505 24.4195 62.1484C24.5832 62.1454 24.6609 62.3873 24.7899 62.5109C25.7032 63.3869 26.7789 63.9829 27.9636 64.3942C28.8452 64.6987 29.7539 64.8816 30.6726 65.0305C31.3325 65.1381 31.9985 65.2039 32.6666 65.2277C33.6012 65.2613 34.537 65.2083 35.462 65.0692C36.5956 64.8958 37.7036 64.5824 38.761 64.136C38.8904 64.0817 38.9084 64.096 38.9117 64.2297C38.9218 64.6625 38.9439 65.0944 38.9614 65.5267C38.9978 65.7009 38.9451 65.88 38.9919 66.0533L39.0032 66.8713C39.0387 67.0315 38.9886 67.1972 39.0328 67.3566C39.0011 67.9513 39.0721 68.543 39.0834 69.1368C39.0951 69.7559 39.1602 70.3741 39.2049 70.9928C39.2437 71.5265 39.2725 72.061 39.3302 72.5909C39.3982 73.2091 39.4939 73.8244 39.5778 74.4414C39.683 75.216 39.8221 75.9882 40.0534 76.7318C40.4213 77.9152 40.7851 79.102 41.282 80.2413C41.8875 81.6292 42.706 82.8581 43.8527 83.8582C44.6839 84.5847 45.6487 85.1397 46.6924 85.4916C48.0157 85.9416 49.3754 86.0669 50.7643 85.9685C51.5492 85.9084 52.3288 85.7916 53.097 85.619C55.0146 85.1985 56.8859 84.6543 58.5972 83.6483C59.3071 83.2307 59.9782 82.7584 60.5757 82.1936C61.0973 81.7007 61.5988 81.1842 62.0315 80.6051C62.7707 79.6147 63.3855 78.5361 63.8618 77.3937C64.3908 76.1188 64.8052 74.7987 65.1 73.4493C65.3489 72.3314 65.5508 71.2064 65.7059 70.0743C65.7973 69.4085 65.8608 68.7382 65.9272 68.0686C65.9882 67.458 66.0366 66.8465 66.0805 66.2354C66.1047 65.8989 66.1222 65.5566 66.136 65.2176C66.159 64.6562 66.2062 64.0952 66.2141 63.5324C66.2484 63.3579 66.2053 63.1796 66.2392 63.0051C66.2709 62.6344 66.3024 62.2639 66.3335 61.8935C66.3456 61.7543 66.4304 61.7215 66.5474 61.7522C66.7979 61.817 67.0556 61.8136 67.3053 61.8203C68.3798 61.8461 69.4548 61.798 70.5229 61.6765C71.5028 61.5741 72.4762 61.4163 73.4385 61.2038C74.4658 60.9708 75.4743 60.6773 76.4364 60.2365C76.5496 60.1945 76.6661 60.157 76.7747 60.104C78.3407 59.3395 79.8281 58.4554 81.139 57.2863C81.7883 56.7112 82.3598 56.0527 82.839 55.3277C83.5017 54.3201 83.6462 53.2014 83.5071 52.0545Z" fill="url(#paint0_linear_1099_2146)"/>
<path d="M75.0065 40.4647C74.709 40.9984 74.482 41.5626 74.2068 42.107C73.7474 43.0149 73.2954 43.926 72.8102 44.8215C72.0938 46.1489 71.3481 47.4603 70.5468 48.7402C70.1685 49.3437 69.801 49.953 69.3917 50.5377C69.2483 50.743 69.2595 50.7689 69.5069 50.9023C69.8777 51.0957 70.2755 51.2331 70.6872 51.31C71.4848 51.471 72.2935 51.5047 73.106 51.4669C73.2717 51.4258 73.4449 51.4809 73.6111 51.4361C74.3092 51.4308 74.9965 51.3252 75.6876 51.2378C76.566 51.1269 77.4277 50.9405 78.2978 50.7861C78.4813 50.7537 78.6707 50.7085 78.8642 50.7352C79.0816 50.7001 79.3034 50.7001 79.5209 50.7352C80.2525 50.7808 80.8781 51.0226 81.2282 51.7104C81.4694 52.1838 81.4503 52.6872 81.2556 53.1684C80.9312 53.9699 80.3213 54.5513 79.6812 55.1109C79.1505 55.5681 78.5837 55.9825 77.9862 56.3501C76.9948 56.9725 75.9635 57.5174 74.8424 57.8783C74.2748 58.0902 73.6852 58.2265 73.0957 58.3591C72.6068 58.4691 72.1142 58.5644 71.619 58.6441C71.2321 58.7056 70.8385 58.7262 70.449 58.7742C69.9684 58.8379 69.4837 58.8653 68.9989 58.8563C68.9301 58.8543 68.8775 58.9229 68.8046 58.8945C68.4827 58.8721 68.1595 58.8721 67.8376 58.8945C66.9261 58.8506 66.0146 58.7758 65.1342 58.5164C64.9995 58.4753 64.995 58.4983 64.9801 58.6174C64.9258 59.0551 64.8794 59.494 64.8297 59.9313C64.782 60.3501 64.7385 60.7713 64.6896 61.1905C64.6428 61.5872 64.6122 61.9871 64.5351 62.3813C64.4816 62.6564 64.4808 62.9413 64.4468 63.2205C64.4 63.6048 64.3428 63.9875 64.2927 64.3702C64.2587 64.6284 64.2314 64.8879 64.197 65.1466C64.1448 65.5363 64.0727 65.9239 64.0404 66.3152C64.011 66.6822 63.9443 67.044 63.9082 67.4102C63.8743 67.7551 63.8208 68.0988 63.7723 68.4424C63.7239 68.7861 63.6696 69.1404 63.6174 69.4894C63.5652 69.8384 63.5345 70.1875 63.4628 70.5356C63.3999 70.8415 63.3709 71.1548 63.3282 71.4648C63.2607 71.9514 63.1674 72.4338 63.09 72.9183C62.9938 73.5124 62.8653 74.101 62.7051 74.6814C62.5219 75.3611 62.2881 76.0265 62.0057 76.6719C61.657 77.4501 61.2033 78.1777 60.6571 78.8349C60.0439 79.5802 59.2957 80.1788 58.4679 80.6773C57.5294 81.2427 56.5206 81.6553 55.4732 81.9694C54.6997 82.2047 53.9128 82.3941 53.1166 82.5364C52.5088 82.6424 51.9006 82.729 51.2832 82.7438C50.9779 82.7926 50.6688 82.7343 50.363 82.775C50.1488 82.6847 49.9181 82.7339 49.6964 82.7064C48.9287 82.6159 48.1768 82.4226 47.4616 82.1316C46.3744 81.6906 45.4571 81.0094 44.6824 80.146C43.925 79.3018 43.3615 78.3311 42.9062 77.296C42.6398 76.6916 42.3784 76.0864 42.2433 75.4381C42.1552 75.0138 42.0788 74.5875 42.0142 74.1591C41.9359 73.6418 41.8601 73.1236 41.8112 72.603C41.7784 72.2544 41.7478 71.905 41.725 71.5551C41.6786 70.8391 41.6239 70.123 41.585 69.4061C41.5634 69.0086 41.585 68.6083 41.5261 68.2129C41.5378 68.0625 41.5356 67.9113 41.5195 67.7613C41.5398 67.556 41.4366 67.354 41.4855 67.1454C41.488 66.9676 41.5021 66.7894 41.4781 66.6116C41.4727 66.4753 41.4677 66.3386 41.4623 66.201C41.4325 66.0269 41.4561 65.8512 41.4486 65.6767C41.442 65.4546 41.4623 65.2324 41.4375 65.0107C41.4147 64.7475 41.4561 64.4819 41.3935 64.2199C41.3824 64.1808 41.3796 64.1399 41.3852 64.0997C41.3909 64.0595 41.4048 64.0209 41.4263 63.9863C41.3848 63.5929 41.4188 63.1983 41.4072 62.8046C41.4072 61.7596 41.4072 60.7143 41.4039 59.6693C41.4039 59.5999 41.4619 59.5001 41.3442 59.4583C40.5471 60.13 39.6978 60.7225 38.7457 61.1626C37.9452 61.5379 37.0998 61.811 36.2299 61.9752C35.5965 62.0918 34.963 62.1838 34.3179 62.1862C33.9831 62.222 33.6467 62.1838 33.3115 62.2059C32.9316 62.1821 32.5492 62.1768 32.1721 62.1296C31.6636 62.0716 31.1583 61.9883 30.6582 61.8799C30.1379 61.7609 29.6142 61.6397 29.1162 61.4377C28.4222 61.1561 27.7618 60.8218 27.2103 60.3049C26.6812 59.8122 26.3626 59.2312 26.4401 58.486C26.4948 57.9596 26.7595 57.5461 27.1548 57.2086C27.872 56.596 28.7528 56.3365 29.6432 56.1156C30.4034 55.9268 31.1823 55.8081 31.9385 55.6048C32.741 55.3897 33.5605 55.1897 34.235 54.6605C34.6274 54.3542 34.9091 53.9461 35.2248 53.5695C35.4958 53.2464 35.7539 52.9126 36.0224 52.5866C36.0688 52.5299 36.1139 52.4765 36.0862 52.4063C36.0559 52.3287 35.9784 52.3718 35.9233 52.3686C34.6903 52.2963 33.4975 52.0467 32.3573 51.5704C32.0818 51.4554 31.8117 51.324 31.5469 51.1865C31.4106 51.115 31.3232 51.136 31.23 51.2493C30.8509 51.7108 30.4212 52.1275 30.0189 52.5681C29.695 52.9233 29.3726 53.2813 29.0403 53.6303C28.7429 53.9428 28.4719 54.2803 28.1839 54.6026C27.932 54.8847 27.6677 55.1557 27.4183 55.4402C27.108 55.7937 26.8142 56.162 26.5006 56.5123C26.3075 56.7286 26.1182 56.9471 25.9292 57.1672C25.6409 57.5022 25.3551 57.8394 25.072 58.1788C24.7277 58.5898 24.3596 58.9807 23.9695 59.3494C23.2089 60.0741 22.3483 60.6354 21.3229 60.9138C20.2975 61.1922 19.2845 61.1216 18.2984 60.7044C17.7538 60.4738 17.2432 60.1713 16.7803 59.8052C16.7663 59.7941 16.7389 59.7974 16.7211 59.7937C16.5032 59.5999 16.2778 59.4139 16.0694 59.2107C15.8154 58.9643 15.5631 58.7102 15.3319 58.4416C14.7343 57.7392 14.1888 56.9948 13.6999 56.2142C13.2711 55.5383 12.8841 54.8395 12.505 54.1353C12.0079 53.2082 11.5666 52.2528 11.1457 51.2908C10.6986 50.2704 10.2889 49.2341 9.90273 48.1891C9.48593 47.0633 9.08528 45.9309 8.71571 44.7911C8.42569 43.8902 8.13236 42.989 7.86098 42.0812C7.63187 41.3154 7.4359 40.5398 7.21755 39.7708C6.83266 38.4158 6.49374 37.051 6.16229 35.6833C5.95886 34.8441 5.75792 34.0048 5.58225 33.1598C5.39664 32.275 5.1841 31.3943 5.00636 30.5094C4.84933 29.7252 4.72421 28.9348 4.585 28.1473C4.48846 27.602 4.36375 27.06 4.30409 26.5107C4.25065 26.018 4.16654 25.5281 4.12097 25.0325C4.07249 24.5082 4.04142 23.9835 4.00537 23.4587C4.00594 23.4248 4.00899 23.3909 4.01449 23.3573C4.02807 23.1796 4.02655 23.001 4.00993 22.8236C4.00993 22.3998 4.00993 21.9755 4.00993 21.5507C4.0247 21.3457 4.02664 21.14 4.01573 20.9348C4.04515 20.5928 4.0265 20.2479 4.07954 19.9083C4.10978 19.7154 4.10357 19.5179 4.12097 19.322C4.17524 18.6733 4.26888 18.0315 4.37328 17.389C4.54253 16.3531 4.79298 15.3319 5.12236 14.3346C5.60338 12.8733 6.2638 11.4953 7.16742 10.2459C8.24853 8.73788 9.64394 7.47767 11.2592 6.55055C12.0478 6.09986 12.8761 5.72111 13.7339 5.41895C14.4514 5.16054 15.1859 4.95119 15.9322 4.79239C16.5952 4.65484 17.2639 4.55014 17.9388 4.47172C19.1701 4.32883 20.4031 4.29968 21.6403 4.3276C21.7948 4.36127 21.9539 4.3161 22.108 4.35347C22.4954 4.36086 22.8803 4.41998 23.2648 4.43271C23.6277 4.44462 23.984 4.49553 24.342 4.5255C24.7797 4.55958 25.2154 4.61535 25.6475 4.69262C26.1033 4.77474 26.5623 4.83427 27.0148 4.92624C27.5065 5.0256 28.0004 5.11635 28.4926 5.21366C29.0901 5.33437 29.6829 5.47151 30.2704 5.63041C30.8766 5.79465 31.4848 5.95231 32.0851 6.13544C32.8147 6.35839 33.5448 6.58298 34.2578 6.85561C34.3092 6.87972 34.3664 6.88915 34.4229 6.88284C34.4794 6.87653 34.533 6.85473 34.5777 6.81989C35.9134 5.92234 37.3718 5.27853 38.9147 4.82893C39.7561 4.58619 40.616 4.41166 41.4859 4.30707C42.1836 4.22126 42.8809 4.14283 43.5857 4.15392C43.9938 4.10383 44.4035 4.14612 44.8125 4.13216C44.9683 4.13832 45.1249 4.1182 45.2802 4.14489C45.736 4.21633 46.1954 4.17322 46.6475 4.23645C47.2544 4.32103 47.8651 4.37194 48.4705 4.47541C49.1201 4.58627 49.7693 4.69056 50.4086 4.85069C50.5223 4.87358 50.6403 4.86081 50.7463 4.81415C51.5749 4.49717 52.4363 4.29516 53.2943 4.08823C54.0633 3.90223 54.8443 3.7577 55.6257 3.63083C56.2418 3.53105 56.8686 3.4863 57.4901 3.41568C58.0382 3.35285 58.5888 3.32 59.1395 3.28387C59.4469 3.26375 59.7547 3.27279 60.0609 3.24774C60.5714 3.21739 61.0833 3.21739 61.5939 3.24774C61.9846 3.24117 62.3761 3.2732 62.7622 3.30481C63.3895 3.35614 64.0184 3.40007 64.6445 3.48835C65.452 3.60167 66.2553 3.7347 67.0475 3.91577C68.4263 4.22823 69.7734 4.66529 71.0717 5.22146C73.2148 6.14315 75.1889 7.41059 76.9136 8.97222C77.4651 9.46507 77.989 9.98744 78.483 10.537C79.0966 11.2301 79.7313 11.9121 80.1142 12.7731C80.4269 13.4848 80.6467 14.2332 80.7683 15.0001C80.8864 15.7142 80.9378 16.429 80.9788 17.1496C81.0053 17.6193 80.9983 18.087 81.0037 18.5559C80.966 18.6897 81.0248 18.8314 80.9705 18.9636C80.9428 19.4629 80.9399 19.9646 80.8819 20.4602C80.8081 21.0892 80.7331 21.7187 80.6457 22.3464C80.5368 23.129 80.4017 23.9067 80.2592 24.6827C80.1195 25.4411 79.9468 26.1945 79.7595 26.9434C79.5005 27.9781 79.2362 29.0128 78.9338 30.0356C78.6098 31.1305 78.2575 32.2176 77.8769 33.2969C77.3797 34.7176 76.8448 36.1247 76.2668 37.5154C75.9399 38.3013 75.5998 39.081 75.258 39.8603C75.173 40.0647 75.0351 40.2413 75.0065 40.4647Z" fill="white"/>
<path d="M27.6553 25.3672C27.7341 24.3972 27.8513 23.467 28.0023 22.5406C28.3431 20.4452 28.8688 18.3996 29.6639 16.4278C30.5634 14.1935 31.7641 12.1467 33.4802 10.4298C35.4401 8.46865 37.8006 7.27037 40.5194 6.75094C42.3295 6.40534 44.1504 6.38928 45.9787 6.54251C48.7634 6.77648 51.4202 7.4821 53.9347 8.70303C56.4327 9.91572 58.622 11.5523 60.534 13.5575C62.9755 16.1188 64.8719 19.0323 66.1658 22.3314C66.2335 22.5032 66.2925 22.6782 66.3544 22.8525C66.3581 22.8632 66.3494 22.878 66.3428 22.9068C66.0243 22.8838 65.7041 22.8566 65.3831 22.8385C63.9509 22.7561 62.5253 22.7882 61.1261 23.1478C59.6989 23.5152 58.4553 24.1821 57.5541 25.387C56.8828 26.2842 56.5408 27.3086 56.4244 28.4117C56.2362 30.1962 56.5626 31.9213 57.0619 33.6221C57.7468 35.9581 58.7594 38.1594 59.859 40.3236C60.697 41.9713 61.6353 43.5691 62.5026 45.2028C62.7337 45.6378 62.9152 46.0987 63.1331 46.5407C63.7108 47.7167 64.4828 48.7651 65.3039 49.7817C65.4809 50.0004 65.6476 50.2274 65.8246 50.4457C65.905 50.545 65.8931 50.5816 65.7664 50.6187C65.1966 50.7835 64.6556 51.0154 64.1762 51.3725C63.2466 52.0654 62.7543 53.0202 62.5286 54.1324C62.4205 54.6499 62.3744 55.1784 62.3912 55.7067C62.4209 56.5067 62.3013 57.2943 62.2183 58.0843C62.097 59.2377 61.9613 60.387 61.8247 61.537C61.6726 62.817 61.5155 64.096 61.3535 65.3741C61.1864 66.6794 61.0205 67.9848 60.8319 69.2873C60.5761 71.0561 60.3876 72.8376 59.8895 74.5632C59.5136 75.8648 58.9496 77.0639 57.9474 78.0155C57.0475 78.8702 55.961 79.3995 54.7995 79.7867C53.6062 80.1867 52.3894 80.4965 51.1306 80.5949C49.6286 80.7123 48.196 80.5076 46.9384 79.5923C46.0562 78.9505 45.4592 78.0822 44.9517 77.134C44.3294 75.9719 44.0286 74.7263 43.8846 73.4267C43.5108 70.0489 43.4225 66.6539 43.3804 63.258C43.3495 60.7124 43.3862 58.1675 43.4415 55.6227C43.4778 53.9412 42.8304 52.5605 41.5303 51.5113C40.7841 50.8994 39.8407 50.5785 38.8755 50.6084C38.6853 50.6125 38.4959 50.6529 38.2883 50.6784C38.3214 50.4313 38.4006 50.2035 38.4732 49.9736C39.0533 48.1435 39.7709 46.3677 40.566 44.6207C41.3768 42.8396 41.9342 40.981 42.188 39.038C42.3844 37.5374 42.4104 36.031 42.3283 34.5205C42.2115 32.3723 41.8744 30.2559 41.4094 28.1588C41.142 26.9539 40.6398 25.8619 39.7667 24.9644C38.859 24.0289 37.7334 23.5119 36.4588 23.3064C34.7452 23.0304 33.0799 23.2982 31.4373 23.7809C30.207 24.1456 29.0179 24.6363 27.8888 25.2453C27.8224 25.2807 27.756 25.3166 27.6553 25.3672Z" fill="url(#paint1_linear_1099_2146)"/>
<path d="M6.15527 22.1916C6.16932 19.9159 6.3677 17.6644 7.012 15.4698C7.51951 13.742 8.27913 12.1446 9.43838 10.7561C10.9121 8.99055 12.7963 7.86375 14.971 7.20295C17.1357 6.54589 19.3575 6.38059 21.6045 6.47404C25.098 6.6194 28.4824 7.34873 31.8056 8.40493C31.9296 8.44646 32.0316 8.45809 31.8775 8.6126C29.7379 10.7748 28.2906 13.3653 27.2529 16.2062C26.442 18.4257 25.9204 20.7155 25.5997 23.0555C25.3714 24.6714 25.2562 26.3014 25.2551 27.9336C25.2571 28.7343 25.3336 29.5351 25.379 30.3363C25.4572 31.7738 25.4687 33.2117 25.4266 34.6504C25.379 36.2702 25.1517 37.8726 25.0133 39.4832C24.6653 43.5535 25.9399 47.0348 28.9171 49.8541C29.1445 50.0693 29.1515 50.0672 28.9312 50.3056C26.7668 52.6469 24.6744 55.0529 22.6307 57.5C22.2566 57.9534 21.8166 58.3474 21.3256 58.6688C20.4234 59.2536 19.5113 59.2777 18.5839 58.7319C17.8234 58.2842 17.22 57.6641 16.6687 56.9846C15.6434 55.7174 14.8449 54.3078 14.1246 52.8512C12.6136 49.7948 11.473 46.5925 10.4604 43.34C9.11023 39.0239 8.0357 34.6342 7.15335 30.1988C6.82851 28.5665 6.54459 26.9264 6.32679 25.2754C6.19206 24.2508 6.16726 23.222 6.15527 22.1916Z" fill="url(#paint2_linear_1099_2146)"/>
<path d="M67.6211 48.375C67.2033 47.9424 67.202 47.9415 67.4765 47.4423C68.4133 45.7373 68.8971 43.9055 69.0242 41.9649C69.1248 40.4338 68.9973 38.9142 68.8303 37.3951C68.6711 35.9467 68.4515 34.5032 68.4324 33.0416C68.4169 31.8601 68.5415 30.6905 68.7146 29.525C68.9488 27.9483 69.229 26.3753 69.1915 24.7718C69.1818 24.3412 69.2791 23.9148 69.2017 23.4822C69.0046 22.3841 68.6185 21.3482 68.177 20.3332C66.5906 16.6835 64.3668 13.4843 61.5056 10.7355C59.5015 8.81202 57.1917 7.24222 54.6724 6.09171C54.6366 6.07526 54.6011 6.05716 54.5303 6.02262C55.0939 5.89225 55.6299 5.80465 56.1651 5.72241C57.9353 5.44629 59.7269 5.33437 61.5174 5.38806C65.1571 5.50485 68.6136 6.31625 71.7858 8.18455C73.8792 9.41829 75.6549 11.0222 77.1422 12.9472C77.5902 13.5283 77.7898 14.2221 77.9295 14.9286C78.2178 16.391 78.224 17.869 78.1152 19.3479C77.7629 24.1278 76.5269 28.7046 74.9438 33.1954C73.0877 38.4634 70.6624 43.5089 67.7119 48.2405C67.6838 48.2853 67.6521 48.3289 67.6211 48.375Z" fill="url(#paint3_linear_1099_2146)"/>
<path d="M39.4772 35.9759C39.5082 37.9745 39.3054 39.938 38.7517 41.8521C38.4115 43.0317 37.9323 44.1487 37.4776 45.2781C36.809 46.9383 36.2217 48.632 35.7788 50.3809C35.7353 50.5537 35.6364 50.5251 35.5333 50.5205C33.8681 50.4468 32.3766 49.846 31.0738 48.7269C29.1998 47.1165 28.1241 44.9981 27.7518 42.4459C27.5838 41.2878 27.6579 40.1377 27.8 38.9846C28.0546 36.916 28.1322 34.8361 28.1134 32.7508C28.1012 31.4051 28.0371 30.0619 27.955 28.7199C27.9458 28.5728 27.9821 28.4792 28.0932 28.3914C29.1715 27.5399 30.3667 26.9412 31.6206 26.4739C32.7501 26.0521 33.9036 25.7695 35.1087 25.8027C35.8975 25.8255 36.6497 25.992 37.3042 26.5025C38.0232 27.0635 38.3974 27.8697 38.596 28.7746C38.9308 30.3167 39.1745 31.8805 39.3256 33.4564C39.4112 34.2954 39.4589 35.1344 39.4772 35.9759Z" fill="url(#paint4_linear_1099_2146)"/>
<path d="M65.242 46.225C65.1511 46.035 65.0505 45.8543 64.9748 45.6622C64.4264 44.2643 63.7084 42.9627 63.0385 41.6338C61.8856 39.3472 60.7907 37.0299 59.9473 34.5826C59.4595 33.1664 59.058 31.7242 58.8927 30.216C58.8073 29.438 58.7975 28.6609 58.9377 27.8859C59.1814 26.5379 59.9261 25.6704 61.0923 25.2018C61.8652 24.8916 62.6714 24.7757 63.4882 24.7378C64.3767 24.6952 65.2612 24.7642 66.1446 24.8656C66.2978 24.8831 66.3616 24.9278 66.3546 25.1212C66.3154 26.2149 66.17 27.2941 66.0149 28.3737C65.7826 29.9868 65.5864 31.6037 65.6153 33.241C65.6369 34.4407 65.7689 35.6316 65.899 36.8198C66.0686 38.3694 66.2515 39.9185 66.2222 41.4834C66.1928 43.0483 65.9538 44.557 65.3697 45.9928C65.3436 46.0575 65.3163 46.1219 65.2878 46.1858C65.2831 46.1977 65.271 46.2028 65.242 46.225Z" fill="url(#paint5_linear_1099_2146)"/>
<path d="M28.7305 59.0317C29.2471 58.7936 29.749 58.6625 30.257 58.5476C31.3471 58.3016 32.4388 58.0674 33.5047 57.7206C34.8139 57.2955 35.8992 56.5565 36.7417 55.4395C37.2531 54.7608 37.7749 54.0887 38.3345 53.4497C38.5265 53.2296 38.7241 53.0192 38.9639 52.8533C39.23 52.6693 39.5068 52.6301 39.8206 52.7248C40.8564 53.0373 41.3541 53.8172 41.5827 54.8264C41.7118 55.395 41.5749 55.8981 41.2245 56.3703C39.8469 58.2259 38.0982 59.4864 35.8497 59.9749C34.544 60.2584 33.2309 60.2584 31.9162 60.063C31.1086 59.9433 30.3052 59.7945 29.545 59.4719C29.2592 59.3547 28.9862 59.2072 28.7305 59.0317Z" fill="url(#paint6_linear_1099_2146)"/>
<path d="M78.1803 53.3491C77.5537 53.9708 76.8969 54.4455 76.2215 54.8972C74.7502 55.8819 73.1352 56.4069 71.443 56.6961C70.2024 56.9085 68.9549 57.0154 67.6996 56.961C67.0152 56.9319 66.3349 56.8626 65.6814 56.6175C65.2827 56.4678 65.2847 56.4656 65.2806 56.0223C65.2758 55.4483 65.3181 54.8787 65.4788 54.3249C65.6652 53.6834 66.0456 53.2484 66.6307 53.0316C66.9631 52.9084 67.3008 52.802 67.6365 52.6881C67.6679 52.6754 67.7018 52.6719 67.7348 52.6779C67.7678 52.684 67.7987 52.6994 67.8245 52.7225C68.7888 53.5058 69.9078 53.8171 71.0796 53.9589C72.9896 54.1916 74.8784 53.9686 76.7606 53.6282C77.2176 53.5465 77.6753 53.4493 78.1803 53.3491Z" fill="url(#paint7_linear_1099_2146)"/>
<path d="M35.7255 26.875C36.4428 26.8915 37.0838 26.9749 37.6813 27.2059C37.8335 27.2622 37.9743 27.3353 38.0992 27.4228C38.4583 27.6825 38.5021 27.9728 38.228 28.2871C37.639 28.9638 36.4107 29.2213 35.4599 28.8642C34.9447 28.6736 34.519 28.365 34.2413 27.9809C34.0845 27.7683 34.0882 27.5473 34.1304 27.3176C34.1422 27.2552 34.2145 27.2608 34.2523 27.2318C34.6828 26.9062 35.234 26.8953 35.7255 26.875Z" fill="white"/>
<path d="M62.4126 29.0248C61.9416 28.981 61.4983 28.6364 61.158 27.9715C60.8878 27.4429 60.9268 26.9696 61.2694 26.5692C61.6447 26.1315 62.081 25.9606 62.5287 25.8578C62.8879 25.775 63.2478 25.7723 63.6041 25.9086C63.7236 25.949 63.8383 26.0201 63.944 26.1191C64.1885 26.3604 64.2592 26.6731 64.1658 27.1064C63.9463 28.1289 63.1428 29.0405 62.4126 29.0248Z" fill="white"/>
</g>
<defs>
<linearGradient id="paint0_linear_1099_2146" x1="42.6609" y1="0.00807651" x2="-8.3042" y2="298.142" gradientUnits="userSpaceOnUse">
<stop stop-color="#FFE466"/>
<stop offset="1" stop-color="#BFA737"/>
</linearGradient>
<linearGradient id="paint1_linear_1099_2146" x1="47.2358" y1="6.45692" x2="-28.6765" y2="247.172" gradientUnits="userSpaceOnUse">
<stop stop-color="#FFE466"/>
<stop offset="1" stop-color="#BFA737"/>
</linearGradient>
<linearGradient id="paint2_linear_1099_2146" x1="19.209" y1="6.4549" x2="-37.5244" y2="175.34" gradientUnits="userSpaceOnUse">
<stop stop-color="#FFE466"/>
<stop offset="1" stop-color="#BFA737"/>
</linearGradient>
<linearGradient id="paint3_linear_1099_2146" x1="66.4962" y1="5.37904" x2="24.3687" y2="146.199" gradientUnits="userSpaceOnUse">
<stop stop-color="#FFE466"/>
<stop offset="1" stop-color="#BFA737"/>
</linearGradient>
<linearGradient id="paint4_linear_1099_2146" x1="33.6382" y1="25.8024" x2="6.50035" y2="104.684" gradientUnits="userSpaceOnUse">
<stop stop-color="#FFE466"/>
<stop offset="1" stop-color="#BFA737"/>
</linearGradient>
<linearGradient id="paint5_linear_1099_2146" x1="62.6374" y1="24.727" x2="33.1022" y2="87.5539" gradientUnits="userSpaceOnUse">
<stop stop-color="#FFE466"/>
<stop offset="1" stop-color="#BFA737"/>
</linearGradient>
<linearGradient id="paint6_linear_1099_2146" x1="35.2573" y1="52.6758" x2="32.7039" y2="79.2797" gradientUnits="userSpaceOnUse">
<stop stop-color="#FFE466"/>
<stop offset="1" stop-color="#BFA737"/>
</linearGradient>
<linearGradient id="paint7_linear_1099_2146" x1="71.8071" y1="52.6755" x2="70.9682" y2="67.9718" gradientUnits="userSpaceOnUse">
<stop stop-color="#FFE466"/>
<stop offset="1" stop-color="#BFA737"/>
</linearGradient>
<clipPath id="clip0_1099_2146">
<rect width="83.382" height="86" fill="white" transform="translate(0.780273)"/>
</clipPath>
</defs>
</svg>
