<svg width="84" height="97" viewBox="0 0 84 97" fill="none" xmlns="http://www.w3.org/2000/svg">
<g clip-path="url(#clip0_1076_1144)">
<path d="M72.6041 77.9464V76.5535C72.6041 62.0507 72.6094 47.5493 72.6199 33.0492C72.6199 32.2533 72.3904 31.8155 71.7175 31.3976C62.1217 25.4277 52.5384 19.4407 42.9676 13.4363C42.3917 13.0761 41.9959 13.0383 41.3982 13.4124C31.8011 19.4407 22.1907 25.4457 12.5672 31.4274C11.92 31.8254 11.7023 32.2473 11.7043 32.9995C11.7281 47.5022 11.7334 62.0036 11.7202 76.5037V77.8111C11.4642 77.7144 11.2138 77.6034 10.9701 77.4788C7.76797 75.5784 4.57969 73.6621 1.36569 71.7836C0.841239 71.4771 0.661133 71.1388 0.661133 70.5339C0.679604 55.8348 0.679604 41.1351 0.661133 26.4347C0.661133 25.8138 0.890689 25.4994 1.38743 25.189C14.7646 16.8829 28.1339 8.5636 41.4952 0.23103C41.9702 -0.0634818 42.3185 -0.1013 42.8152 0.209132C56.2029 8.56691 69.5999 16.9041 83.0061 25.2208C83.2218 25.3309 83.3997 25.5035 83.5169 25.7164C83.634 25.9292 83.6849 26.1725 83.6631 26.4148C83.6473 41.1404 83.6374 55.8726 83.6334 70.6115C83.6334 70.9458 83.4672 71.4393 83.2178 71.5905C79.7604 73.6979 76.2772 75.7575 72.6041 77.9464Z" fill="url(#paint0_linear_1076_1144)"/>
<path d="M35.5438 29.9088V31.1824C35.5438 48.0306 35.5372 64.8788 35.524 81.727C35.524 82.6245 35.7576 83.1618 36.567 83.5976C38.2472 84.505 39.874 85.5099 41.4989 86.5128C41.9778 86.8074 42.332 86.8352 42.8288 86.5268C44.505 85.4801 46.1932 84.4592 47.9249 83.5001C48.5898 83.1279 48.8055 82.7041 48.8036 81.934C48.7825 66.3102 48.7772 50.6872 48.7877 35.0647V29.877C49.1835 30.0899 49.4468 30.2113 49.6902 30.3585C53.3495 32.5793 57.0008 34.814 60.672 37.0169C61.1945 37.3293 61.3607 37.6835 61.3607 38.2825C61.3423 53.6409 61.3423 68.9993 61.3607 84.3577C61.3808 84.6143 61.3245 84.871 61.1991 85.0953C61.0736 85.3196 60.8846 85.5013 60.6562 85.6174C54.7282 89.3067 48.8115 93.0147 42.9059 96.7412C42.3538 97.0894 41.9758 97.0854 41.4216 96.7412C35.5188 93.0107 29.602 89.3014 23.6714 85.6134C23.1747 85.303 22.9609 84.9746 22.9629 84.3617C22.9814 69.002 22.9933 53.6429 22.9986 38.2845C22.9986 37.9064 23.2222 37.3572 23.5171 37.1741C27.3188 34.806 31.1523 32.4898 34.9798 30.1635C35.1632 30.0688 35.3515 29.9838 35.5438 29.9088Z" fill="url(#paint1_linear_1076_1144)"/>
</g>
<defs>
<linearGradient id="paint0_linear_1076_1144" x1="42.6591" y1="-1.44494e-06" x2="25.0773" y2="113.783" gradientUnits="userSpaceOnUse">
<stop stop-color="#FFE466"/>
<stop offset="1" stop-color="#BFA737"/>
</linearGradient>
<linearGradient id="paint1_linear_1076_1144" x1="42.6588" y1="-1" x2="-15.6261" y2="67.1576" gradientUnits="userSpaceOnUse">
<stop stop-color="#FFE466"/>
<stop offset="1" stop-color="#BFA737"/>
</linearGradient>
<clipPath id="clip0_1076_1144">
<rect width="83" height="97" fill="white" transform="translate(0.65918)"/>
</clipPath>
</defs>
</svg>
