<svg width="89" height="86" viewBox="0 0 89 86" fill="none" xmlns="http://www.w3.org/2000/svg">
<g clip-path="url(#clip0_1098_1586)">
<path d="M72.2882 70.8883C72.9215 72.4164 74.1155 73.2326 75.3353 73.9853C77.6478 75.4122 80.0889 76.6606 82.0236 78.618C83.8081 80.4237 85.5504 82.2717 87.2503 84.1621C87.6659 84.6246 87.8382 85.3063 88.0196 86C87.8238 85.8839 87.6365 85.754 87.4589 85.6116C84.5236 82.9 81.1107 80.9623 77.5058 79.283C74.2244 77.758 71.1954 75.784 68.9992 72.8079C68.3508 71.9282 67.8777 70.9079 67.4031 69.9149C67.1189 69.3194 67.6494 69.008 68.0832 68.8675C70.024 68.2629 71.9526 67.5494 73.9432 67.1927C75.961 66.83 78.0454 66.8345 80.101 66.6894C80.4743 66.6622 80.8567 66.6894 81.4054 66.6894C81.1711 66.3085 81.0562 66.0062 80.8461 65.8007C80.4675 65.4323 80.0585 65.0966 79.6234 64.7971C77.9879 63.668 76.2845 62.6266 74.7035 61.428C71.6594 59.1199 68.2238 57.6583 64.5766 56.7061C62.2157 56.0894 60.4956 54.8561 59.4693 52.6478C58.307 50.1644 57.0842 47.7098 55.9491 45.2143C54.3454 41.6911 52.8853 38.0983 51.2 34.6144C49.0842 30.2851 46.3455 26.2892 43.0713 22.7538C38.2845 17.5347 32.7691 13.2995 26.2244 10.4927C24.5315 9.76719 22.8115 9.16563 20.9191 9.15354C19.5097 9.14945 18.1025 9.04439 16.7081 8.83916C16.1035 8.74998 15.4808 8.36909 15.0168 7.95343C12.4186 5.62727 9.27318 4.38181 6.04618 3.26786C5.5227 3.09515 4.96513 3.05208 4.42134 3.14239C3.16228 3.36004 2.47304 4.42111 2.97787 5.58646C3.54367 6.89641 4.25664 8.13775 5.10302 9.28655C7.15561 12.0571 9.38805 14.7052 10.5005 18.0531C11.1912 20.1284 11.7732 22.246 12.5848 24.2713C13.3194 26.1063 14.2474 27.8701 15.1967 29.6114C15.5458 30.2553 16.1459 30.7782 16.687 31.2997C17.6861 32.2595 18.0957 33.3644 17.6709 34.7156C17.3173 35.8417 16.9968 36.9828 16.5691 38.0832C15.1725 41.6699 14.9987 45.3882 15.3176 49.1593C15.5416 51.7227 16.2327 54.2236 17.3566 56.5383C17.8191 57.5027 18.336 58.4186 19.3351 58.9401C20.1347 59.3588 20.3281 59.2424 20.4385 58.3566C20.6712 56.4869 20.9176 54.6172 21.1942 52.7521C21.5932 50.0949 23.0835 48.0348 24.9427 46.0774C28.3722 54.7351 32.5771 62.8745 39.3758 69.528C38.9857 69.2926 38.6097 69.0347 38.2497 68.7556C36.1477 66.9146 34.0538 65.0656 31.968 63.2085C29.1446 60.7055 27.1313 57.6341 25.6591 54.188C25.4972 53.791 25.2452 53.437 24.923 53.1541C24.722 54.1955 24.5028 55.2354 24.3184 56.2799C24.1446 57.2971 24.063 58.3294 23.8529 59.3376C23.2271 62.3333 20.2253 63.4186 17.9249 61.3887C16.9047 60.4613 16.0326 59.3832 15.3387 58.1919C13.7063 55.4712 13.0322 52.4196 12.7345 49.2832C12.3787 45.5379 12.7854 41.7593 13.93 38.1754C14.3442 36.8634 14.7583 35.5454 15.0803 34.2093C15.1558 33.8904 14.9699 33.3765 14.7251 33.1316C12.349 30.7465 11.0582 27.7432 9.91707 24.6673C9.09332 22.4545 8.39501 20.1964 7.66799 17.9488C7.12688 16.2862 6.02501 14.9621 5.01988 13.5791C3.69129 11.7487 2.28411 9.96519 1.09004 8.05015C0.0954902 6.45554 -0.169019 4.67051 0.663804 2.85371C1.62662 0.749736 3.62479 -0.311325 6.155 0.0710781C9.97299 0.651485 13.3753 2.234 16.356 4.65992C17.346 5.46403 18.3209 5.91897 19.6177 5.93408C24.725 5.99303 29.2428 7.76298 33.5233 10.5169C41.8138 15.8494 48.561 22.6178 53.5081 31.1486C54.1746 32.2958 54.6462 33.5563 55.2054 34.764C57.6762 40.1046 60.145 45.4451 62.6117 50.7857C63.2465 52.146 64.167 53.0952 65.6951 53.6484C71.9949 55.9307 77.3335 59.8046 82.2911 64.203C83.3491 65.1432 84.1608 66.372 85.0752 67.4784C85.4531 67.9318 85.1629 68.1646 84.7291 68.2614C83.0161 68.6412 81.2981 69.0116 79.575 69.3723C77.5602 69.7955 75.5439 70.2096 73.5291 70.6283L72.2882 70.8883Z" fill="url(#paint0_linear_1098_1586)"/>
<path d="M17.958 15.0906C20.1799 14.285 21.4087 15.2417 22.3866 17.3064C22.7675 18.1105 22.0843 19.7384 21.2636 20.216C20.1753 18.5141 19.0735 16.8258 17.958 15.0906Z" fill="white"/>
</g>
<defs>
<linearGradient id="paint0_linear_1098_1586" x1="44.617" y1="0.00221768" x2="-3.56279" y2="299.109" gradientUnits="userSpaceOnUse">
<stop stop-color="#FFE466"/>
<stop offset="1" stop-color="#BFA737"/>
</linearGradient>
<clipPath id="clip0_1098_1586">
<rect width="87.8576" height="86" fill="white" transform="translate(0.162109)"/>
</clipPath>
</defs>
</svg>
