<svg width="78" height="86" viewBox="0 0 78 86" fill="none" xmlns="http://www.w3.org/2000/svg">
<g clip-path="url(#clip0_1095_1338)">
<path d="M56.5383 53.6546C55.8754 53.7991 55.1996 53.8752 54.5212 53.8818C37.0797 53.8763 19.6383 53.88 2.19679 53.8927H2.13286C1.20708 50.3371 0.740382 46.6775 0.744163 43.0034C0.740649 39.332 1.20688 35.6753 2.1315 32.1223H2.31512H54.5715C59.7496 32.1223 64.3332 36.2925 65.0758 41.4297C65.8606 46.8852 62.3053 52.4577 56.5383 53.6546Z" fill="#343741"/>
<path d="M77.2787 16.0864C76.0328 17.4234 74.8236 18.793 73.4948 20.0525C72.3884 21.1254 71.1145 22.0107 69.7231 22.6735C67.9439 23.5173 66.0001 23.9572 64.031 23.9615C44.4106 23.9552 24.7915 23.9552 5.17383 23.9615C12.1962 9.76309 26.8285 -0.00132409 43.7418 -0.00132409C50.1806 -0.00733167 56.5383 1.43556 62.3437 4.22043C68.1491 7.0053 73.2535 11.0608 77.2787 16.0864Z" fill="#FDC414"/>
<path d="M77.2788 69.9137C73.2536 74.9392 68.1492 78.9944 62.3437 81.7791C56.5383 84.5637 50.1807 86.0063 43.742 86.0001C26.8192 86.0001 12.1868 76.2248 5.16309 62.0127H5.32494C24.5029 62.0127 43.6916 62.0535 62.8764 61.9828C67.4355 61.9665 71.2222 63.4477 74.3246 66.7433C75.3134 67.8015 76.2941 68.8583 77.2788 69.9137Z" fill="#00BEB2"/>
<path d="M56.5383 53.6546C55.8754 53.7991 55.1996 53.8752 54.5212 53.8818H39.8739C27.3144 53.8818 14.7558 53.8863 2.19815 53.8954H2.13422C1.20774 50.3389 0.740591 46.6785 0.744161 43.0034C0.740647 39.332 1.20688 35.6753 2.1315 32.1223H2.31512H54.5715C59.7496 32.1223 64.3332 36.2925 65.0758 41.4297C65.8606 46.8852 62.3053 52.4577 56.5383 53.6546Z" fill="url(#paint0_linear_1095_1338)"/>
<path d="M77.2788 69.9137C73.2536 74.9392 68.1492 78.9944 62.3437 81.7791C56.5383 84.5637 50.1807 86.0063 43.742 86.0001C35.9059 86.0125 28.2169 83.8733 21.5133 79.8155C14.4797 75.5586 8.80743 69.3823 5.16309 62.0127H5.32494C15.8606 62.0127 26.3966 62.0168 36.9331 62.025C45.5809 62.025 54.2286 62.0109 62.8764 61.9828C67.4355 61.9665 71.2222 63.4477 74.3246 66.7433C75.3134 67.8015 76.2941 68.8583 77.2788 69.9137Z" fill="url(#paint1_linear_1095_1338)"/>
<path d="M77.2787 16.0863C76.0328 17.4233 74.8236 18.7929 73.4948 20.0524C72.3884 21.1253 71.1145 22.0106 69.7231 22.6734C67.9439 23.5172 66.0001 23.9571 64.031 23.9615H36.9235H5.17383C8.81576 16.6075 14.4772 10.4431 21.4955 6.18993C28.2025 2.1278 35.8965 -0.0138955 43.7377 -0.00141057C50.1772 -0.00803056 56.5357 1.43456 62.3419 4.21945C68.1481 7.00434 73.2531 11.0601 77.2787 16.0863Z" fill="url(#paint2_linear_1095_1338)"/>
<path opacity="0.2" d="M36.9235 23.9615H5.17383C8.81576 16.6075 14.4772 10.4431 21.4955 6.18994C28.1432 10.6181 33.4731 16.7576 36.9235 23.9615Z" fill="black"/>
<path opacity="0.2" d="M5.32494 62.0127C15.8606 62.0127 26.3966 62.0168 36.9331 62.0249C33.4879 69.2347 28.1606 75.3811 21.5133 79.8155C14.4797 75.5586 8.80743 69.3823 5.16309 62.0127H5.32494Z" fill="black"/>
<path opacity="0.2" d="M41.2218 43.0034C41.2243 46.6691 40.7715 50.3209 39.8739 53.875C27.3144 53.875 14.7558 53.8795 2.19815 53.8886H2.13421C1.20832 50.3344 0.741171 46.6762 0.74416 43.0034C0.740646 39.332 1.20688 35.6753 2.1315 32.1223H2.31512H39.8739C40.7727 35.6794 41.2254 39.3345 41.2218 43.0034Z" fill="black"/>
</g>
<defs>
<linearGradient id="paint0_linear_1095_1338" x1="41.7414" y1="0.999753" x2="37.0305" y2="85.7379" gradientUnits="userSpaceOnUse">
<stop stop-color="#FFE466"/>
<stop offset="1" stop-color="#BFA737"/>
</linearGradient>
<linearGradient id="paint1_linear_1095_1338" x1="41.6506" y1="0.000243332" x2="36.9522" y2="85.7428" gradientUnits="userSpaceOnUse">
<stop stop-color="#FFE466"/>
<stop offset="1" stop-color="#BFA737"/>
</linearGradient>
<linearGradient id="paint2_linear_1095_1338" x1="41.6559" y1="0.000785582" x2="36.9946" y2="85.2451" gradientUnits="userSpaceOnUse">
<stop stop-color="#FFE466"/>
<stop offset="1" stop-color="#BFA737"/>
</linearGradient>
<clipPath id="clip0_1095_1338">
<rect width="76.5375" height="86" fill="white" transform="translate(0.741211)"/>
</clipPath>
</defs>
</svg>
