<svg width="87" height="86" viewBox="0 0 87 86" fill="none" xmlns="http://www.w3.org/2000/svg">
<g clip-path="url(#clip0_1098_1561)">
<path fill-rule="evenodd" clip-rule="evenodd" d="M61.598 4.13705C53.7337 0.415518 44.9263 -0.835937 36.3367 0.547626C27.747 1.93119 19.7781 5.88484 13.4801 11.8875C5.27245 19.7117 76.1181 11.0395 61.598 4.13705Z" fill="#FFDF49"/>
<path fill-rule="evenodd" clip-rule="evenodd" d="M76.7522 16.1499C76.7965 16.2089 73.242 20.9654 62.5566 22.3149C40.9865 25.036 3.94498 25.3236 4.00398 25.2056C6.28067 20.2004 9.49765 15.6791 13.4801 11.8875C18.1723 13.3611 23.151 13.6799 27.9928 12.8167C35.9056 11.3418 42.9407 6.79917 50.7723 4.93345C54.3183 4.11227 57.9699 3.84361 61.5979 4.13701C67.4919 6.94512 72.6731 11.0523 76.7522 16.1499Z" fill="#FFE980"/>
<path fill-rule="evenodd" clip-rule="evenodd" d="M85.631 36.2599C85.631 36.4295 36.9601 41.009 13.2736 39.6742C5.54524 39.2391 0.987876 34.5711 1.0395 34.313C1.67605 31.1757 2.6656 28.1205 3.98925 25.2057C10.9597 21.3851 18.783 19.3887 26.7318 19.402C36.5324 19.5053 46.1486 22.7721 55.9491 22.5288C63.3204 22.2742 70.495 20.0844 76.7523 16.1794C81.4027 21.9979 84.4531 28.9299 85.6015 36.2894L85.631 36.2599Z" fill="#FFDF49"/>
<path fill-rule="evenodd" clip-rule="evenodd" d="M86.1547 43V43.7374C76.0022 46.0028 65.6206 47.0793 55.2192 46.9453C30.8322 46.6577 0.162109 42.7272 0.162109 42.6534C0.184655 39.8539 0.478548 37.0631 1.03966 34.3203C6.93581 37.9893 13.8762 39.6142 20.7882 38.9441C26.2158 38.3615 31.3631 36.3557 36.3851 34.2171C41.407 32.0785 46.4068 29.7925 51.709 28.5536C59.5735 26.7572 67.7967 27.3714 75.307 30.316C79.0229 31.7864 82.5017 33.7966 85.6311 36.2819C85.9846 38.5037 86.1597 40.7502 86.1547 43Z" fill="#EBCD43"/>
<path fill-rule="evenodd" clip-rule="evenodd" d="M37.3807 56.9598C24.4755 59.3417 2.33766 56.591 2.28604 56.4214C0.865452 52.087 0.143576 47.554 0.147477 42.9927V42.624C2.1568 41.0563 4.33018 39.7113 6.62954 38.6123C12.1893 35.9252 18.3807 34.8181 24.5272 35.4118C30.5668 36.0165 36.3262 38.251 41.916 40.6624C46.6134 42.6903 51.2888 44.8805 56.1632 46.3923C56.6426 46.5397 51.5764 54.3345 37.3807 56.9598Z" fill="#FFE980"/>
<path fill-rule="evenodd" clip-rule="evenodd" d="M84.5765 54.4818C83.6769 56.001 75.1078 61.1188 63.4932 62.0037C48.1176 63.1689 29.9545 58.5156 35.9794 56.1558C45.4628 52.4244 53.6779 45.7358 63.4932 42.9409C70.9345 40.8621 78.8349 41.1196 86.1252 43.6783C86.0684 47.3208 85.548 50.9413 84.5765 54.4524V54.4818Z" fill="#CFB53B"/>
<path fill-rule="evenodd" clip-rule="evenodd" d="M80.4471 64.4225C73.0211 77.3129 19.1734 80.5502 11.3049 71.878C7.25019 67.4049 4.18231 62.1284 2.30078 56.3918C8.89745 52.5947 16.5593 51.0712 24.1068 52.0557C33.7378 53.3683 42.3658 58.7442 51.8714 60.8385C59.5825 62.5334 67.615 62.0222 75.049 59.3637C78.4344 58.1523 81.655 56.5222 84.6357 54.5113C83.6623 57.9782 82.255 61.3083 80.4471 64.4225Z" fill="#EBCD43"/>
<path fill-rule="evenodd" clip-rule="evenodd" d="M80.5059 64.3193C77.1371 70.2166 72.4196 75.2321 66.7396 78.9554C61.0596 82.6787 54.5785 85.0039 47.827 85.7405C41.0754 86.4772 34.2454 85.6044 27.8961 83.1937C21.5467 80.7829 15.8586 76.9027 11.2974 71.8707C12.6026 72.3722 14.0628 72.7999 15.4049 73.1834C22.9344 75.2484 30.8894 75.182 38.3834 72.9916C43.1473 71.5905 47.6309 69.3561 52.3063 67.66C61.337 64.4472 70.9744 63.3055 80.5059 64.3193Z" fill="#CFB53B"/>
</g>
<defs>
<clipPath id="clip0_1098_1561">
<rect width="86" height="86" fill="white" transform="translate(0.162109)"/>
</clipPath>
</defs>
</svg>
