<svg width="87" height="88" viewBox="0 0 87 88" fill="none" xmlns="http://www.w3.org/2000/svg">
<g clip-path="url(#clip0_1065_1003)">
<rect x="2" y="2.83936" width="82" height="82" fill="white"/>
<path d="M86.9987 1.03869C86.9987 0.151183 86.7446 0.00500488 85.9302 0.00500488C57.6518 0.0293678 29.3775 0.0293678 1.10721 0.00500488C0.237109 0.00500488 -0.0117596 0.199904 0.000421853 1.09959C0.0375463 15.2324 0.0456698 29.3693 0.0247873 43.5102C0.0247873 57.6198 0.0166638 71.7248 0.000421853 85.8251C0.000421853 86.6952 0.134427 87.0154 1.11939 87.0154C29.3978 86.9795 57.6721 86.9795 85.9424 87.0154C86.7812 87.0154 87.0109 86.8414 86.9987 85.9713C86.9755 57.6477 86.9755 29.3368 86.9987 1.03869ZM47.3654 54.9852C47.3654 59.3966 47.402 63.8063 47.3533 68.2107C47.3167 71.4806 46.5997 74.5555 44.1826 76.9605C41.4104 79.7187 37.8865 80.34 34.1921 80.1573C29.4657 79.9137 25.7712 77.848 23.3523 73.668C22.9033 72.8902 23.0373 72.5369 23.7786 72.1245C25.4666 71.1761 27.1198 70.1928 28.7365 69.147C29.4047 68.7102 29.6484 68.8546 30.0121 69.495C30.8996 71.0612 31.9559 72.5317 33.9136 72.8118C36.7815 73.2121 38.8593 72.1923 39.0542 68.8859C39.3083 64.5111 39.1395 60.1257 39.1621 55.7509C39.1864 50.8156 39.1865 45.8943 39.1517 40.9591C39.1395 40.1447 39.3935 39.9254 40.1836 39.9497C42.2718 39.9985 44.3757 39.9985 46.4657 39.9497C47.2071 39.9376 47.3776 40.169 47.3654 40.8738C47.3463 45.5706 47.3654 50.2727 47.3654 54.9852ZM79.9822 71.1691C79.1799 75.6292 76.1781 78.17 71.9981 79.4577C70.2579 79.992 68.4742 80.1747 66.7113 80.2112C62.2895 80.1138 58.2661 79.0557 54.9371 76.0347C53.813 74.9754 52.8471 73.7599 52.0692 72.4255C51.7647 71.9383 51.9109 71.7294 52.372 71.4771C54.147 70.4922 55.9081 69.4846 57.6344 68.4265C58.2783 68.0263 58.5706 68.1342 58.9709 68.7554C61.2679 72.2358 64.865 73.6646 68.6447 72.6918C71.2324 72.0235 72.5567 70.0432 71.9006 67.7827C71.5369 66.5193 70.5885 65.7536 69.4957 65.134C67.477 63.9907 65.2896 63.2007 63.1874 62.2296C60.3561 60.928 57.6831 59.3966 55.9203 56.6749C54.8723 55.078 54.257 53.2363 54.1348 51.3302C54.0127 49.424 54.3878 47.5188 55.2234 45.8013C56.059 44.0837 57.3265 42.6126 58.9017 41.5323C60.4768 40.4519 62.3057 39.7992 64.2089 39.6383C67.4179 39.3337 70.5032 39.5895 73.3589 41.2305C75.0991 42.2381 76.3851 43.7086 77.4676 45.374C77.7947 45.8717 77.5998 46.0909 77.1874 46.3572C75.4855 47.464 73.7853 48.569 72.1199 49.7245C71.5857 50.0882 71.3542 50.0151 71.0392 49.4809C69.9203 47.598 68.2914 46.5521 66.0309 46.613C64.3185 46.6617 62.909 47.6102 62.4461 49.0493C61.9362 50.666 62.4583 52.2565 63.9166 53.2902C65.6672 54.5292 67.7085 55.2044 69.6401 56.0606C71.6709 56.9725 73.6635 57.9331 75.4733 59.2452C79.5993 62.2314 80.8505 66.3626 79.9752 71.1691H79.9822Z" fill="url(#paint0_linear_1065_1003)"/>
</g>
<defs>
<linearGradient id="paint0_linear_1065_1003" x1="43.4996" y1="0.00500488" x2="43.4996" y2="87.0154" gradientUnits="userSpaceOnUse">
<stop stop-color="#FFE466"/>
<stop offset="1" stop-color="#BFA737"/>
</linearGradient>
<clipPath id="clip0_1065_1003">
<rect width="87" height="87.0104" fill="white" transform="translate(0 0.0102539)"/>
</clipPath>
</defs>
</svg>
