<svg width="1720" height="470" viewBox="0 0 1720 470" fill="none" xmlns="http://www.w3.org/2000/svg">
<g filter="url(#filter0_d_1290_1585)">
<rect x="60" y="60" width="1600" height="350" rx="16" fill="white"/>
</g>
<g clip-path="url(#clip0_1290_1585)">
<path d="M312.848 204.845C314.446 202.581 315.194 199.826 314.958 197.065C314.723 194.304 313.52 191.714 311.562 189.753L306.327 184.519C307.403 180.57 307.721 176.453 307.264 172.385C307.23 172.076 307.074 171.794 306.831 171.599C306.588 171.405 306.278 171.316 305.97 171.35C305.661 171.384 305.378 171.54 305.184 171.783C304.99 172.026 304.9 172.336 304.934 172.645C305.307 175.964 305.123 179.323 304.391 182.583L302.714 180.906C302.293 180.474 301.79 180.13 301.235 179.893C300.68 179.657 300.084 179.533 299.481 179.529C298.877 179.525 298.279 179.641 297.721 179.87C297.163 180.099 296.656 180.437 296.229 180.863C295.802 181.29 295.465 181.797 295.236 182.355C295.006 182.913 294.89 183.511 294.894 184.114C294.898 184.718 295.022 185.314 295.258 185.87C295.494 186.425 295.838 186.927 296.27 187.349L300.673 191.75C297.383 197.098 292.507 201.286 286.725 203.731C280.942 206.176 274.541 206.757 268.412 205.392L270.092 203.712C270.928 202.854 271.393 201.701 271.385 200.502C271.377 199.304 270.897 198.157 270.05 197.31C269.203 196.463 268.056 195.984 266.858 195.976C265.659 195.968 264.506 196.433 263.648 197.269L259.239 201.678C255.087 199.122 251.612 195.605 249.106 191.422C249.094 191.397 249.084 191.372 249.069 191.347C248.573 190.507 248.12 189.647 247.722 188.788C247.14 187.549 246.645 186.272 246.239 184.966C246.22 184.908 246.197 184.851 246.17 184.797C245.028 181.062 244.625 177.141 244.981 173.252C244.982 172.96 244.873 172.677 244.675 172.461C244.478 172.244 244.207 172.11 243.915 172.083C243.624 172.057 243.333 172.14 243.1 172.318C242.867 172.495 242.708 172.753 242.656 173.041C242.288 177.061 242.674 181.113 243.792 184.991L238.747 190.038C236.794 191.986 235.588 194.559 235.341 197.307C235.094 200.054 235.821 202.801 237.395 205.067L237.278 205.184C236.404 206.059 235.912 207.245 235.912 208.483C235.912 209.72 236.404 210.906 237.278 211.781L239.452 213.955C240.327 214.828 241.513 215.319 242.749 215.319C243.986 215.319 245.172 214.828 246.047 213.955L246.152 213.85C248.129 215.253 250.493 216.006 252.917 216.005C253.644 216.005 254.369 215.938 255.084 215.806C255.376 215.736 255.63 215.557 255.794 215.306C255.957 215.054 256.018 214.749 255.963 214.454C255.909 214.159 255.743 213.896 255.501 213.719C255.258 213.543 254.957 213.466 254.659 213.505C252.299 213.947 249.86 213.468 247.842 212.166L250.312 209.689C250.91 209.095 251.334 208.349 251.539 207.531C252.395 208.123 253.431 208.397 254.468 208.304C255.504 208.211 256.476 207.758 257.212 207.023L260.248 203.987L265.312 198.927C265.728 198.515 266.29 198.284 266.875 198.284C267.46 198.284 268.022 198.515 268.437 198.927C268.852 199.342 269.084 199.904 269.084 200.49C269.084 201.076 268.852 201.638 268.437 202.053L265.312 205.178L265.3 205.19L259.597 210.894C259.288 211.204 258.957 211.492 258.608 211.756C258.359 211.943 258.195 212.22 258.151 212.528C258.107 212.836 258.187 213.148 258.373 213.397C258.56 213.646 258.838 213.81 259.145 213.854C259.453 213.898 259.765 213.818 260.014 213.631C260.45 213.302 260.862 212.944 261.248 212.558L266.473 207.333C272.209 208.889 278.262 208.842 283.973 207.197L289.039 212.255C291.125 214.347 293.923 215.574 296.875 215.692C297.031 215.692 297.187 215.702 297.344 215.702C299.745 215.707 302.091 214.975 304.062 213.603L304.181 213.72C305.057 214.594 306.242 215.084 307.479 215.084C308.715 215.084 309.901 214.594 310.777 213.72L312.948 211.548C313.382 211.115 313.726 210.601 313.96 210.035C314.195 209.469 314.316 208.862 314.316 208.25C314.316 207.637 314.195 207.03 313.96 206.464C313.726 205.898 313.382 205.384 312.948 204.951L312.848 204.845ZM237.644 197.969C237.736 195.604 238.719 193.361 240.395 191.691L244.614 187.472C245.168 188.946 245.829 190.378 246.594 191.755L244.266 194.082C243.539 194.809 243.088 195.766 242.987 196.789C242.886 197.812 243.143 198.838 243.714 199.693C242.891 199.895 242.139 200.319 241.541 200.918L239.084 203.375C238.066 201.763 237.564 199.879 237.644 197.974V197.969ZM248.653 208.036L245.247 211.442L244.391 212.297C243.955 212.731 243.365 212.975 242.75 212.975C242.135 212.975 241.545 212.731 241.109 212.297L238.936 210.125C238.501 209.69 238.257 209.099 238.257 208.484C238.257 207.869 238.501 207.279 238.936 206.843L239.773 206.004L239.781 205.997L243.198 202.579C243.634 202.145 244.224 201.901 244.839 201.901C245.454 201.901 246.044 202.145 246.48 202.579L248.548 204.645L248.653 204.75C249.088 205.185 249.333 205.775 249.333 206.39C249.333 207.006 249.088 207.596 248.653 208.031V208.036ZM255.553 205.37C255.358 205.565 255.127 205.72 254.872 205.826C254.618 205.931 254.345 205.986 254.069 205.986C253.793 205.986 253.52 205.931 253.265 205.826C253.011 205.72 252.779 205.565 252.584 205.37L250.322 203.103L250.309 203.092L249.298 202.079L248.137 200.92L245.923 198.707C245.728 198.512 245.573 198.281 245.468 198.026C245.362 197.771 245.308 197.498 245.308 197.223C245.308 196.947 245.362 196.674 245.468 196.419C245.573 196.164 245.728 195.933 245.923 195.738L247.847 193.816C248.918 195.441 250.132 196.967 251.473 198.376L250.872 198.973C250.76 199.081 250.671 199.21 250.609 199.353C250.548 199.496 250.516 199.65 250.515 199.806C250.513 199.961 250.543 200.116 250.602 200.26C250.661 200.404 250.748 200.534 250.858 200.644C250.968 200.754 251.099 200.841 251.243 200.9C251.387 200.959 251.542 200.989 251.697 200.987C251.853 200.986 252.006 200.953 252.149 200.892C252.292 200.83 252.422 200.741 252.53 200.629L253.155 200.004C254.52 201.247 255.989 202.372 257.545 203.367L255.553 205.37ZM297.93 182.565C298.345 182.152 298.906 181.92 299.492 181.92C300.078 181.92 300.64 182.152 301.055 182.565L309.895 191.407C311.407 192.932 312.355 194.926 312.584 197.062C312.814 199.197 312.31 201.347 311.156 203.159L308.691 200.692C308.096 200.095 307.35 199.672 306.533 199.468C307.128 198.613 307.403 197.575 307.31 196.538C307.218 195.5 306.763 194.528 306.027 193.791L297.928 185.691C297.515 185.275 297.283 184.713 297.283 184.128C297.284 183.542 297.516 182.98 297.93 182.565ZM297.369 199.52L297.98 200.131C298.2 200.35 298.498 200.474 298.809 200.474C299.119 200.474 299.418 200.35 299.637 200.131C299.857 199.911 299.981 199.613 299.981 199.302C299.981 198.991 299.857 198.693 299.637 198.473L299.012 197.848C300.257 196.483 301.383 195.014 302.378 193.458L304.375 195.446C304.57 195.641 304.725 195.872 304.831 196.127C304.937 196.381 304.991 196.655 304.991 196.93C304.991 197.206 304.937 197.479 304.831 197.734C304.725 197.989 304.57 198.22 304.375 198.415L302.108 200.684L299.934 202.856L297.728 205.064C297.334 205.457 296.8 205.678 296.244 205.678C295.687 205.678 295.153 205.457 294.759 205.064L292.822 203.126C294.442 202.061 295.964 200.853 297.369 199.516V199.52ZM296.975 213.349C294.611 213.256 292.368 212.274 290.697 210.598L286.469 206.376C287.25 206.079 288.031 205.751 288.786 205.4C289.444 205.087 290.102 204.757 290.748 204.398L293.083 206.733C293.81 207.457 294.766 207.909 295.788 208.009C296.81 208.11 297.836 207.855 298.691 207.286C298.895 208.109 299.321 208.86 299.922 209.458L302.377 211.913C300.763 212.928 298.88 213.429 296.975 213.349ZM311.297 209.884L309.123 212.056C308.688 212.491 308.098 212.735 307.483 212.735C306.868 212.735 306.278 212.491 305.842 212.056L301.58 207.794C301.364 207.578 301.192 207.323 301.075 207.041C300.958 206.76 300.898 206.458 300.898 206.153C300.898 205.848 300.958 205.546 301.075 205.264C301.192 204.983 301.364 204.727 301.58 204.512L303.75 202.343C304.185 201.908 304.775 201.664 305.391 201.664C306.006 201.664 306.596 201.908 307.031 202.343L310.458 205.77L311.294 206.604C311.728 207.04 311.973 207.63 311.973 208.245C311.973 208.86 311.728 209.45 311.294 209.886L311.297 209.884Z" fill="#CFB53B"/>
<path d="M247.286 171.086C247.707 171.519 248.21 171.863 248.765 172.099C249.32 172.335 249.917 172.459 250.52 172.463C251.123 172.466 251.721 172.35 252.279 172.121C252.837 171.892 253.344 171.554 253.771 171.128C254.198 170.701 254.535 170.194 254.764 169.636C254.993 169.078 255.109 168.479 255.105 167.876C255.101 167.273 254.977 166.676 254.741 166.121C254.505 165.566 254.16 165.063 253.728 164.642L249.306 160.22C250.46 158.348 251.814 156.607 253.345 155.029C253.379 155.002 253.41 154.974 253.441 154.943C253.479 154.905 253.514 154.864 253.547 154.82L253.684 154.679C255.424 152.939 257.37 151.417 259.478 150.148C259.539 150.124 259.597 150.095 259.653 150.062C260.488 149.57 261.345 149.124 262.209 148.715C263.449 148.133 264.727 147.638 266.034 147.232C266.102 147.211 266.167 147.183 266.23 147.149C271.222 145.632 276.523 145.438 281.613 146.587L279.914 148.287C279.06 149.141 278.58 150.3 278.58 151.508C278.58 152.716 279.06 153.875 279.914 154.729C280.768 155.584 281.927 156.064 283.135 156.064C284.343 156.064 285.502 155.584 286.356 154.729L290.781 150.312C295.059 152.952 298.613 156.612 301.127 160.966C301.642 161.861 303.106 164.955 303.741 166.903C303.758 166.99 303.785 167.074 303.82 167.155C304.056 167.936 304.522 167.85 304.891 167.85C305.044 167.85 305.196 167.82 305.338 167.761C305.48 167.702 305.609 167.615 305.717 167.507L311.273 161.953C313.22 160.004 314.42 157.432 314.665 154.688C314.909 151.944 314.182 149.201 312.611 146.938L312.728 146.821C313.603 145.946 314.094 144.76 314.094 143.522C314.094 142.285 313.603 141.099 312.728 140.224L310.555 138.047C309.679 137.174 308.493 136.683 307.257 136.683C306.021 136.683 304.835 137.174 303.959 138.047L303.855 138.152C301.588 136.552 298.83 135.805 296.066 136.041C293.302 136.278 290.711 137.484 288.75 139.446L283.547 144.654C277.798 143.082 271.728 143.124 266.002 144.774L260.959 139.732C259.01 137.782 256.438 136.58 253.692 136.334C250.946 136.089 248.202 136.816 245.938 138.389L245.82 138.272C244.945 137.399 243.759 136.908 242.522 136.908C241.285 136.908 240.099 137.399 239.223 138.272L237.047 140.444C236.172 141.319 235.681 142.506 235.681 143.743C235.681 144.98 236.172 146.166 237.047 147.041L237.153 147.146C235.552 149.412 234.803 152.171 235.04 154.935C235.276 157.699 236.483 160.291 238.445 162.252L247.286 171.086ZM299.648 148.857L299.695 148.905L304.083 153.292C304.278 153.486 304.433 153.718 304.539 153.972C304.645 154.227 304.699 154.5 304.699 154.776C304.699 155.052 304.645 155.325 304.539 155.58C304.433 155.835 304.278 156.066 304.083 156.261L302.156 158.189C301.086 156.563 299.873 155.036 298.533 153.625L299.134 153.023C299.341 152.801 299.454 152.507 299.449 152.203C299.443 151.9 299.32 151.61 299.106 151.395C298.891 151.181 298.601 151.058 298.298 151.052C297.994 151.047 297.7 151.16 297.478 151.367L296.853 151.992C295.49 150.746 294.023 149.619 292.467 148.624L294.453 146.626C294.847 146.233 295.381 146.012 295.938 146.012C296.494 146.012 297.028 146.233 297.422 146.626L299.648 148.857ZM312.363 154.025C312.271 156.389 311.289 158.632 309.613 160.303L305.366 164.549C304.793 163.082 304.137 161.649 303.402 160.256L305.745 157.912C306.472 157.185 306.924 156.229 307.025 155.206C307.126 154.182 306.869 153.156 306.298 152.301C307.121 152.098 307.873 151.674 308.472 151.074L310.927 148.62C311.945 150.233 312.446 152.119 312.363 154.025ZM307.258 139.024C307.564 139.022 307.867 139.082 308.15 139.199C308.433 139.315 308.69 139.487 308.906 139.703L311.08 141.877C311.515 142.312 311.759 142.902 311.759 143.518C311.759 144.133 311.515 144.723 311.08 145.158L310.227 146.012V146.019L306.808 149.421C306.372 149.855 305.782 150.099 305.167 150.099C304.552 150.099 303.962 149.855 303.527 149.421L301.355 147.251C300.921 146.815 300.678 146.225 300.678 145.61C300.678 144.995 300.921 144.405 301.355 143.969L305.625 139.703C305.839 139.488 306.094 139.318 306.374 139.202C306.654 139.085 306.954 139.025 307.258 139.025V139.024ZM290.411 141.102C291.937 139.589 293.931 138.641 296.067 138.411C298.203 138.182 300.354 138.686 302.166 139.841L299.697 142.31C299.101 142.905 298.678 143.652 298.473 144.469C297.618 143.876 296.581 143.601 295.544 143.693C294.506 143.785 293.534 144.239 292.797 144.974L284.7 153.071C284.499 153.294 284.255 153.473 283.982 153.598C283.709 153.723 283.414 153.792 283.115 153.799C282.815 153.807 282.517 153.753 282.238 153.642C281.96 153.531 281.707 153.364 281.494 153.152C281.282 152.94 281.116 152.687 281.004 152.408C280.893 152.13 280.84 151.832 280.847 151.532C280.855 151.232 280.923 150.937 281.048 150.664C281.173 150.392 281.353 150.147 281.575 149.946L290.411 141.102ZM245.625 156.545C245.232 156.151 245.01 155.617 245.01 155.061C245.01 154.504 245.232 153.97 245.625 153.576L252.288 146.916C252.681 146.523 253.215 146.302 253.772 146.302C254.329 146.302 254.862 146.523 255.256 146.916L257.17 148.829C255.545 149.9 254.017 151.113 252.606 152.454L252.016 151.863C251.796 151.644 251.498 151.52 251.187 151.52C250.876 151.52 250.578 151.644 250.358 151.863C250.138 152.083 250.014 152.382 250.014 152.692C250.014 153.003 250.138 153.302 250.358 153.521L250.967 154.129C249.723 155.495 248.598 156.964 247.603 158.52L245.625 156.545ZM253.019 138.638C255.384 138.729 257.626 139.712 259.297 141.388L263.516 145.607C262.044 146.16 260.614 146.819 259.238 147.579L256.919 145.26C256.191 144.534 255.235 144.083 254.213 143.982C253.19 143.882 252.164 144.138 251.309 144.708C251.106 143.885 250.68 143.133 250.078 142.535L247.623 140.08C249.235 139.061 251.12 138.558 253.025 138.638H253.019ZM238.705 142.102L240.877 139.928C241.312 139.494 241.902 139.251 242.517 139.251C243.132 139.251 243.722 139.494 244.158 139.928L245.006 140.778C245.011 140.782 245.015 140.786 245.019 140.791L248.422 144.191C248.857 144.627 249.101 145.217 249.101 145.832C249.101 146.447 248.857 147.037 248.422 147.473L246.25 149.646C245.815 150.081 245.225 150.325 244.609 150.325C243.994 150.325 243.404 150.081 242.969 149.646L238.705 145.383C238.27 144.948 238.025 144.358 238.025 143.743C238.025 143.127 238.27 142.537 238.705 142.102ZM238.842 148.835L241.309 151.304C241.905 151.9 242.651 152.323 243.469 152.528C242.874 153.383 242.598 154.42 242.691 155.457C242.783 156.495 243.238 157.467 243.975 158.203L252.072 166.3C252.485 166.715 252.717 167.277 252.717 167.863C252.717 168.449 252.485 169.01 252.072 169.425C251.657 169.839 251.095 170.071 250.509 170.071C249.924 170.071 249.362 169.839 248.947 169.425L240.102 160.587C238.589 159.062 237.641 157.068 237.412 154.932C237.183 152.796 237.687 150.646 238.842 148.835Z" fill="#CFB53B"/>
<path d="M259.219 180.127L253.461 185.221C253.245 185.414 253.069 185.647 252.943 185.907C252.817 186.168 252.743 186.45 252.727 186.739C252.71 187.028 252.751 187.317 252.846 187.59C252.941 187.863 253.089 188.115 253.281 188.331L256.45 191.906L256.459 191.919L256.469 191.927L259.508 195.355C259.895 195.791 260.439 196.055 261.021 196.09C261.603 196.125 262.176 195.928 262.613 195.542L268.364 190.444C268.8 190.056 269.064 189.512 269.099 188.93C269.134 188.348 268.937 187.776 268.552 187.339L262.317 180.315C261.93 179.881 261.387 179.617 260.807 179.582C260.226 179.547 259.655 179.743 259.219 180.127ZM260.664 181.978L262.925 184.526L257.423 189.473L255.13 186.884L260.664 181.978ZM261.164 193.697L258.977 191.231L264.475 186.284L266.697 188.784L261.164 193.697Z" fill="#CFB53B"/>
<path d="M287.842 156.865L279.592 164.178C279.12 164.597 278.834 165.186 278.796 165.815C278.758 166.445 278.971 167.064 279.389 167.536L285.378 174.291C285.585 174.526 285.836 174.718 286.117 174.854C286.398 174.991 286.703 175.071 287.016 175.088H287.161C287.742 175.09 288.302 174.876 288.736 174.49L296.986 167.177C297.22 166.97 297.411 166.718 297.548 166.437C297.684 166.156 297.764 165.851 297.783 165.539C297.802 165.227 297.759 164.914 297.657 164.619C297.554 164.323 297.395 164.051 297.187 163.817L291.2 157.062C290.78 156.592 290.191 156.307 289.562 156.27C288.932 156.233 288.314 156.447 287.842 156.865ZM295.444 165.403C295.444 165.408 295.442 165.413 295.44 165.417C295.438 165.421 295.435 165.424 295.431 165.427L287.187 172.74C287.184 172.743 287.18 172.746 287.176 172.747C287.172 172.749 287.167 172.75 287.162 172.749C287.153 172.749 287.144 172.745 287.137 172.738L281.15 165.982C281.147 165.978 281.144 165.974 281.143 165.97C281.141 165.966 281.14 165.961 281.141 165.957C281.141 165.947 281.146 165.938 281.153 165.932L289.403 158.62C289.406 158.617 289.41 158.615 289.414 158.613C289.418 158.611 289.422 158.611 289.427 158.611C289.431 158.611 289.436 158.612 289.44 158.613C289.445 158.615 289.448 158.618 289.452 158.622L295.434 165.377C295.438 165.38 295.44 165.385 295.442 165.389C295.444 165.394 295.444 165.399 295.444 165.403Z" fill="#CFB53B"/>
</g>
<path d="M271.436 284.96C268.396 288.92 264.136 290.9 258.656 290.9C253.176 290.9 248.896 288.92 245.816 284.96C242.776 280.96 241.256 275.64 241.256 269C241.256 262.32 242.776 257.02 245.816 253.1C248.856 249.1 253.136 247.1 258.656 247.1C264.136 247.1 268.396 249.1 271.436 253.1C274.516 257.1 276.056 262.4 276.056 269C276.056 275.6 274.516 280.92 271.436 284.96ZM258.656 257.54C254.216 257.54 251.996 261.36 251.996 269C251.996 276.64 254.216 280.46 258.656 280.46C263.096 280.46 265.316 276.64 265.316 269C265.316 261.36 263.096 257.54 258.656 257.54ZM291.656 262.76H294.656C298.816 262.76 302.236 263.96 304.916 266.36C307.676 268.76 309.056 272.16 309.056 276.56C309.056 281.12 307.576 284.66 304.616 287.18C301.656 289.66 297.976 290.9 293.576 290.9C289.816 290.9 286.576 290.1 283.856 288.5C281.176 286.9 279.236 284.54 278.036 281.42L287.396 276.08C288.276 279 290.336 280.46 293.576 280.46C295.096 280.46 296.256 280.12 297.056 279.44C297.896 278.72 298.316 277.76 298.316 276.56C298.316 275.32 297.896 274.36 297.056 273.68C296.256 273 295.156 272.66 293.756 272.66H280.316L282.056 248H306.776V258.26H291.956L291.656 262.76Z" fill="#024342"/>
<path opacity="0.6" d="M209.959 330.202H211.255C211.291 330.706 211.441 331.156 211.705 331.552C211.969 331.948 212.329 332.26 212.785 332.488C213.253 332.716 213.799 332.83 214.423 332.83C214.963 332.83 215.413 332.752 215.773 332.596C216.145 332.428 216.421 332.2 216.601 331.912C216.793 331.624 216.889 331.288 216.889 330.904C216.889 330.508 216.793 330.19 216.601 329.95C216.409 329.71 216.133 329.506 215.773 329.338C215.413 329.17 214.987 329.008 214.495 328.852C214.027 328.708 213.553 328.54 213.073 328.348C212.593 328.156 212.143 327.922 211.723 327.646C211.315 327.37 210.985 327.04 210.733 326.656C210.481 326.26 210.355 325.786 210.355 325.234C210.355 324.694 210.499 324.19 210.787 323.722C211.087 323.242 211.519 322.858 212.083 322.57C212.659 322.27 213.349 322.12 214.153 322.12C215.413 322.12 216.355 322.462 216.979 323.146C217.603 323.83 217.903 324.736 217.879 325.864H216.583C216.559 325.012 216.319 324.4 215.863 324.028C215.407 323.656 214.813 323.47 214.081 323.47C213.469 323.47 212.935 323.614 212.479 323.902C212.023 324.178 211.795 324.616 211.795 325.216C211.795 325.48 211.843 325.714 211.939 325.918C212.047 326.11 212.215 326.29 212.443 326.458C212.683 326.626 213.001 326.794 213.397 326.962C213.805 327.118 214.303 327.292 214.891 327.484C215.275 327.604 215.665 327.748 216.061 327.916C216.469 328.084 216.841 328.294 217.177 328.546C217.525 328.798 217.801 329.122 218.005 329.518C218.221 329.902 218.329 330.388 218.329 330.976C218.329 331.54 218.191 332.068 217.915 332.56C217.651 333.04 217.231 333.43 216.655 333.73C216.091 334.03 215.359 334.18 214.459 334.18C213.691 334.18 213.031 334.078 212.479 333.874C211.939 333.658 211.495 333.382 211.147 333.046C210.799 332.71 210.529 332.362 210.337 332.002C210.157 331.63 210.037 331.282 209.977 330.958C209.917 330.634 209.911 330.382 209.959 330.202ZM224.719 334.18C224.059 334.18 223.519 334.03 223.099 333.73C222.679 333.418 222.349 333.022 222.109 332.542C221.881 332.05 221.719 331.54 221.623 331.012C221.527 330.472 221.479 329.974 221.479 329.518C221.479 328.87 221.521 328.264 221.605 327.7C221.701 327.136 221.863 326.638 222.091 326.206C222.319 325.774 222.643 325.438 223.063 325.198C223.495 324.946 224.047 324.82 224.719 324.82C225.439 324.82 226.093 325.024 226.681 325.432C227.269 325.84 227.737 326.398 228.085 327.106C228.445 327.814 228.625 328.618 228.625 329.518C228.625 330.418 228.445 331.222 228.085 331.93C227.725 332.626 227.245 333.178 226.645 333.586C226.057 333.982 225.415 334.18 224.719 334.18ZM224.359 332.812C224.911 332.812 225.397 332.674 225.817 332.398C226.249 332.11 226.585 331.72 226.825 331.228C227.065 330.724 227.185 330.154 227.185 329.518C227.185 328.558 226.939 327.766 226.447 327.142C225.955 326.506 225.259 326.188 224.359 326.188C223.831 326.188 223.363 326.332 222.955 326.62C222.547 326.896 222.229 327.286 222.001 327.79C221.773 328.282 221.659 328.858 221.659 329.518C221.659 330.118 221.755 330.67 221.947 331.174C222.151 331.666 222.451 332.062 222.847 332.362C223.243 332.662 223.747 332.812 224.359 332.812ZM220.219 325H221.605L221.659 326.89V337.6H220.219V325ZM236.839 331.102H238.189C238.093 331.69 237.877 332.218 237.541 332.686C237.217 333.142 236.785 333.508 236.245 333.784C235.717 334.048 235.105 334.18 234.409 334.18C233.569 334.18 232.813 333.982 232.141 333.586C231.469 333.178 230.935 332.626 230.539 331.93C230.155 331.222 229.963 330.418 229.963 329.518C229.963 328.618 230.149 327.814 230.521 327.106C230.905 326.398 231.427 325.84 232.087 325.432C232.747 325.024 233.491 324.82 234.319 324.82C235.195 324.82 235.933 325.018 236.533 325.414C237.145 325.798 237.595 326.368 237.883 327.124C238.183 327.868 238.303 328.786 238.243 329.878H231.403C231.463 330.466 231.625 330.982 231.889 331.426C232.153 331.87 232.501 332.218 232.933 332.47C233.365 332.71 233.857 332.83 234.409 332.83C235.021 332.83 235.537 332.674 235.957 332.362C236.389 332.038 236.683 331.618 236.839 331.102ZM234.373 326.17C233.629 326.17 233.005 326.386 232.501 326.818C231.997 327.25 231.661 327.838 231.493 328.582H236.767C236.719 327.79 236.461 327.19 235.993 326.782C235.537 326.374 234.997 326.17 234.373 326.17ZM248.092 330.616C248.008 331.36 247.768 332.002 247.372 332.542C246.988 333.07 246.502 333.478 245.914 333.766C245.326 334.042 244.69 334.18 244.006 334.18C243.238 334.18 242.518 333.994 241.846 333.622C241.174 333.25 240.628 332.716 240.208 332.02C239.8 331.312 239.596 330.478 239.596 329.518C239.596 328.558 239.8 327.73 240.208 327.034C240.628 326.326 241.174 325.78 241.846 325.396C242.518 325.012 243.238 324.82 244.006 324.82C244.69 324.82 245.32 324.964 245.896 325.252C246.484 325.54 246.97 325.948 247.354 326.476C247.75 327.004 247.996 327.634 248.092 328.366H246.778C246.574 327.682 246.22 327.148 245.716 326.764C245.212 326.368 244.642 326.17 244.006 326.17C243.49 326.17 243.004 326.302 242.548 326.566C242.092 326.83 241.726 327.214 241.45 327.718C241.174 328.21 241.036 328.81 241.036 329.518C241.036 330.214 241.174 330.814 241.45 331.318C241.726 331.81 242.086 332.188 242.53 332.452C242.986 332.704 243.478 332.83 244.006 332.83C244.738 332.83 245.332 332.638 245.788 332.254C246.256 331.858 246.592 331.312 246.796 330.616H248.092ZM251.708 321.4V323.146H249.836V321.4H251.708ZM250.052 325H251.492V334H250.052V325ZM257.353 334.18C256.645 334.18 255.991 333.982 255.391 333.586C254.803 333.178 254.329 332.626 253.969 331.93C253.621 331.222 253.447 330.418 253.447 329.518C253.447 328.618 253.627 327.814 253.987 327.106C254.347 326.398 254.833 325.84 255.445 325.432C256.069 325.024 256.765 324.82 257.533 324.82C258.373 324.82 259.009 325.036 259.441 325.468C259.885 325.888 260.185 326.452 260.341 327.16C260.509 327.868 260.593 328.654 260.593 329.518C260.593 329.974 260.545 330.472 260.449 331.012C260.353 331.54 260.185 332.05 259.945 332.542C259.717 333.022 259.393 333.418 258.973 333.73C258.553 334.03 258.013 334.18 257.353 334.18ZM257.713 332.812C258.325 332.812 258.829 332.662 259.225 332.362C259.633 332.062 259.933 331.666 260.125 331.174C260.317 330.67 260.413 330.118 260.413 329.518C260.413 328.858 260.311 328.282 260.107 327.79C259.915 327.286 259.615 326.896 259.207 326.62C258.811 326.332 258.313 326.188 257.713 326.188C256.813 326.188 256.117 326.506 255.625 327.142C255.133 327.766 254.887 328.558 254.887 329.518C254.887 330.154 255.007 330.724 255.247 331.228C255.499 331.72 255.835 332.11 256.255 332.398C256.687 332.674 257.173 332.812 257.713 332.812ZM260.413 325H261.853V334H260.539C260.539 334 260.527 333.892 260.503 333.676C260.491 333.46 260.473 333.208 260.449 332.92C260.425 332.632 260.413 332.392 260.413 332.2V325ZM264.379 321.4H265.819V334H264.379V321.4ZM270.13 321.4V323.146H268.258V321.4H270.13ZM268.474 325H269.914V334H268.474V325ZM271.941 331.102H273.273C273.309 331.618 273.501 332.038 273.849 332.362C274.209 332.686 274.725 332.848 275.397 332.848C275.805 332.848 276.123 332.794 276.351 332.686C276.591 332.578 276.765 332.434 276.873 332.254C276.981 332.062 277.035 331.852 277.035 331.624C277.035 331.348 276.963 331.132 276.819 330.976C276.687 330.808 276.501 330.67 276.261 330.562C276.033 330.454 275.769 330.352 275.469 330.256C275.121 330.124 274.761 329.986 274.389 329.842C274.029 329.686 273.687 329.506 273.363 329.302C273.051 329.086 272.799 328.828 272.607 328.528C272.415 328.216 272.319 327.844 272.319 327.412C272.319 327.052 272.391 326.716 272.535 326.404C272.679 326.08 272.883 325.804 273.147 325.576C273.423 325.336 273.741 325.15 274.101 325.018C274.473 324.886 274.881 324.82 275.325 324.82C275.925 324.82 276.429 324.94 276.837 325.18C277.257 325.42 277.575 325.762 277.791 326.206C278.019 326.638 278.139 327.142 278.151 327.718H276.909C276.825 327.178 276.651 326.788 276.387 326.548C276.135 326.296 275.769 326.17 275.289 326.17C274.797 326.17 274.419 326.278 274.155 326.494C273.891 326.71 273.759 326.998 273.759 327.358C273.759 327.622 273.855 327.844 274.047 328.024C274.239 328.192 274.485 328.348 274.785 328.492C275.097 328.624 275.427 328.762 275.775 328.906C276.123 329.05 276.459 329.194 276.783 329.338C277.107 329.482 277.395 329.65 277.647 329.842C277.899 330.034 278.097 330.274 278.241 330.562C278.397 330.838 278.475 331.186 278.475 331.606C278.475 332.11 278.355 332.56 278.115 332.956C277.887 333.34 277.545 333.64 277.089 333.856C276.645 334.072 276.099 334.18 275.451 334.18C274.863 334.18 274.359 334.108 273.939 333.964C273.531 333.808 273.189 333.61 272.913 333.37C272.637 333.118 272.421 332.854 272.265 332.578C272.121 332.302 272.025 332.032 271.977 331.768C271.929 331.504 271.917 331.282 271.941 331.102ZM279.688 325H284.98V326.35H279.688V325ZM281.614 322.66H283.054V334H281.614V322.66ZM288.84 322.3H298.2V323.65H288.84V322.3ZM292.8 323.506H294.24V334H292.8V323.506ZM304.392 331.102H305.742C305.646 331.69 305.43 332.218 305.094 332.686C304.77 333.142 304.338 333.508 303.798 333.784C303.27 334.048 302.658 334.18 301.962 334.18C301.122 334.18 300.366 333.982 299.694 333.586C299.022 333.178 298.488 332.626 298.092 331.93C297.708 331.222 297.516 330.418 297.516 329.518C297.516 328.618 297.702 327.814 298.074 327.106C298.458 326.398 298.98 325.84 299.64 325.432C300.3 325.024 301.044 324.82 301.872 324.82C302.748 324.82 303.486 325.018 304.086 325.414C304.698 325.798 305.148 326.368 305.436 327.124C305.736 327.868 305.856 328.786 305.796 329.878H298.956C299.016 330.466 299.178 330.982 299.442 331.426C299.706 331.87 300.054 332.218 300.486 332.47C300.918 332.71 301.41 332.83 301.962 332.83C302.574 332.83 303.09 332.674 303.51 332.362C303.942 332.038 304.236 331.618 304.392 331.102ZM301.926 326.17C301.182 326.17 300.558 326.386 300.054 326.818C299.55 327.25 299.214 327.838 299.046 328.582H304.32C304.272 327.79 304.014 327.19 303.546 326.782C303.09 326.374 302.55 326.17 301.926 326.17ZM311.054 334.18C310.346 334.18 309.692 333.982 309.092 333.586C308.504 333.178 308.03 332.626 307.67 331.93C307.322 331.222 307.148 330.418 307.148 329.518C307.148 328.618 307.328 327.814 307.688 327.106C308.048 326.398 308.534 325.84 309.146 325.432C309.77 325.024 310.466 324.82 311.234 324.82C312.074 324.82 312.71 325.036 313.142 325.468C313.586 325.888 313.886 326.452 314.042 327.16C314.21 327.868 314.294 328.654 314.294 329.518C314.294 329.974 314.246 330.472 314.15 331.012C314.054 331.54 313.886 332.05 313.646 332.542C313.418 333.022 313.094 333.418 312.674 333.73C312.254 334.03 311.714 334.18 311.054 334.18ZM311.414 332.812C312.026 332.812 312.53 332.662 312.926 332.362C313.334 332.062 313.634 331.666 313.826 331.174C314.018 330.67 314.114 330.118 314.114 329.518C314.114 328.858 314.012 328.282 313.808 327.79C313.616 327.286 313.316 326.896 312.908 326.62C312.512 326.332 312.014 326.188 311.414 326.188C310.514 326.188 309.818 326.506 309.326 327.142C308.834 327.766 308.588 328.558 308.588 329.518C308.588 330.154 308.708 330.724 308.948 331.228C309.2 331.72 309.536 332.11 309.956 332.398C310.388 332.674 310.874 332.812 311.414 332.812ZM314.114 325H315.554V334H314.24C314.24 334 314.228 333.892 314.204 333.676C314.192 333.46 314.174 333.208 314.15 332.92C314.126 332.632 314.114 332.392 314.114 332.2V325ZM317.9 325H319.34V334H317.9V325ZM322.436 324.82C322.916 324.82 323.348 324.892 323.732 325.036C324.116 325.18 324.44 325.39 324.704 325.666C324.968 325.942 325.172 326.278 325.316 326.674C325.46 327.058 325.532 327.496 325.532 327.988V334H324.092V328.348C324.092 327.652 323.93 327.13 323.606 326.782C323.282 326.434 322.796 326.26 322.148 326.26C321.656 326.26 321.2 326.386 320.78 326.638C320.36 326.89 320.012 327.238 319.736 327.682C319.472 328.114 319.31 328.618 319.25 329.194L319.232 328.15C319.292 327.646 319.412 327.19 319.592 326.782C319.784 326.374 320.018 326.026 320.294 325.738C320.582 325.438 320.906 325.21 321.266 325.054C321.638 324.898 322.028 324.82 322.436 324.82ZM328.484 324.82C328.964 324.82 329.396 324.892 329.78 325.036C330.164 325.18 330.488 325.39 330.752 325.666C331.016 325.942 331.22 326.278 331.364 326.674C331.508 327.058 331.58 327.496 331.58 327.988V334H330.14V328.348C330.14 327.652 329.978 327.13 329.654 326.782C329.33 326.434 328.844 326.26 328.196 326.26C327.704 326.26 327.248 326.386 326.828 326.638C326.408 326.89 326.06 327.238 325.784 327.682C325.52 328.114 325.358 328.618 325.298 329.194L325.28 328.15C325.34 327.646 325.46 327.19 325.64 326.782C325.832 326.374 326.066 326.026 326.342 325.738C326.63 325.438 326.954 325.21 327.314 325.054C327.686 324.898 328.076 324.82 328.484 324.82ZM333.482 331.102H334.814C334.85 331.618 335.042 332.038 335.39 332.362C335.75 332.686 336.266 332.848 336.938 332.848C337.346 332.848 337.664 332.794 337.892 332.686C338.132 332.578 338.306 332.434 338.414 332.254C338.522 332.062 338.576 331.852 338.576 331.624C338.576 331.348 338.504 331.132 338.36 330.976C338.228 330.808 338.042 330.67 337.802 330.562C337.574 330.454 337.31 330.352 337.01 330.256C336.662 330.124 336.302 329.986 335.93 329.842C335.57 329.686 335.228 329.506 334.904 329.302C334.592 329.086 334.34 328.828 334.148 328.528C333.956 328.216 333.86 327.844 333.86 327.412C333.86 327.052 333.932 326.716 334.076 326.404C334.22 326.08 334.424 325.804 334.688 325.576C334.964 325.336 335.282 325.15 335.642 325.018C336.014 324.886 336.422 324.82 336.866 324.82C337.466 324.82 337.97 324.94 338.378 325.18C338.798 325.42 339.116 325.762 339.332 326.206C339.56 326.638 339.68 327.142 339.692 327.718H338.45C338.366 327.178 338.192 326.788 337.928 326.548C337.676 326.296 337.31 326.17 336.83 326.17C336.338 326.17 335.96 326.278 335.696 326.494C335.432 326.71 335.3 326.998 335.3 327.358C335.3 327.622 335.396 327.844 335.588 328.024C335.78 328.192 336.026 328.348 336.326 328.492C336.638 328.624 336.968 328.762 337.316 328.906C337.664 329.05 338 329.194 338.324 329.338C338.648 329.482 338.936 329.65 339.188 329.842C339.44 330.034 339.638 330.274 339.782 330.562C339.938 330.838 340.016 331.186 340.016 331.606C340.016 332.11 339.896 332.56 339.656 332.956C339.428 333.34 339.086 333.64 338.63 333.856C338.186 334.072 337.64 334.18 336.992 334.18C336.404 334.18 335.9 334.108 335.48 333.964C335.072 333.808 334.73 333.61 334.454 333.37C334.178 333.118 333.962 332.854 333.806 332.578C333.662 332.302 333.566 332.032 333.518 331.768C333.47 331.504 333.458 331.282 333.482 331.102Z" fill="#242424"/>
<rect x="461" y="140" width="1" height="190" rx="0.5" fill="black" fill-opacity="0.2"/>
<path d="M639.16 202.377C638.222 202.756 637.582 203.636 637.508 204.644C637.42 205.63 637.899 206.58 638.743 207.097C641.547 208.778 644.977 209.049 648.011 207.831C647.712 209.188 647.233 210.5 646.587 211.731C646.199 212.461 646.17 213.329 646.508 214.083C646.835 214.824 647.486 215.371 648.272 215.567C649.416 215.846 650.589 215.986 651.767 215.984C656.913 215.984 665.163 213.299 669.491 197.717L669.74 197.596C670.851 197.052 672.151 197.052 673.261 197.596L673.509 197.717C677.837 213.303 686.084 215.984 691.235 215.984C692.414 215.986 693.589 215.845 694.735 215.564C695.518 215.368 696.167 214.822 696.492 214.083C696.83 213.329 696.801 212.461 696.413 211.731C695.774 210.496 695.288 209.188 694.967 207.836C698.007 209.047 701.438 208.774 704.249 207.099C705.098 206.582 705.58 205.629 705.493 204.639C705.42 203.631 704.78 202.752 703.843 202.372C695.709 199.071 691.433 194.737 689.199 191.369C689.59 191.142 690.017 190.983 690.461 190.897L694.167 190.255C697.86 189.588 700.345 186.096 699.767 182.388L699.291 179.035C699.096 177.691 699.532 176.332 700.473 175.353L702.845 172.919C705.482 170.174 705.482 165.836 702.845 163.091L700.473 160.653C699.533 159.675 699.096 158.317 699.291 156.973L699.767 153.62C700.345 149.912 697.86 146.42 694.167 145.753L690.46 145.097C689.197 144.874 688.109 144.077 687.516 142.94L685.751 139.631C684.063 136.404 680.121 135.097 676.84 136.676L673.261 138.409C672.151 138.954 670.851 138.954 669.74 138.409L666.167 136.676C662.886 135.095 658.943 136.403 657.257 139.631L655.484 142.933C654.892 144.073 653.804 144.873 652.54 145.097L648.833 145.745C645.14 146.412 642.654 149.904 643.233 153.612L643.709 156.965C643.904 158.309 643.468 159.668 642.527 160.647L640.151 163.085C637.513 165.831 637.513 170.168 640.151 172.913L642.523 175.351C643.463 176.329 643.9 177.687 643.705 179.031L643.233 182.384C642.654 186.092 645.14 189.584 648.833 190.251L652.545 190.899C652.99 190.984 653.417 191.144 653.808 191.371C651.568 194.743 647.291 199.076 639.16 202.377ZM702.849 204.829C700.712 206.073 698.118 206.252 695.831 205.313C694.942 205 693.954 205.193 693.249 205.817C692.52 206.457 692.189 207.439 692.383 208.389C692.731 209.989 693.304 211.532 694.084 212.972C690.42 213.884 681.725 214.209 676.777 199.293L676.84 199.324C678.892 200.318 681.309 200.195 683.249 198.997C684.731 201.619 686.922 203.769 689.571 205.2C689.997 205.415 690.505 205.385 690.903 205.123C691.302 204.862 691.531 204.407 691.503 203.931C691.476 203.455 691.197 203.029 690.771 202.815C688.397 201.512 686.482 199.51 685.285 197.081C685.456 196.856 685.614 196.62 685.756 196.375L687.348 193.391C689.891 197.007 694.516 201.467 702.849 204.829ZM649.287 187.628C647.03 187.178 645.526 185.034 645.869 182.759L646.347 179.407C646.653 177.246 645.947 175.064 644.433 173.491L642.063 171.053C640.419 169.349 640.419 166.65 642.063 164.945L644.433 162.511C645.947 160.937 646.652 158.755 646.347 156.593L645.869 153.241C645.526 150.966 647.03 148.823 649.287 148.372L652.999 147.725C655.071 147.362 656.858 146.058 657.836 144.195L659.601 140.887C660.313 139.53 661.714 138.677 663.245 138.667C663.852 138.666 664.45 138.803 664.996 139.067L668.573 140.8C670.419 141.704 672.579 141.704 674.425 140.8L678.004 139.067C679.997 138.116 682.384 138.918 683.399 140.879L685.164 144.187C686.142 146.05 687.929 147.354 690.001 147.717L693.713 148.364C695.97 148.815 697.474 150.958 697.131 153.233L696.653 156.585C696.345 158.749 697.051 160.935 698.567 162.509L700.937 164.947C702.581 166.651 702.581 169.35 700.937 171.055L698.567 173.489C697.053 175.063 696.348 177.245 696.653 179.407L697.131 182.759C697.474 185.034 695.97 187.178 693.713 187.628L690.001 188.275C687.929 188.638 686.142 189.942 685.164 191.805L683.399 195.113C682.383 197.073 679.997 197.875 678.004 196.925L674.427 195.192C672.581 194.288 670.421 194.288 668.575 195.192L664.996 196.925C663.003 197.875 660.617 197.073 659.601 195.113L657.836 191.805C656.858 189.942 655.071 188.638 652.999 188.275L649.287 187.628ZM655.657 193.385L657.257 196.369C657.394 196.624 657.547 196.869 657.716 197.104C656.516 199.52 654.607 201.51 652.243 202.808C651.817 203.021 651.537 203.446 651.508 203.921C651.48 204.397 651.707 204.851 652.105 205.114C652.502 205.376 653.01 205.407 653.436 205.193C656.079 203.767 658.268 201.625 659.751 199.012C660.802 199.654 662.009 199.996 663.241 200C664.255 200 665.256 199.769 666.167 199.324L666.229 199.293C661.275 214.212 652.581 213.881 648.947 212.967C649.708 211.515 650.271 209.968 650.621 208.367C650.807 207.423 650.475 206.451 649.751 205.817C649.048 205.195 648.064 205.001 647.179 205.311C644.895 206.245 642.308 206.075 640.167 204.849C648.485 201.467 653.109 197.007 655.657 193.385Z" fill="#CFB53B"/>
<path d="M659.5 181.334H662.167C663.344 181.33 664.459 180.804 665.211 179.898C666.152 180.302 667.067 180.766 667.949 181.287C670.62 182.674 673.589 183.388 676.599 183.366C678.482 183.386 680.353 183.067 682.123 182.423C684.798 181.519 686.916 179.444 687.873 176.787C689.504 172.091 689.215 167.543 687.081 164.308C685.115 161.334 681.987 161.334 679.233 161.334H678.033C679.515 159.119 680.25 156.49 680.132 153.828C679.96 151.028 678.635 149.075 676.496 148.482C675.493 148.186 674.414 148.309 673.504 148.824C672.459 149.45 671.704 150.464 671.404 151.644C670.156 155.628 667.991 159.264 665.084 162.26L664.981 162.374L664.917 162.443C664.177 161.733 663.192 161.336 662.167 161.334H659.5C657.291 161.334 655.5 163.124 655.5 165.334V177.334C655.5 179.543 657.291 181.334 659.5 181.334ZM666.967 164.154L667.072 164.036C670.258 160.737 672.622 156.734 673.973 152.351C674.09 151.855 674.393 151.423 674.819 151.143C675.113 150.981 675.461 150.947 675.78 151.051C677.113 151.422 677.412 153.051 677.469 153.991C677.656 157.058 676.003 160.604 673.996 161.435C673.408 161.678 673.074 162.304 673.198 162.928C673.323 163.552 673.871 164.001 674.508 164H679.377C682.044 164 683.743 164.091 684.855 165.778C687.232 169.378 685.996 174.066 685.356 175.911C684.657 177.823 683.115 179.305 681.177 179.928C677.234 181.205 672.945 180.859 669.259 178.964C668.263 178.378 667.231 177.857 666.167 177.407C666.167 177.382 666.167 177.359 666.167 177.334V165.334C666.167 165.222 666.143 165.116 666.133 165.006C666.445 164.714 666.732 164.416 666.967 164.154ZM658.167 165.334C658.167 164.597 658.764 164 659.5 164H662.167C662.903 164 663.5 164.597 663.5 165.334V177.334C663.5 178.07 662.903 178.667 662.167 178.667H659.5C658.764 178.667 658.167 178.07 658.167 177.334V165.334Z" fill="#CFB53B"/>
<path d="M671.5 148C672.236 148 672.833 147.403 672.833 146.667V145.333C672.833 144.597 672.236 144 671.5 144C670.764 144 670.167 144.597 670.167 145.333V146.667C670.167 147.403 670.764 148 671.5 148Z" fill="#CFB53B"/>
<path d="M671.5 188C670.764 188 670.167 188.597 670.167 189.333V190.667C670.167 191.403 670.764 192 671.5 192C672.236 192 672.833 191.403 672.833 190.667V189.333C672.833 188.597 672.236 188 671.5 188Z" fill="#CFB53B"/>
<path d="M659.679 150.192C659.915 150.608 660.356 150.865 660.835 150.866C661.313 150.867 661.756 150.612 661.994 150.197C662.232 149.782 662.23 149.271 661.988 148.859L661.321 147.703C660.951 147.07 660.139 146.856 659.504 147.222C658.87 147.589 658.65 148.399 659.012 149.036L659.679 150.192Z" fill="#CFB53B"/>
<path d="M683.321 185.808C683.085 185.392 682.644 185.135 682.165 185.134C681.687 185.133 681.244 185.388 681.006 185.803C680.768 186.218 680.77 186.729 681.012 187.141L681.679 188.297C682.049 188.93 682.861 189.144 683.496 188.778C684.13 188.411 684.35 187.601 683.988 186.964L683.321 185.808Z" fill="#CFB53B"/>
<path d="M653.692 156.179L652.536 155.512C651.899 155.15 651.089 155.37 650.722 156.005C650.356 156.639 650.57 157.451 651.203 157.822L652.359 158.488C652.771 158.73 653.282 158.733 653.697 158.494C654.112 158.256 654.367 157.814 654.366 157.335C654.365 156.857 654.108 156.416 653.692 156.179Z" fill="#CFB53B"/>
<path d="M691.797 178.179L690.641 177.512C690.004 177.15 689.194 177.37 688.828 178.005C688.461 178.639 688.676 179.451 689.308 179.822L690.464 180.488C691.101 180.851 691.911 180.631 692.278 179.996C692.644 179.361 692.43 178.55 691.797 178.179Z" fill="#CFB53B"/>
<path d="M651.5 168C651.5 167.264 650.903 166.667 650.167 166.667H648.833C648.097 166.667 647.5 167.264 647.5 168C647.5 168.737 648.097 169.334 648.833 169.334H650.167C650.903 169.334 651.5 168.737 651.5 168Z" fill="#CFB53B"/>
<path d="M691.5 168C691.5 168.737 692.097 169.334 692.833 169.334H694.167C694.903 169.334 695.5 168.737 695.5 168C695.5 167.264 694.903 166.667 694.167 166.667H692.833C692.097 166.667 691.5 167.264 691.5 168Z" fill="#CFB53B"/>
<path d="M652.359 177.512L651.203 178.179C650.787 178.416 650.529 178.857 650.528 179.335C650.527 179.814 650.783 180.256 651.198 180.494C651.612 180.733 652.123 180.73 652.536 180.488L653.692 179.822C654.324 179.451 654.539 178.639 654.172 178.005C653.806 177.37 652.996 177.15 652.359 177.512Z" fill="#CFB53B"/>
<path d="M689.976 158.667C690.21 158.668 690.44 158.606 690.643 158.488L691.799 157.822C692.431 157.451 692.645 156.639 692.279 156.005C691.913 155.37 691.102 155.15 690.465 155.512L689.309 156.179C688.787 156.481 688.532 157.096 688.688 157.679C688.844 158.262 689.373 158.667 689.976 158.667Z" fill="#CFB53B"/>
<path d="M661.5 185.32C660.862 184.952 660.047 185.17 659.679 185.808L659.012 186.964C658.77 187.377 658.768 187.887 659.006 188.302C659.244 188.717 659.687 188.973 660.165 188.972C660.644 188.971 661.085 188.713 661.321 188.297L661.988 187.141C662.356 186.504 662.138 185.688 661.5 185.32Z" fill="#CFB53B"/>
<path d="M681.5 150.68C682.138 151.048 682.953 150.83 683.321 150.192L683.988 149.036C684.35 148.399 684.13 147.589 683.496 147.222C682.861 146.856 682.049 147.07 681.679 147.703L681.012 148.859C680.644 149.496 680.862 150.312 681.5 150.68Z" fill="#CFB53B"/>
<path d="M612.746 290H583.346V282.2L597.266 267.5C598.786 265.86 599.826 264.6 600.386 263.72C600.986 262.8 601.286 261.9 601.286 261.02C601.286 259.94 600.946 259.1 600.266 258.5C599.626 257.86 598.726 257.54 597.566 257.54C595.046 257.54 593.166 259 591.926 261.92L582.686 256.76C584.006 253.68 585.966 251.3 588.566 249.62C591.206 247.94 594.166 247.1 597.446 247.1C601.446 247.1 604.866 248.3 607.706 250.7C610.586 253.06 612.026 256.3 612.026 260.42C612.026 262.74 611.486 264.94 610.406 267.02C609.326 269.06 607.626 271.28 605.306 273.68L599.606 279.62H612.746V290ZM645.641 284.96C642.601 288.92 638.341 290.9 632.861 290.9C627.381 290.9 623.101 288.92 620.021 284.96C616.981 280.96 615.461 275.64 615.461 269C615.461 262.32 616.981 257.02 620.021 253.1C623.061 249.1 627.341 247.1 632.861 247.1C638.341 247.1 642.601 249.1 645.641 253.1C648.721 257.1 650.261 262.4 650.261 269C650.261 275.6 648.721 280.92 645.641 284.96ZM632.861 257.54C628.421 257.54 626.201 261.36 626.201 269C626.201 276.64 628.421 280.46 632.861 280.46C637.301 280.46 639.521 276.64 639.521 269C639.521 261.36 637.301 257.54 632.861 257.54ZM683.434 284.96C680.394 288.92 676.134 290.9 670.654 290.9C665.174 290.9 660.894 288.92 657.814 284.96C654.774 280.96 653.254 275.64 653.254 269C653.254 262.32 654.774 257.02 657.814 253.1C660.854 249.1 665.134 247.1 670.654 247.1C676.134 247.1 680.394 249.1 683.434 253.1C686.514 257.1 688.054 262.4 688.054 269C688.054 275.6 686.514 280.92 683.434 284.96ZM670.654 257.54C666.214 257.54 663.994 261.36 663.994 269C663.994 276.64 666.214 280.46 670.654 280.46C675.094 280.46 677.314 276.64 677.314 269C677.314 261.36 675.094 257.54 670.654 257.54ZM721.227 284.96C718.187 288.92 713.927 290.9 708.447 290.9C702.967 290.9 698.687 288.92 695.607 284.96C692.567 280.96 691.047 275.64 691.047 269C691.047 262.32 692.567 257.02 695.607 253.1C698.647 249.1 702.927 247.1 708.447 247.1C713.927 247.1 718.187 249.1 721.227 253.1C724.307 257.1 725.847 262.4 725.847 269C725.847 275.6 724.307 280.92 721.227 284.96ZM708.447 257.54C704.007 257.54 701.787 261.36 701.787 269C701.787 276.64 704.007 280.46 708.447 280.46C712.887 280.46 715.107 276.64 715.107 269C715.107 261.36 712.887 257.54 708.447 257.54ZM748.88 264.26H758.48V273.74H748.88V283.34H739.4V273.74H729.8V264.26H739.4V254.66H748.88V264.26Z" fill="#024342"/>
<path opacity="0.6" d="M599.393 329.86V328.51H603.065C603.785 328.51 604.367 328.288 604.811 327.844C605.267 327.388 605.495 326.8 605.495 326.08C605.495 325.336 605.267 324.748 604.811 324.316C604.367 323.872 603.785 323.65 603.065 323.65H599.681V334H598.241V322.3H603.065C603.605 322.3 604.109 322.384 604.577 322.552C605.045 322.72 605.453 322.966 605.801 323.29C606.161 323.614 606.437 324.01 606.629 324.478C606.833 324.946 606.935 325.48 606.935 326.08C606.935 326.68 606.833 327.214 606.629 327.682C606.437 328.15 606.161 328.546 605.801 328.87C605.453 329.194 605.045 329.44 604.577 329.608C604.109 329.776 603.605 329.86 603.065 329.86H599.393ZM608.923 325H610.363V334H608.923V325ZM613.243 326.35C612.631 326.35 612.115 326.506 611.695 326.818C611.287 327.118 610.963 327.49 610.723 327.934C610.495 328.366 610.345 328.786 610.273 329.194L610.255 328.15C610.255 328.042 610.279 327.862 610.327 327.61C610.375 327.358 610.465 327.076 610.597 326.764C610.729 326.44 610.903 326.134 611.119 325.846C611.347 325.546 611.635 325.3 611.983 325.108C612.331 324.916 612.751 324.82 613.243 324.82V326.35ZM618.77 334.18C618.002 334.18 617.282 333.994 616.61 333.622C615.938 333.25 615.392 332.716 614.972 332.02C614.564 331.312 614.36 330.478 614.36 329.518C614.36 328.558 614.564 327.73 614.972 327.034C615.392 326.326 615.938 325.78 616.61 325.396C617.282 325.012 618.002 324.82 618.77 324.82C619.538 324.82 620.252 325.012 620.912 325.396C621.584 325.78 622.124 326.326 622.532 327.034C622.94 327.73 623.144 328.558 623.144 329.518C623.144 330.478 622.94 331.312 622.532 332.02C622.124 332.716 621.584 333.25 620.912 333.622C620.252 333.994 619.538 334.18 618.77 334.18ZM618.77 332.83C619.274 332.83 619.748 332.704 620.192 332.452C620.636 332.2 620.996 331.828 621.272 331.336C621.56 330.832 621.704 330.226 621.704 329.518C621.704 328.81 621.56 328.21 621.272 327.718C620.996 327.214 620.636 326.83 620.192 326.566C619.748 326.302 619.274 326.17 618.77 326.17C618.266 326.17 617.786 326.302 617.33 326.566C616.886 326.818 616.52 327.196 616.232 327.7C615.944 328.192 615.8 328.798 615.8 329.518C615.8 330.226 615.938 330.832 616.214 331.336C616.502 331.828 616.874 332.2 617.33 332.452C617.786 332.704 618.266 332.83 618.77 332.83ZM625.116 325H626.556V337.6H625.116V325ZM626.754 321.4V323.146H624.882V321.4H626.754ZM635.369 331.102H636.719C636.623 331.69 636.407 332.218 636.071 332.686C635.747 333.142 635.315 333.508 634.775 333.784C634.247 334.048 633.635 334.18 632.939 334.18C632.099 334.18 631.343 333.982 630.671 333.586C629.999 333.178 629.465 332.626 629.069 331.93C628.685 331.222 628.493 330.418 628.493 329.518C628.493 328.618 628.679 327.814 629.051 327.106C629.435 326.398 629.957 325.84 630.617 325.432C631.277 325.024 632.021 324.82 632.849 324.82C633.725 324.82 634.463 325.018 635.063 325.414C635.675 325.798 636.125 326.368 636.413 327.124C636.713 327.868 636.833 328.786 636.773 329.878H629.933C629.993 330.466 630.155 330.982 630.419 331.426C630.683 331.87 631.031 332.218 631.463 332.47C631.895 332.71 632.387 332.83 632.939 332.83C633.551 332.83 634.067 332.674 634.487 332.362C634.919 332.038 635.213 331.618 635.369 331.102ZM632.903 326.17C632.159 326.17 631.535 326.386 631.031 326.818C630.527 327.25 630.191 327.838 630.023 328.582H635.297C635.249 327.79 634.991 327.19 634.523 326.782C634.067 326.374 633.527 326.17 632.903 326.17ZM646.622 330.616C646.538 331.36 646.298 332.002 645.902 332.542C645.518 333.07 645.032 333.478 644.444 333.766C643.856 334.042 643.22 334.18 642.536 334.18C641.768 334.18 641.048 333.994 640.376 333.622C639.704 333.25 639.158 332.716 638.738 332.02C638.33 331.312 638.126 330.478 638.126 329.518C638.126 328.558 638.33 327.73 638.738 327.034C639.158 326.326 639.704 325.78 640.376 325.396C641.048 325.012 641.768 324.82 642.536 324.82C643.22 324.82 643.85 324.964 644.426 325.252C645.014 325.54 645.5 325.948 645.884 326.476C646.28 327.004 646.526 327.634 646.622 328.366H645.308C645.104 327.682 644.75 327.148 644.246 326.764C643.742 326.368 643.172 326.17 642.536 326.17C642.02 326.17 641.534 326.302 641.078 326.566C640.622 326.83 640.256 327.214 639.98 327.718C639.704 328.21 639.566 328.81 639.566 329.518C639.566 330.214 639.704 330.814 639.98 331.318C640.256 331.81 640.616 332.188 641.06 332.452C641.516 332.704 642.008 332.83 642.536 332.83C643.268 332.83 643.862 332.638 644.318 332.254C644.786 331.858 645.122 331.312 645.326 330.616H646.622ZM647.826 325H653.118V326.35H647.826V325ZM649.752 322.66H651.192V334H649.752V322.66ZM668.931 330.094C668.811 330.934 668.523 331.66 668.067 332.272C667.611 332.884 667.029 333.358 666.321 333.694C665.625 334.018 664.845 334.18 663.981 334.18C663.177 334.18 662.433 334.042 661.749 333.766C661.065 333.478 660.465 333.07 659.949 332.542C659.445 332.014 659.049 331.378 658.761 330.634C658.473 329.89 658.329 329.062 658.329 328.15C658.329 327.226 658.473 326.398 658.761 325.666C659.049 324.922 659.445 324.286 659.949 323.758C660.465 323.23 661.065 322.828 661.749 322.552C662.433 322.264 663.177 322.12 663.981 322.12C664.857 322.12 665.643 322.288 666.339 322.624C667.047 322.948 667.629 323.422 668.085 324.046C668.541 324.658 668.829 325.39 668.949 326.242H667.617C667.449 325.642 667.185 325.138 666.825 324.73C666.477 324.322 666.057 324.01 665.565 323.794C665.073 323.578 664.545 323.47 663.981 323.47C663.249 323.47 662.559 323.65 661.911 324.01C661.275 324.37 660.759 324.898 660.363 325.594C659.967 326.29 659.769 327.142 659.769 328.15C659.769 329.158 659.967 330.01 660.363 330.706C660.759 331.402 661.275 331.93 661.911 332.29C662.559 332.65 663.249 332.83 663.981 332.83C664.545 332.83 665.067 332.728 665.547 332.524C666.039 332.308 666.459 331.996 666.807 331.588C667.167 331.18 667.431 330.682 667.599 330.094H668.931ZM674.932 334.18C674.164 334.18 673.444 333.994 672.772 333.622C672.1 333.25 671.554 332.716 671.134 332.02C670.726 331.312 670.522 330.478 670.522 329.518C670.522 328.558 670.726 327.73 671.134 327.034C671.554 326.326 672.1 325.78 672.772 325.396C673.444 325.012 674.164 324.82 674.932 324.82C675.7 324.82 676.414 325.012 677.074 325.396C677.746 325.78 678.286 326.326 678.694 327.034C679.102 327.73 679.306 328.558 679.306 329.518C679.306 330.478 679.102 331.312 678.694 332.02C678.286 332.716 677.746 333.25 677.074 333.622C676.414 333.994 675.7 334.18 674.932 334.18ZM674.932 332.83C675.436 332.83 675.91 332.704 676.354 332.452C676.798 332.2 677.158 331.828 677.434 331.336C677.722 330.832 677.866 330.226 677.866 329.518C677.866 328.81 677.722 328.21 677.434 327.718C677.158 327.214 676.798 326.83 676.354 326.566C675.91 326.302 675.436 326.17 674.932 326.17C674.428 326.17 673.948 326.302 673.492 326.566C673.048 326.818 672.682 327.196 672.394 327.7C672.106 328.192 671.962 328.798 671.962 329.518C671.962 330.226 672.1 330.832 672.376 331.336C672.664 331.828 673.036 332.2 673.492 332.452C673.948 332.704 674.428 332.83 674.932 332.83ZM681.134 325H682.574V334H681.134V325ZM685.67 324.82C686.15 324.82 686.582 324.892 686.966 325.036C687.35 325.18 687.674 325.39 687.938 325.666C688.202 325.942 688.406 326.278 688.55 326.674C688.694 327.058 688.766 327.496 688.766 327.988V334H687.326V328.348C687.326 327.652 687.164 327.13 686.84 326.782C686.516 326.434 686.03 326.26 685.382 326.26C684.89 326.26 684.434 326.386 684.014 326.638C683.594 326.89 683.246 327.238 682.97 327.682C682.706 328.114 682.544 328.618 682.484 329.194L682.466 328.15C682.526 327.646 682.646 327.19 682.826 326.782C683.018 326.374 683.252 326.026 683.528 325.738C683.816 325.438 684.14 325.21 684.5 325.054C684.872 324.898 685.262 324.82 685.67 324.82ZM691.718 324.82C692.198 324.82 692.63 324.892 693.014 325.036C693.398 325.18 693.722 325.39 693.986 325.666C694.25 325.942 694.454 326.278 694.598 326.674C694.742 327.058 694.814 327.496 694.814 327.988V334H693.374V328.348C693.374 327.652 693.212 327.13 692.888 326.782C692.564 326.434 692.078 326.26 691.43 326.26C690.938 326.26 690.482 326.386 690.062 326.638C689.642 326.89 689.294 327.238 689.018 327.682C688.754 328.114 688.592 328.618 688.532 329.194L688.514 328.15C688.574 327.646 688.694 327.19 688.874 326.782C689.066 326.374 689.3 326.026 689.576 325.738C689.864 325.438 690.188 325.21 690.548 325.054C690.92 324.898 691.31 324.82 691.718 324.82ZM701.648 334.18C700.988 334.18 700.448 334.03 700.028 333.73C699.608 333.418 699.278 333.022 699.038 332.542C698.81 332.05 698.648 331.54 698.552 331.012C698.456 330.472 698.408 329.974 698.408 329.518C698.408 328.87 698.45 328.264 698.534 327.7C698.63 327.136 698.792 326.638 699.02 326.206C699.248 325.774 699.572 325.438 699.992 325.198C700.424 324.946 700.976 324.82 701.648 324.82C702.368 324.82 703.022 325.024 703.61 325.432C704.198 325.84 704.666 326.398 705.014 327.106C705.374 327.814 705.554 328.618 705.554 329.518C705.554 330.418 705.374 331.222 705.014 331.93C704.654 332.626 704.174 333.178 703.574 333.586C702.986 333.982 702.344 334.18 701.648 334.18ZM701.288 332.812C701.84 332.812 702.326 332.674 702.746 332.398C703.178 332.11 703.514 331.72 703.754 331.228C703.994 330.724 704.114 330.154 704.114 329.518C704.114 328.558 703.868 327.766 703.376 327.142C702.884 326.506 702.188 326.188 701.288 326.188C700.76 326.188 700.292 326.332 699.884 326.62C699.476 326.896 699.158 327.286 698.93 327.79C698.702 328.282 698.588 328.858 698.588 329.518C698.588 330.118 698.684 330.67 698.876 331.174C699.08 331.666 699.38 332.062 699.776 332.362C700.172 332.662 700.676 332.812 701.288 332.812ZM697.148 325H698.534L698.588 326.89V337.6H697.148V325ZM707.576 321.4H709.016V334H707.576V321.4ZM717.916 331.102H719.266C719.17 331.69 718.954 332.218 718.618 332.686C718.294 333.142 717.862 333.508 717.322 333.784C716.794 334.048 716.182 334.18 715.486 334.18C714.646 334.18 713.89 333.982 713.218 333.586C712.546 333.178 712.012 332.626 711.616 331.93C711.232 331.222 711.04 330.418 711.04 329.518C711.04 328.618 711.226 327.814 711.598 327.106C711.982 326.398 712.504 325.84 713.164 325.432C713.824 325.024 714.568 324.82 715.396 324.82C716.272 324.82 717.01 325.018 717.61 325.414C718.222 325.798 718.672 326.368 718.96 327.124C719.26 327.868 719.38 328.786 719.32 329.878H712.48C712.54 330.466 712.702 330.982 712.966 331.426C713.23 331.87 713.578 332.218 714.01 332.47C714.442 332.71 714.934 332.83 715.486 332.83C716.098 332.83 716.614 332.674 717.034 332.362C717.466 332.038 717.76 331.618 717.916 331.102ZM715.45 326.17C714.706 326.17 714.082 326.386 713.578 326.818C713.074 327.25 712.738 327.838 712.57 328.582H717.844C717.796 327.79 717.538 327.19 717.07 326.782C716.614 326.374 716.074 326.17 715.45 326.17ZM720.371 325H725.663V326.35H720.371V325ZM722.297 322.66H723.737V334H722.297V322.66ZM733.561 331.102H734.911C734.815 331.69 734.599 332.218 734.263 332.686C733.939 333.142 733.507 333.508 732.967 333.784C732.439 334.048 731.827 334.18 731.131 334.18C730.291 334.18 729.535 333.982 728.863 333.586C728.191 333.178 727.657 332.626 727.261 331.93C726.877 331.222 726.685 330.418 726.685 329.518C726.685 328.618 726.871 327.814 727.243 327.106C727.627 326.398 728.149 325.84 728.809 325.432C729.469 325.024 730.213 324.82 731.041 324.82C731.917 324.82 732.655 325.018 733.255 325.414C733.867 325.798 734.317 326.368 734.605 327.124C734.905 327.868 735.025 328.786 734.965 329.878H728.125C728.185 330.466 728.347 330.982 728.611 331.426C728.875 331.87 729.223 332.218 729.655 332.47C730.087 332.71 730.579 332.83 731.131 332.83C731.743 332.83 732.259 332.674 732.679 332.362C733.111 332.038 733.405 331.618 733.561 331.102ZM731.095 326.17C730.351 326.17 729.727 326.386 729.223 326.818C728.719 327.25 728.383 327.838 728.215 328.582H733.489C733.441 327.79 733.183 327.19 732.715 326.782C732.259 326.374 731.719 326.17 731.095 326.17ZM740.223 334.18C739.503 334.18 738.843 333.982 738.243 333.586C737.655 333.178 737.187 332.626 736.839 331.93C736.491 331.222 736.317 330.418 736.317 329.518C736.317 328.618 736.485 327.814 736.821 327.106C737.157 326.398 737.619 325.84 738.207 325.432C738.795 325.024 739.467 324.82 740.223 324.82C740.895 324.82 741.441 324.946 741.861 325.198C742.293 325.438 742.623 325.774 742.851 326.206C743.079 326.638 743.235 327.136 743.319 327.7C743.415 328.264 743.463 328.87 743.463 329.518C743.463 329.974 743.415 330.472 743.319 331.012C743.223 331.54 743.055 332.05 742.815 332.542C742.587 333.022 742.263 333.418 741.843 333.73C741.423 334.03 740.883 334.18 740.223 334.18ZM740.583 332.812C741.195 332.812 741.699 332.662 742.095 332.362C742.503 332.062 742.803 331.666 742.995 331.174C743.187 330.67 743.283 330.118 743.283 329.518C743.283 328.858 743.181 328.282 742.977 327.79C742.785 327.286 742.485 326.896 742.077 326.62C741.681 326.332 741.183 326.188 740.583 326.188C739.683 326.188 738.987 326.506 738.495 327.142C738.003 327.766 737.757 328.558 737.757 329.518C737.757 330.154 737.877 330.724 738.117 331.228C738.369 331.72 738.705 332.11 739.125 332.398C739.557 332.674 740.043 332.812 740.583 332.812ZM743.283 321.4H744.723V334H743.409C743.385 333.736 743.355 333.424 743.319 333.064C743.295 332.704 743.283 332.416 743.283 332.2V321.4Z" fill="#242424"/>
<rect x="881" y="140" width="1" height="190" rx="0.5" fill="black" fill-opacity="0.2"/>
<path d="M1058 170.386C1058 174.734 1059.58 179.138 1062.34 182.468C1065.25 185.969 1069.04 187.897 1073.02 187.897C1077 187.897 1080.78 185.97 1083.68 182.471C1086.43 179.145 1088.01 174.743 1088.01 170.394V166.563C1089.12 161.769 1089.36 157.621 1089.35 154.975C1089.35 151.559 1088.98 149.198 1088.63 148.129C1088.45 147.56 1087.9 147.215 1087.33 147.271C1087.23 147.262 1087.13 147.263 1087.04 147.277C1084.71 147.609 1081.86 147.036 1078.84 146.43C1073.95 145.448 1068.42 144.339 1064.19 147.27C1064.16 147.267 1064.12 147.264 1064.08 147.264C1061.71 147.264 1059.6 148.212 1058.15 149.934C1056.81 151.524 1056.07 153.712 1056.07 156.095C1056.07 159.997 1057.73 167.209 1058 168.358L1058 170.386ZM1081.75 180.877C1079.34 183.792 1076.24 185.398 1073.02 185.398C1069.79 185.398 1066.69 183.79 1064.27 180.872C1061.87 177.983 1060.5 174.161 1060.5 170.386V168.887C1060.5 165.795 1062.57 161.592 1063.36 160.109C1074.6 158.824 1082.13 161.929 1083.83 162.728L1085.51 166.675V170.394C1085.51 174.171 1084.14 177.992 1081.75 180.877ZM1064.08 149.764C1064.17 149.764 1064.26 149.754 1064.34 149.736C1064.69 149.809 1065.06 149.739 1065.36 149.51C1068.73 146.95 1073.62 147.931 1078.35 148.881C1080.88 149.389 1083.3 149.875 1085.55 149.875C1085.86 149.875 1086.17 149.866 1086.47 149.846C1086.85 151.962 1087.16 156.519 1086.31 162.156L1085.96 161.324C1085.85 161.065 1085.65 160.851 1085.4 160.716C1085.05 160.519 1076.47 155.938 1062.51 157.69C1062.11 157.71 1061.71 157.931 1061.49 158.312C1061.41 158.45 1060.33 160.35 1059.39 162.779C1058.96 160.464 1058.57 157.86 1058.57 156.095C1058.57 151.722 1061.33 149.764 1064.08 149.764Z" fill="#CFB53B"/>
<path d="M1094.54 190.665C1094.52 190.657 1094.49 190.651 1094.46 190.645L1087.03 189.09L1085.06 186.108C1085.05 186.087 1085.03 186.066 1085.02 186.046C1084.66 185.57 1084.11 185.255 1083.52 185.183C1082.93 185.112 1082.33 185.287 1081.87 185.664C1081.86 185.67 1081.85 185.677 1081.84 185.684L1073 193.296L1064.16 185.684C1064.15 185.677 1064.14 185.671 1064.13 185.664C1063.67 185.287 1063.07 185.112 1062.48 185.183C1061.89 185.255 1061.34 185.57 1060.98 186.046C1060.97 186.066 1060.95 186.087 1060.94 186.108L1058.97 189.09L1051.54 190.645C1051.51 190.651 1051.48 190.657 1051.46 190.665C1049.29 191.271 1047.45 192.612 1046.14 194.542C1044.93 196.304 1044.27 198.43 1044.27 200.529V202.88C1044.27 204.941 1046.11 206.619 1048.36 206.619H1070.15C1070.16 206.619 1070.16 206.619 1070.16 206.619C1070.16 206.619 1070.16 206.619 1070.16 206.619H1075.84C1075.84 206.619 1075.84 206.619 1075.84 206.619C1075.84 206.619 1075.84 206.619 1075.85 206.619H1097.64C1099.89 206.619 1101.73 204.941 1101.73 202.88V200.529C1101.73 198.43 1101.07 196.304 1099.86 194.542C1098.55 192.612 1096.71 191.271 1094.54 190.665ZM1083.19 187.82L1084.75 190.173L1078.53 198.713L1074.84 195.014L1083.19 187.82ZM1072.18 201.629H1073.82L1074.32 204.119H1071.68L1072.18 201.629ZM1074.25 198.444C1074.25 198.856 1074 199.129 1073.83 199.129H1072.17C1072 199.129 1071.75 198.856 1071.75 198.444V197.963L1073 196.713L1074.25 197.963V198.444H1074.25ZM1062.81 187.82L1071.16 195.014L1067.46 198.712L1061.25 190.173L1062.81 187.82ZM1046.77 202.88V200.529C1046.77 197.581 1048.6 194.084 1052.09 193.083L1059.2 191.597L1066.3 201.366C1066.52 201.662 1066.85 201.848 1067.22 201.877C1067.25 201.88 1067.28 201.881 1067.31 201.881C1067.64 201.881 1067.96 201.75 1068.2 201.515L1069.66 200.057C1069.72 200.179 1069.79 200.296 1069.87 200.407L1069.13 204.119H1048.36C1047.5 204.119 1046.77 203.551 1046.77 202.88ZM1099.23 202.88C1099.23 203.551 1098.5 204.119 1097.64 204.119H1076.87L1076.13 200.407C1076.21 200.297 1076.28 200.179 1076.34 200.057L1077.8 201.515C1078.04 201.75 1078.36 201.881 1078.69 201.881C1078.72 201.881 1078.75 201.88 1078.78 201.877C1079.15 201.849 1079.48 201.662 1079.7 201.366L1086.8 191.597L1093.91 193.083C1097.4 194.084 1099.23 197.581 1099.23 200.53V202.88Z" fill="#CFB53B"/>
<path d="M1043.03 172.731C1043.03 175.768 1044.06 178.618 1045.94 180.756C1047.84 182.927 1050.38 184.122 1053.1 184.122C1055.13 184.122 1057.09 183.443 1058.76 182.158C1059.31 181.737 1059.41 180.953 1058.99 180.405C1058.57 179.858 1057.79 179.755 1057.24 180.176C1056.01 181.122 1054.58 181.622 1053.1 181.622C1048.92 181.622 1045.53 177.633 1045.53 172.731V171.997C1045.53 170.021 1046.34 167.406 1046.77 166.17C1049.47 165.931 1051.88 166.285 1053.85 166.576L1054.07 166.608C1054.13 166.617 1054.19 166.622 1054.25 166.622C1054.86 166.622 1055.4 166.175 1055.49 165.554C1055.59 164.871 1055.12 164.236 1054.43 164.135L1054.21 164.102C1051.91 163.763 1049.05 163.341 1045.72 163.769C1045.71 163.769 1045.71 163.769 1045.7 163.77C1045.7 163.77 1045.7 163.77 1045.7 163.77C1045.7 163.771 1045.69 163.772 1045.69 163.772C1045.65 163.777 1045.62 163.784 1045.58 163.792C1045.56 163.796 1045.54 163.802 1045.53 163.808C1045.51 163.813 1045.49 163.818 1045.47 163.824C1045.44 163.832 1045.42 163.842 1045.4 163.852C1045.38 163.857 1045.37 163.862 1045.36 163.868C1045.33 163.878 1045.31 163.89 1045.28 163.903C1045.27 163.909 1045.26 163.915 1045.25 163.922C1045.23 163.934 1045.21 163.948 1045.18 163.961C1045.17 163.97 1045.16 163.978 1045.14 163.988C1045.13 164 1045.11 164.013 1045.09 164.026C1045.08 164.039 1045.06 164.051 1045.05 164.064C1045.03 164.075 1045.02 164.087 1045.01 164.099C1044.99 164.115 1044.97 164.131 1044.96 164.149C1044.95 164.159 1044.94 164.171 1044.93 164.182C1044.91 164.201 1044.89 164.22 1044.88 164.241C1044.87 164.252 1044.86 164.265 1044.85 164.277C1044.84 164.297 1044.82 164.317 1044.81 164.339C1044.8 164.356 1044.79 164.375 1044.78 164.392C1044.77 164.409 1044.76 164.426 1044.75 164.443C1044.73 164.476 1044.72 164.511 1044.7 164.545C1044.7 164.548 1044.7 164.551 1044.7 164.554C1044.7 164.554 1044.7 164.555 1044.7 164.555C1044.7 164.558 1044.7 164.561 1044.69 164.564C1044.67 164.62 1044.58 164.853 1044.45 165.218C1044.35 164.423 1044.29 163.675 1044.29 163.075C1044.29 160.373 1045.59 159.164 1046.88 159.164C1046.95 159.164 1047.01 159.158 1047.06 159.15C1047.12 159.158 1047.18 159.164 1047.24 159.164C1047.51 159.164 1047.77 159.081 1048 158.909C1049.17 158.023 1050.67 157.725 1052.88 157.943C1053.56 158.012 1054.18 157.509 1054.25 156.822C1054.31 156.135 1053.81 155.523 1053.12 155.455C1051.43 155.288 1048.98 155.244 1046.84 156.665C1043.87 156.689 1041.79 159.318 1041.79 163.075C1041.79 165.707 1042.83 170.505 1043.03 171.4V172.731Z" fill="#CFB53B"/>
<path d="M1041.75 195.372H1036.19C1035.79 195.372 1035.5 195.137 1035.5 194.927V193.327C1035.5 191.473 1036.64 189.277 1038.82 188.645L1043.37 187.693L1045.72 191.084C1045.97 191.434 1046.35 191.622 1046.75 191.622C1047 191.622 1047.24 191.55 1047.46 191.399C1048.03 191.006 1048.17 190.227 1047.78 189.66L1045.44 186.282L1046.13 185.234L1051 188.873C1051.56 189.286 1052.34 189.173 1052.75 188.62C1053.16 188.066 1053.05 187.283 1052.5 186.87L1047.15 182.875C1046.75 182.565 1046.25 182.422 1045.75 182.483C1045.24 182.545 1044.77 182.816 1044.46 183.227C1044.44 183.247 1044.43 183.268 1044.42 183.289L1043.17 185.182L1038.26 186.207C1038.24 186.213 1038.21 186.219 1038.18 186.227C1034.78 187.18 1033 190.52 1033 193.327V194.927C1033 196.551 1034.43 197.872 1036.19 197.872H1041.75C1042.44 197.872 1043 197.312 1043 196.622C1043 195.931 1042.44 195.372 1041.75 195.372Z" fill="#CFB53B"/>
<path d="M1091.72 156.621C1093.56 156.658 1095.59 156.987 1097.56 157.305C1099.04 157.545 1100.47 157.773 1101.7 157.852C1101.66 160.812 1101.46 163.474 1101.24 165.618C1101.24 165.616 1101.24 165.614 1101.24 165.612C1101.22 165.598 1101.2 165.584 1101.18 165.571C1101.17 165.565 1101.16 165.558 1101.15 165.553C1101.14 165.546 1101.13 165.54 1101.11 165.533C1101.11 165.533 1101.11 165.532 1101.11 165.531C1098.61 164.024 1095.58 163.155 1091.84 162.875C1091.15 162.823 1090.56 163.34 1090.5 164.028C1090.45 164.716 1090.97 165.316 1091.66 165.368C1094.84 165.607 1097.42 166.306 1099.53 167.501C1099.82 168.199 1100.47 169.967 1100.47 171.996V172.731C1100.47 177.633 1097.08 181.621 1092.9 181.621C1091.42 181.621 1089.99 181.121 1088.76 180.176C1088.21 179.755 1087.43 179.858 1087.01 180.405C1086.59 180.952 1086.69 181.737 1087.24 182.158C1088.91 183.443 1090.87 184.121 1092.9 184.121C1095.62 184.121 1098.16 182.926 1100.06 180.756C1101.94 178.618 1102.97 175.768 1102.97 172.731V171.38C1103.15 170.446 1104.18 164.627 1104.21 156.936C1104.24 156.812 1104.26 156.682 1104.25 156.548C1104.21 155.881 1103.65 155.368 1102.99 155.373C1102.98 155.373 1102.97 155.372 1102.96 155.372C1102.94 155.372 1102.91 155.374 1102.89 155.375C1101.68 155.438 1099.87 155.146 1097.96 154.837C1096 154.521 1093.79 154.162 1091.77 154.122C1091.08 154.105 1090.51 154.656 1090.5 155.347C1090.49 156.037 1091.03 156.608 1091.72 156.621Z" fill="#CFB53B"/>
<path d="M1107.82 186.227C1107.79 186.219 1107.76 186.213 1107.74 186.207L1102.83 185.182L1101.58 183.289C1101.57 183.268 1101.56 183.247 1101.54 183.227C1101.23 182.816 1100.76 182.545 1100.25 182.483C1099.75 182.422 1099.25 182.565 1098.85 182.875L1093.5 186.87C1092.95 187.283 1092.84 188.066 1093.25 188.62C1093.66 189.173 1094.44 189.286 1095 188.873L1099.87 185.234L1100.56 186.282L1098.22 189.66C1097.83 190.227 1097.97 191.006 1098.54 191.399C1098.76 191.549 1099 191.622 1099.25 191.622C1099.64 191.622 1100.03 191.434 1100.28 191.084L1102.63 187.692L1107.18 188.645C1109.36 189.277 1110.5 191.473 1110.5 193.327V194.927C1110.5 195.137 1110.21 195.372 1109.81 195.372H1104.25C1103.56 195.372 1103 195.931 1103 196.622C1103 197.312 1103.56 197.872 1104.25 197.872H1109.81C1111.57 197.872 1113 196.551 1113 194.927V193.327C1113 190.52 1111.22 187.18 1107.82 186.227Z" fill="#CFB53B"/>
<path d="M1033.14 290H1003.74V282.2L1017.66 267.5C1019.18 265.86 1020.22 264.6 1020.78 263.72C1021.38 262.8 1021.68 261.9 1021.68 261.02C1021.68 259.94 1021.34 259.1 1020.66 258.5C1020.02 257.86 1019.12 257.54 1017.96 257.54C1015.44 257.54 1013.56 259 1012.32 261.92L1003.08 256.76C1004.4 253.68 1006.36 251.3 1008.96 249.62C1011.6 247.94 1014.56 247.1 1017.84 247.1C1021.84 247.1 1025.26 248.3 1028.1 250.7C1030.98 253.06 1032.42 256.3 1032.42 260.42C1032.42 262.74 1031.88 264.94 1030.8 267.02C1029.72 269.06 1028.02 271.28 1025.7 273.68L1020 279.62H1033.14V290ZM1066.04 284.96C1063 288.92 1058.74 290.9 1053.26 290.9C1047.78 290.9 1043.5 288.92 1040.42 284.96C1037.38 280.96 1035.86 275.64 1035.86 269C1035.86 262.32 1037.38 257.02 1040.42 253.1C1043.46 249.1 1047.74 247.1 1053.26 247.1C1058.74 247.1 1063 249.1 1066.04 253.1C1069.12 257.1 1070.66 262.4 1070.66 269C1070.66 275.6 1069.12 280.92 1066.04 284.96ZM1053.26 257.54C1048.82 257.54 1046.6 261.36 1046.6 269C1046.6 276.64 1048.82 280.46 1053.26 280.46C1057.7 280.46 1059.92 276.64 1059.92 269C1059.92 261.36 1057.7 257.54 1053.26 257.54ZM1103.83 284.96C1100.79 288.92 1096.53 290.9 1091.05 290.9C1085.57 290.9 1081.29 288.92 1078.21 284.96C1075.17 280.96 1073.65 275.64 1073.65 269C1073.65 262.32 1075.17 257.02 1078.21 253.1C1081.25 249.1 1085.53 247.1 1091.05 247.1C1096.53 247.1 1100.79 249.1 1103.83 253.1C1106.91 257.1 1108.45 262.4 1108.45 269C1108.45 275.6 1106.91 280.92 1103.83 284.96ZM1091.05 257.54C1086.61 257.54 1084.39 261.36 1084.39 269C1084.39 276.64 1086.61 280.46 1091.05 280.46C1095.49 280.46 1097.71 276.64 1097.71 269C1097.71 261.36 1095.49 257.54 1091.05 257.54ZM1131.48 264.26H1141.08V273.74H1131.48V283.34H1122V273.74H1112.4V264.26H1122V254.66H1131.48V264.26Z" fill="#024342"/>
<path opacity="0.6" d="M1039.51 322.3H1048.87V323.65H1039.51V322.3ZM1043.47 323.506H1044.91V334H1043.47V323.506ZM1055.06 331.102H1056.41C1056.32 331.69 1056.1 332.218 1055.76 332.686C1055.44 333.142 1055.01 333.508 1054.47 333.784C1053.94 334.048 1053.33 334.18 1052.63 334.18C1051.79 334.18 1051.04 333.982 1050.36 333.586C1049.69 333.178 1049.16 332.626 1048.76 331.93C1048.38 331.222 1048.19 330.418 1048.19 329.518C1048.19 328.618 1048.37 327.814 1048.74 327.106C1049.13 326.398 1049.65 325.84 1050.31 325.432C1050.97 325.024 1051.71 324.82 1052.54 324.82C1053.42 324.82 1054.16 325.018 1054.76 325.414C1055.37 325.798 1055.82 326.368 1056.11 327.124C1056.41 327.868 1056.53 328.786 1056.47 329.878H1049.63C1049.69 330.466 1049.85 330.982 1050.11 331.426C1050.38 331.87 1050.72 332.218 1051.16 332.47C1051.59 332.71 1052.08 332.83 1052.63 332.83C1053.24 332.83 1053.76 332.674 1054.18 332.362C1054.61 332.038 1054.91 331.618 1055.06 331.102ZM1052.6 326.17C1051.85 326.17 1051.23 326.386 1050.72 326.818C1050.22 327.25 1049.88 327.838 1049.72 328.582H1054.99C1054.94 327.79 1054.68 327.19 1054.22 326.782C1053.76 326.374 1053.22 326.17 1052.6 326.17ZM1061.73 334.18C1061.02 334.18 1060.36 333.982 1059.76 333.586C1059.18 333.178 1058.7 332.626 1058.34 331.93C1057.99 331.222 1057.82 330.418 1057.82 329.518C1057.82 328.618 1058 327.814 1058.36 327.106C1058.72 326.398 1059.21 325.84 1059.82 325.432C1060.44 325.024 1061.14 324.82 1061.91 324.82C1062.75 324.82 1063.38 325.036 1063.81 325.468C1064.26 325.888 1064.56 326.452 1064.71 327.16C1064.88 327.868 1064.97 328.654 1064.97 329.518C1064.97 329.974 1064.92 330.472 1064.82 331.012C1064.73 331.54 1064.56 332.05 1064.32 332.542C1064.09 333.022 1063.77 333.418 1063.35 333.73C1062.93 334.03 1062.39 334.18 1061.73 334.18ZM1062.09 332.812C1062.7 332.812 1063.2 332.662 1063.6 332.362C1064.01 332.062 1064.31 331.666 1064.5 331.174C1064.69 330.67 1064.79 330.118 1064.79 329.518C1064.79 328.858 1064.68 328.282 1064.48 327.79C1064.29 327.286 1063.99 326.896 1063.58 326.62C1063.18 326.332 1062.69 326.188 1062.09 326.188C1061.19 326.188 1060.49 326.506 1060 327.142C1059.51 327.766 1059.26 328.558 1059.26 329.518C1059.26 330.154 1059.38 330.724 1059.62 331.228C1059.87 331.72 1060.21 332.11 1060.63 332.398C1061.06 332.674 1061.55 332.812 1062.09 332.812ZM1064.79 325H1066.23V334H1064.91C1064.91 334 1064.9 333.892 1064.88 333.676C1064.86 333.46 1064.85 333.208 1064.82 332.92C1064.8 332.632 1064.79 332.392 1064.79 332.2V325ZM1068.57 325H1070.01V334H1068.57V325ZM1073.11 324.82C1073.59 324.82 1074.02 324.892 1074.4 325.036C1074.79 325.18 1075.11 325.39 1075.38 325.666C1075.64 325.942 1075.84 326.278 1075.99 326.674C1076.13 327.058 1076.2 327.496 1076.2 327.988V334H1074.76V328.348C1074.76 327.652 1074.6 327.13 1074.28 326.782C1073.95 326.434 1073.47 326.26 1072.82 326.26C1072.33 326.26 1071.87 326.386 1071.45 326.638C1071.03 326.89 1070.68 327.238 1070.41 327.682C1070.14 328.114 1069.98 328.618 1069.92 329.194L1069.9 328.15C1069.96 327.646 1070.08 327.19 1070.26 326.782C1070.46 326.374 1070.69 326.026 1070.97 325.738C1071.25 325.438 1071.58 325.21 1071.94 325.054C1072.31 324.898 1072.7 324.82 1073.11 324.82ZM1079.16 324.82C1079.64 324.82 1080.07 324.892 1080.45 325.036C1080.84 325.18 1081.16 325.39 1081.42 325.666C1081.69 325.942 1081.89 326.278 1082.04 326.674C1082.18 327.058 1082.25 327.496 1082.25 327.988V334H1080.81V328.348C1080.81 327.652 1080.65 327.13 1080.33 326.782C1080 326.434 1079.52 326.26 1078.87 326.26C1078.38 326.26 1077.92 326.386 1077.5 326.638C1077.08 326.89 1076.73 327.238 1076.46 327.682C1076.19 328.114 1076.03 328.618 1075.97 329.194L1075.95 328.15C1076.01 327.646 1076.13 327.19 1076.31 326.782C1076.5 326.374 1076.74 326.026 1077.01 325.738C1077.3 325.438 1077.63 325.21 1077.99 325.054C1078.36 324.898 1078.75 324.82 1079.16 324.82ZM1093.85 334.18C1092.79 334.18 1091.81 333.934 1090.94 333.442C1090.07 332.938 1089.38 332.236 1088.87 331.336C1088.35 330.436 1088.09 329.374 1088.09 328.15C1088.09 326.926 1088.35 325.864 1088.87 324.964C1089.38 324.052 1090.07 323.35 1090.94 322.858C1091.81 322.366 1092.79 322.12 1093.85 322.12C1094.92 322.12 1095.89 322.366 1096.75 322.858C1097.63 323.35 1098.32 324.052 1098.84 324.964C1099.36 325.864 1099.61 326.926 1099.61 328.15C1099.61 329.374 1099.36 330.436 1098.84 331.336C1098.32 332.236 1097.63 332.938 1096.75 333.442C1095.89 333.934 1094.92 334.18 1093.85 334.18ZM1093.85 332.83C1094.67 332.83 1095.4 332.656 1096.05 332.308C1096.7 331.948 1097.21 331.42 1097.6 330.724C1097.98 330.028 1098.17 329.17 1098.17 328.15C1098.17 327.13 1097.98 326.278 1097.6 325.594C1097.21 324.898 1096.7 324.37 1096.05 324.01C1095.4 323.65 1094.67 323.47 1093.85 323.47C1093.05 323.47 1092.32 323.65 1091.66 324.01C1091.01 324.37 1090.49 324.898 1090.11 325.594C1089.73 326.278 1089.53 327.13 1089.53 328.15C1089.53 329.17 1089.73 330.028 1090.11 330.724C1090.49 331.42 1091.01 331.948 1091.66 332.308C1092.32 332.656 1093.05 332.83 1093.85 332.83ZM1101.06 325H1106.35V326.35H1101.06V325ZM1105.72 321.4H1106.55V322.84H1105.72C1105.42 322.828 1105.14 322.87 1104.89 322.966C1104.65 323.062 1104.46 323.23 1104.32 323.47C1104.17 323.698 1104.1 324.028 1104.1 324.46V334H1102.66V324.46C1102.66 323.74 1102.79 323.158 1103.04 322.714C1103.3 322.258 1103.66 321.928 1104.12 321.724C1104.59 321.508 1105.12 321.4 1105.72 321.4Z" fill="#242424"/>
<rect x="1264" y="140" width="1" height="190" rx="0.5" fill="black" fill-opacity="0.2"/>
<g clip-path="url(#clip1_1290_1585)">
<path d="M1480.8 195.648C1480.18 195.655 1480.25 195.625 1479.42 195.683V176.258C1479.42 174.179 1477.73 172.488 1475.65 172.488H1466.13C1466.12 172.488 1466.12 172.487 1466.11 172.487H1455.15V143.223L1464.14 151.913C1464.65 152.405 1464.94 153.091 1464.94 153.798V168.135C1464.94 168.782 1465.47 169.307 1466.11 169.307C1466.76 169.307 1467.28 168.782 1467.28 168.135V153.798C1467.28 152.46 1466.73 151.158 1465.77 150.228L1454.79 139.618C1454.55 139.387 1454.07 139.179 1453.61 139.35L1433.92 145.969V141.406C1433.93 139.413 1432.14 137.678 1430.06 137.798C1428.07 137.798 1426.45 139.417 1426.45 141.406V148.478L1421.3 150.209C1419.28 150.89 1417.92 152.781 1417.92 154.916V195.654C1412.7 195.788 1408.5 200.068 1408.5 205.315V211.274C1408.5 212.892 1409.82 214.208 1411.43 214.208H1485.57C1487.18 214.208 1488.5 212.892 1488.5 211.274V203.344C1488.5 199.1 1485.05 195.648 1480.8 195.648ZM1480.8 197.992C1483.75 197.992 1486.16 200.393 1486.16 203.344V204.574H1474.79V203.344C1474.79 200.141 1477.61 197.714 1480.8 197.992ZM1477.07 176.258V196.288C1474.35 197.475 1472.45 200.191 1472.45 203.344V204.574H1455.15V174.831H1475.65C1476.43 174.831 1477.07 175.471 1477.07 176.258ZM1428.8 141.406C1428.8 140.709 1429.36 140.142 1430.06 140.142C1430.69 140.05 1431.53 140.542 1431.57 141.406V146.757L1428.8 147.69V141.406ZM1417.92 197.996V204.574H1410.88C1411.25 200.964 1414.24 198.12 1417.92 197.996ZM1410.84 211.274V206.918H1417.92V211.864H1411.43C1411.11 211.864 1410.84 211.599 1410.84 211.274ZM1420.26 154.916C1420.26 153.789 1420.98 152.79 1422.05 152.431L1452.81 142.091V148.476L1427.25 157.067C1426.64 157.273 1426.31 157.938 1426.51 158.552C1426.68 159.041 1427.13 159.35 1427.62 159.35C1427.75 159.35 1427.87 159.331 1428 159.289L1452.81 150.949V156.911L1427.25 165.502C1426.64 165.708 1426.31 166.373 1426.51 166.986C1426.68 167.476 1427.13 167.785 1427.62 167.785C1427.75 167.785 1427.87 167.765 1428 167.723L1452.81 159.383V165.345L1427.25 173.936C1426.64 174.142 1426.31 174.807 1426.51 175.42C1426.68 175.91 1427.13 176.219 1427.62 176.219C1427.75 176.219 1427.87 176.199 1428 176.158L1452.81 167.818V173.655C1452.81 173.657 1452.81 173.658 1452.81 173.66V173.78L1427.25 182.37C1426.64 182.577 1426.31 183.241 1426.51 183.855C1426.68 184.344 1427.13 184.653 1427.62 184.653C1427.75 184.653 1427.87 184.634 1428 184.592L1452.81 176.252V182.214L1436.85 187.578C1436.24 187.784 1435.91 188.449 1436.11 189.063C1436.28 189.552 1436.73 189.861 1437.22 189.861C1437.35 189.861 1437.47 189.842 1437.6 189.8L1452.81 184.686V211.864H1442.68V199.687C1442.68 198.889 1442.32 198.154 1441.68 197.672C1441.05 197.189 1440.24 197.035 1439.47 197.25L1428.57 200.295C1427.32 200.643 1426.45 201.788 1426.45 203.08V211.864H1420.26V154.916ZM1428.8 203.08C1428.8 202.835 1428.96 202.618 1429.2 202.553L1433.4 201.38V211.864H1428.8L1428.8 203.08ZM1435.74 211.864V200.726L1440.1 199.507C1440.16 199.491 1440.22 199.501 1440.27 199.538C1440.32 199.576 1440.34 199.626 1440.34 199.687V211.864H1435.74ZM1455.15 211.864V206.918H1472.45V211.864H1455.15ZM1486.16 211.274C1486.16 211.6 1485.89 211.864 1485.57 211.864H1474.79V206.918H1486.16V211.274Z" fill="#CFB53B"/>
<path d="M1427.62 193.088C1427.75 193.088 1427.87 193.068 1428 193.026L1432.35 191.564C1432.96 191.358 1433.29 190.693 1433.09 190.08C1432.88 189.466 1432.21 189.136 1431.6 189.342L1427.25 190.805C1426.64 191.011 1426.31 191.675 1426.51 192.289C1426.68 192.779 1427.13 193.088 1427.62 193.088Z" fill="#CFB53B"/>
<path d="M1460.28 184.497H1471.78C1472.87 184.497 1473.75 183.611 1473.75 182.521V179.7C1473.75 178.61 1472.87 177.724 1471.78 177.724H1460.28C1459.19 177.724 1458.31 178.61 1458.31 179.7V182.521C1458.31 183.611 1459.19 184.497 1460.28 184.497ZM1460.65 180.067H1471.41V182.153H1460.65V180.067Z" fill="#CFB53B"/>
<path d="M1460.28 193.408H1471.78C1472.87 193.408 1473.75 192.521 1473.75 191.431V188.611C1473.75 187.521 1472.87 186.634 1471.78 186.634H1460.28C1459.19 186.634 1458.31 187.521 1458.31 188.611V191.431C1458.31 192.521 1459.19 193.408 1460.28 193.408ZM1460.65 188.978H1471.41V191.064H1460.65V188.978Z" fill="#CFB53B"/>
<path d="M1460.28 202.41H1464.09C1465.17 202.41 1466.06 201.523 1466.06 200.433V197.613C1466.06 196.523 1465.17 195.636 1464.09 195.636H1460.28C1459.19 195.636 1458.31 196.523 1458.31 197.613V200.433C1458.31 201.523 1459.19 202.41 1460.28 202.41ZM1460.65 197.98H1463.72V200.066H1460.65V197.98Z" fill="#CFB53B"/>
</g>
<path d="M1415.85 290H1386.45V282.2L1400.37 267.5C1401.89 265.86 1402.93 264.6 1403.49 263.72C1404.09 262.8 1404.39 261.9 1404.39 261.02C1404.39 259.94 1404.05 259.1 1403.37 258.5C1402.73 257.86 1401.83 257.54 1400.67 257.54C1398.15 257.54 1396.27 259 1395.03 261.92L1385.79 256.76C1387.11 253.68 1389.07 251.3 1391.67 249.62C1394.31 247.94 1397.27 247.1 1400.55 247.1C1404.55 247.1 1407.97 248.3 1410.81 250.7C1413.69 253.06 1415.13 256.3 1415.13 260.42C1415.13 262.74 1414.59 264.94 1413.51 267.02C1412.43 269.06 1410.73 271.28 1408.41 273.68L1402.71 279.62H1415.85V290ZM1448.74 284.96C1445.7 288.92 1441.44 290.9 1435.96 290.9C1430.48 290.9 1426.2 288.92 1423.12 284.96C1420.08 280.96 1418.56 275.64 1418.56 269C1418.56 262.32 1420.08 257.02 1423.12 253.1C1426.16 249.1 1430.44 247.1 1435.96 247.1C1441.44 247.1 1445.7 249.1 1448.74 253.1C1451.82 257.1 1453.36 262.4 1453.36 269C1453.36 275.6 1451.82 280.92 1448.74 284.96ZM1435.96 257.54C1431.52 257.54 1429.3 261.36 1429.3 269C1429.3 276.64 1431.52 280.46 1435.96 280.46C1440.4 280.46 1442.62 276.64 1442.62 269C1442.62 261.36 1440.4 257.54 1435.96 257.54ZM1454.28 252.08L1465.68 248H1474.92V290H1464.18V259.28L1456.86 261.14L1454.28 252.08ZM1493.22 262.76H1496.22C1500.38 262.76 1503.8 263.96 1506.48 266.36C1509.24 268.76 1510.62 272.16 1510.62 276.56C1510.62 281.12 1509.14 284.66 1506.18 287.18C1503.22 289.66 1499.54 290.9 1495.14 290.9C1491.38 290.9 1488.14 290.1 1485.42 288.5C1482.74 286.9 1480.8 284.54 1479.6 281.42L1488.96 276.08C1489.84 279 1491.9 280.46 1495.14 280.46C1496.66 280.46 1497.82 280.12 1498.62 279.44C1499.46 278.72 1499.88 277.76 1499.88 276.56C1499.88 275.32 1499.46 274.36 1498.62 273.68C1497.82 273 1496.72 272.66 1495.32 272.66H1481.88L1483.62 248H1508.34V258.26H1493.52L1493.22 262.76Z" fill="#024342"/>
<path opacity="0.6" d="M1427.55 330.202H1428.85C1428.89 330.706 1429.04 331.156 1429.3 331.552C1429.56 331.948 1429.92 332.26 1430.38 332.488C1430.85 332.716 1431.39 332.83 1432.02 332.83C1432.56 332.83 1433.01 332.752 1433.37 332.596C1433.74 332.428 1434.02 332.2 1434.2 331.912C1434.39 331.624 1434.48 331.288 1434.48 330.904C1434.48 330.508 1434.39 330.19 1434.2 329.95C1434 329.71 1433.73 329.506 1433.37 329.338C1433.01 329.17 1432.58 329.008 1432.09 328.852C1431.62 328.708 1431.15 328.54 1430.67 328.348C1430.19 328.156 1429.74 327.922 1429.32 327.646C1428.91 327.37 1428.58 327.04 1428.33 326.656C1428.08 326.26 1427.95 325.786 1427.95 325.234C1427.95 324.694 1428.09 324.19 1428.38 323.722C1428.68 323.242 1429.11 322.858 1429.68 322.57C1430.25 322.27 1430.94 322.12 1431.75 322.12C1433.01 322.12 1433.95 322.462 1434.57 323.146C1435.2 323.83 1435.5 324.736 1435.47 325.864H1434.18C1434.15 325.012 1433.91 324.4 1433.46 324.028C1433 323.656 1432.41 323.47 1431.68 323.47C1431.06 323.47 1430.53 323.614 1430.07 323.902C1429.62 324.178 1429.39 324.616 1429.39 325.216C1429.39 325.48 1429.44 325.714 1429.53 325.918C1429.64 326.11 1429.81 326.29 1430.04 326.458C1430.28 326.626 1430.6 326.794 1430.99 326.962C1431.4 327.118 1431.9 327.292 1432.49 327.484C1432.87 327.604 1433.26 327.748 1433.66 327.916C1434.06 328.084 1434.44 328.294 1434.77 328.546C1435.12 328.798 1435.4 329.122 1435.6 329.518C1435.82 329.902 1435.92 330.388 1435.92 330.976C1435.92 331.54 1435.79 332.068 1435.51 332.56C1435.25 333.04 1434.83 333.43 1434.25 333.73C1433.69 334.03 1432.95 334.18 1432.05 334.18C1431.29 334.18 1430.63 334.078 1430.07 333.874C1429.53 333.658 1429.09 333.382 1428.74 333.046C1428.39 332.71 1428.12 332.362 1427.93 332.002C1427.75 331.63 1427.63 331.282 1427.57 330.958C1427.51 330.634 1427.51 330.382 1427.55 330.202ZM1439.6 321.4V323.146H1437.72V321.4H1439.6ZM1437.94 325H1439.38V334H1437.94V325ZM1441.84 325H1443.28V334H1441.84V325ZM1446.37 324.82C1446.85 324.82 1447.29 324.892 1447.67 325.036C1448.05 325.18 1448.38 325.39 1448.64 325.666C1448.91 325.942 1449.11 326.278 1449.25 326.674C1449.4 327.058 1449.47 327.496 1449.47 327.988V334H1448.03V328.348C1448.03 327.652 1447.87 327.13 1447.54 326.782C1447.22 326.434 1446.73 326.26 1446.09 326.26C1445.59 326.26 1445.14 326.386 1444.72 326.638C1444.3 326.89 1443.95 327.238 1443.67 327.682C1443.41 328.114 1443.25 328.618 1443.19 329.194L1443.17 328.15C1443.23 327.646 1443.35 327.19 1443.53 326.782C1443.72 326.374 1443.96 326.026 1444.23 325.738C1444.52 325.438 1444.84 325.21 1445.2 325.054C1445.58 324.898 1445.97 324.82 1446.37 324.82ZM1459.8 330.616C1459.71 331.36 1459.47 332.002 1459.08 332.542C1458.69 333.07 1458.21 333.478 1457.62 333.766C1457.03 334.042 1456.4 334.18 1455.71 334.18C1454.94 334.18 1454.22 333.994 1453.55 333.622C1452.88 333.25 1452.33 332.716 1451.91 332.02C1451.51 331.312 1451.3 330.478 1451.3 329.518C1451.3 328.558 1451.51 327.73 1451.91 327.034C1452.33 326.326 1452.88 325.78 1453.55 325.396C1454.22 325.012 1454.94 324.82 1455.71 324.82C1456.4 324.82 1457.03 324.964 1457.6 325.252C1458.19 325.54 1458.68 325.948 1459.06 326.476C1459.46 327.004 1459.7 327.634 1459.8 328.366H1458.48C1458.28 327.682 1457.93 327.148 1457.42 326.764C1456.92 326.368 1456.35 326.17 1455.71 326.17C1455.2 326.17 1454.71 326.302 1454.25 326.566C1453.8 326.83 1453.43 327.214 1453.16 327.718C1452.88 328.21 1452.74 328.81 1452.74 329.518C1452.74 330.214 1452.88 330.814 1453.16 331.318C1453.43 331.81 1453.79 332.188 1454.24 332.452C1454.69 332.704 1455.18 332.83 1455.71 332.83C1456.44 332.83 1457.04 332.638 1457.49 332.254C1457.96 331.858 1458.3 331.312 1458.5 330.616H1459.8ZM1468 331.102H1469.35C1469.26 331.69 1469.04 332.218 1468.71 332.686C1468.38 333.142 1467.95 333.508 1467.41 333.784C1466.88 334.048 1466.27 334.18 1465.57 334.18C1464.73 334.18 1463.98 333.982 1463.31 333.586C1462.63 333.178 1462.1 332.626 1461.7 331.93C1461.32 331.222 1461.13 330.418 1461.13 329.518C1461.13 328.618 1461.31 327.814 1461.69 327.106C1462.07 326.398 1462.59 325.84 1463.25 325.432C1463.91 325.024 1464.66 324.82 1465.48 324.82C1466.36 324.82 1467.1 325.018 1467.7 325.414C1468.31 325.798 1468.76 326.368 1469.05 327.124C1469.35 327.868 1469.47 328.786 1469.41 329.878H1462.57C1462.63 330.466 1462.79 330.982 1463.05 331.426C1463.32 331.87 1463.67 332.218 1464.1 332.47C1464.53 332.71 1465.02 332.83 1465.57 332.83C1466.19 332.83 1466.7 332.674 1467.12 332.362C1467.55 332.038 1467.85 331.618 1468 331.102ZM1465.54 326.17C1464.79 326.17 1464.17 326.386 1463.67 326.818C1463.16 327.25 1462.83 327.838 1462.66 328.582H1467.93C1467.88 327.79 1467.63 327.19 1467.16 326.782C1466.7 326.374 1466.16 326.17 1465.54 326.17Z" fill="#242424"/>
<mask id="mask0_1290_1585" style="mask-type:alpha" maskUnits="userSpaceOnUse" x="60" y="60" width="1600" height="350">
<rect x="60" y="60" width="1600" height="350" rx="16" fill="white"/>
</mask>
<g mask="url(#mask0_1290_1585)">
<path d="M69.1181 230.633C90.4336 226.854 111.825 240.673 128.801 254.125C145.719 267.531 160.622 285.632 165.178 306.752C169.615 327.321 154.712 346.956 153.355 367.955C152.121 387.03 163.67 406.312 157.57 424.425C151.4 442.746 137.828 460.449 119.841 467.468C101.553 474.604 79.771 470.03 61.9818 461.724C46.5636 454.525 41.2322 435.126 27.9019 424.541C21.1587 419.186 11.4027 420.064 3.99502 415.678C-3.98794 410.951 -11.253 405.227 -17.0127 397.947C-23.4927 389.757 -28.5735 380.66 -31.6193 370.665C-35.2244 358.835 -34.4933 346.558 -36.3968 334.337C-40.1943 309.955 -64.7415 280.808 -48.5057 262.249C-33.8453 245.491 -5.15664 279.841 16.3283 274.066C38.6012 268.079 46.4102 234.659 69.1181 230.633Z" fill="#CFB53B"/>
<path d="M1635.12 -46.3671C1656.43 -50.1461 1677.82 -36.3272 1694.8 -22.8746C1711.72 -9.46877 1726.62 8.63203 1731.18 29.752C1735.61 50.3206 1720.71 69.9558 1719.35 90.9551C1718.12 110.03 1729.67 129.312 1723.57 147.425C1717.4 165.746 1703.83 183.449 1685.84 190.468C1667.55 197.604 1645.77 193.03 1627.98 184.724C1612.56 177.525 1607.23 158.126 1593.9 147.541C1587.16 142.186 1577.4 143.064 1570 138.678C1562.01 133.951 1554.75 128.227 1548.99 120.947C1542.51 112.757 1537.43 103.66 1534.38 93.6649C1530.78 81.8347 1531.51 69.558 1529.6 57.3368C1525.81 32.9554 1501.26 3.80833 1517.49 -14.751C1532.15 -31.5094 1560.84 2.84102 1582.33 -2.93391C1604.6 -8.92063 1612.41 -42.3411 1635.12 -46.3671Z" fill="#CFB53B"/>
</g>
<defs>
<filter id="filter0_d_1290_1585" x="0" y="0" width="1720" height="470" filterUnits="userSpaceOnUse" color-interpolation-filters="sRGB">
<feFlood flood-opacity="0" result="BackgroundImageFix"/>
<feColorMatrix in="SourceAlpha" type="matrix" values="0 0 0 0 0 0 0 0 0 0 0 0 0 0 0 0 0 0 127 0" result="hardAlpha"/>
<feOffset/>
<feGaussianBlur stdDeviation="30"/>
<feComposite in2="hardAlpha" operator="out"/>
<feColorMatrix type="matrix" values="0 0 0 0 0 0 0 0 0 0 0 0 0 0 0 0 0 0 0.08 0"/>
<feBlend mode="normal" in2="BackgroundImageFix" result="effect1_dropShadow_1290_1585"/>
<feBlend mode="normal" in="SourceGraphic" in2="effect1_dropShadow_1290_1585" result="shape"/>
</filter>
<clipPath id="clip0_1290_1585">
<rect width="80" height="80" fill="white" transform="translate(235 136)"/>
</clipPath>
<clipPath id="clip1_1290_1585">
<rect width="80" height="80" fill="white" transform="translate(1408.5 136)"/>
</clipPath>
</defs>
</svg>
